<?xml version="1.0" encoding="iso-8859-1"?>
<!-- Generator: Adobe Illustrator 17.1.0, SVG Export Plug-In . SVG Version: 6.00 Build 0)  -->
<!DOCTYPE svg PUBLIC "-//W3C//DTD SVG 1.1//EN" "http://www.w3.org/Graphics/SVG/1.1/DTD/svg11.dtd">
<svg version="1.1" id="Capa_1" xmlns="http://www.w3.org/2000/svg" xmlns:xlink="http://www.w3.org/1999/xlink" x="0px" y="0px"
	 viewBox="0 0 424.861 424.861" style="enable-background:new 0 0 424.861 424.861;" xml:space="preserve">
<path id="XMLID_1129_" d="M255.215,385.868c0.04,0,0.08,0,0.12-0.001h51.934c2.414,0,4.658-1.244,5.938-3.292
	c1.278-2.048,1.412-4.61,0.353-6.779c-20.93-42.865-3.321-76.911,15.32-112.957c19.41-37.532,39.48-76.341,15.465-125.528
	c-1.174-2.404-3.615-3.929-6.29-3.929h-51.912c-0.102-0.002-0.201-0.002-0.301,0h-51.9c-2.414,0-4.658,1.244-5.938,3.292
	c-1.278,2.047-1.412,4.61-0.353,6.779c20.928,42.864,3.319,76.91-15.322,112.955c-19.411,37.532-39.483,76.342-15.468,125.53
	c1.174,2.404,3.615,3.929,6.291,3.929h51.943C255.135,385.867,255.175,385.868,255.215,385.868z M207.62,371.867
	c-18.021-41.03-0.924-74.091,17.144-109.027c18.067-34.934,36.709-70.971,19.837-115.457h36.928
	c18.021,41.029,0.925,74.09-17.144,109.026c-18.066,34.934-36.707,70.972-19.834,115.458H207.62z M276.821,262.84
	c18.067-34.934,36.708-70.971,19.836-115.458h36.93c18.021,41.029,0.925,74.089-17.143,109.025
	c-18.067,34.935-36.708,70.972-19.835,115.459h-36.93C241.658,330.837,258.754,297.776,276.821,262.84z M200.698,48.77
	c0,3.866-3.134,7-7,7s-7-3.134-7-7v-1.916c0-3.866,3.134-7,7-7s7,3.134,7,7V48.77z M184.185,256.294
	c-1.048,2.82-3.721,4.564-6.563,4.564c-0.81,0-1.633-0.142-2.437-0.44c-8.778-3.261-17.512-6.964-25.959-10.545
	c-37.342-15.832-72.615-30.784-117.251-12.915c-2.157,0.863-4.601,0.601-6.525-0.702s-3.077-3.474-3.077-5.797v-43.715
	c-0.002-0.106-0.002-0.212,0-0.318V55.459C22.374,17.148,87.453,0,151.95,0c64.498,0,129.577,17.148,129.577,55.459v56.324
	c0,3.866-3.134,7-7,7s-7-3.134-7-7V55.459C267.527,31.824,217.839,14,151.95,14C86.061,14,36.374,31.824,36.374,55.459v77.309
	c45.527-14.395,82.492,1.274,118.317,16.461c16.711,7.084,33.991,14.41,51.585,18.214c3.779,0.817,6.18,4.542,5.362,8.321
	c-0.816,3.778-4.545,6.179-8.321,5.362c-18.884-4.083-36.782-11.671-54.091-19.008c-36.106-15.306-70.277-29.793-112.853-14.579
	v29.103c45.525-14.394,82.49,1.275,118.314,16.46c13.464,5.708,27.387,11.609,41.354,15.625c3.715,1.068,5.861,4.947,4.793,8.662
	c-1.069,3.715-4.945,5.859-8.662,4.793c-14.782-4.251-29.102-10.321-42.949-16.191c-36.106-15.306-70.277-29.791-112.85-14.579
	v29.105c45.527-14.395,82.493,1.275,118.317,16.463c8.303,3.52,16.889,7.16,25.37,10.312
	C183.685,248.641,185.531,252.67,184.185,256.294z M200.698,84.43v1.915c0,3.866-3.134,7-7,7s-7-3.134-7-7V84.43
	c0-3.866,3.134-7,7-7S200.698,80.564,200.698,84.43z M242.282,60.003c0,3.866-3.134,7-7,7s-7-3.134-7-7v-1.917c0-3.866,3.134-7,7-7
	s7,3.134,7,7V60.003z M242.282,95.662v1.917c0,3.866-3.134,7-7,7s-7-3.134-7-7v-1.917c0-3.866,3.134-7,7-7
	S242.282,91.796,242.282,95.662z M159.113,43.155c0,3.866-3.134,7-7,7s-7-3.134-7-7v-1.916c0-3.866,3.134-7,7-7s7,3.134,7,7V43.155z
	 M110.53,45.469c3.866,0,7,3.134,7,7v1.917c0,3.866-3.134,7-7,7c-3.866,0-7-3.134-7-7v-1.917
	C103.53,48.604,106.664,45.469,110.53,45.469z M375.694,300.215c-18.906,36.557-36.764,71.086-15.53,114.575
	c1.06,2.169,0.926,4.732-0.353,6.779c-1.279,2.048-3.523,3.292-5.938,3.292H248.345c-2.676,0-5.118-1.526-6.292-3.931
	c-2.251-4.615-4.175-9.279-5.719-13.861c-1.234-3.664,0.735-7.634,4.398-8.869c3.662-1.234,7.634,0.735,8.869,4.399
	c0.918,2.725,1.993,5.491,3.212,8.262h90.394c-17.169-45.11,1.731-81.656,20.052-117.078c18.334-35.45,35.683-68.989,17.354-110.645
	h-9.263c-3.866,0-7-3.134-7-7s3.134-7,7-7h13.729c2.676,0,5.116,1.525,6.29,3.929C415.691,222.879,395.358,262.194,375.694,300.215z
	 M159.113,78.814v1.916c0,3.866-3.134,7-7,7s-7-3.134-7-7v-1.916c0-3.866,3.134-7,7-7S159.113,74.948,159.113,78.814z"/>
<g>
</g>
<g>
</g>
<g>
</g>
<g>
</g>
<g>
</g>
<g>
</g>
<g>
</g>
<g>
</g>
<g>
</g>
<g>
</g>
<g>
</g>
<g>
</g>
<g>
</g>
<g>
</g>
<g>
</g>
</svg>
