<?xml version="1.0" encoding="iso-8859-1"?>
<!-- Generator: Adobe Illustrator 17.1.0, SVG Export Plug-In . SVG Version: 6.00 Build 0)  -->
<!DOCTYPE svg PUBLIC "-//W3C//DTD SVG 1.1//EN" "http://www.w3.org/Graphics/SVG/1.1/DTD/svg11.dtd">
<svg version="1.1" id="Capa_1" xmlns="http://www.w3.org/2000/svg" xmlns:xlink="http://www.w3.org/1999/xlink" x="0px" y="0px"
	 viewBox="0 0 418.187 418.187" style="enable-background:new 0 0 418.187 418.187;" xml:space="preserve">
<path id="XMLID_452_" d="M198.791,304.688c0.85-3.478,1.301-7.11,1.301-10.846c0-25.187-20.491-45.678-45.678-45.678
	s-45.677,20.491-45.677,45.678c0,3.186,0.327,6.295,0.951,9.298H84.503c-31.719,0-57.523,25.805-57.523,57.523
	c0,31.718,25.805,57.522,57.523,57.522h101.048c31.718,0,57.522-25.805,57.522-57.522
	C243.074,333.813,224.229,310.744,198.791,304.688z M154.414,262.165c17.467,0,31.678,14.211,31.678,31.678
	s-14.211,31.678-31.678,31.678s-31.677-14.211-31.677-31.678S136.947,262.165,154.414,262.165z M185.551,404.187H84.503
	c-18.761,0-34.788-11.934-40.891-28.606c7.208,3.16,15.032,4.831,22.983,4.831h136.862c3.866,0,7-3.134,7-7s-3.134-7-7-7H66.596
	c-9.17,0-18.122-2.946-25.539-8.352c1.352-22.791,20.322-40.919,43.446-40.919h30.633c7.973,13.39,22.595,22.38,39.277,22.38
	c16.396,0,30.8-8.682,38.859-21.69c20.397,3.692,35.801,21.718,35.801,42.834C229.074,384.662,209.549,404.187,185.551,404.187z
	 M391.205,253.213c-0.755-29.708-7.023-41.232-19.512-64.193c-1.577-2.9-3.267-6.005-5.07-9.377L311.074,75.809
	c-1.079-2.018-2.124-4.05-3.16-6.064c-7.027-13.666-14.878-28.932-31.236-32.466V7c0-3.866-3.134-7-7-7H212.78c-3.866,0-7,3.134-7,7
	v30.19c-17.999,3.344-31.72,18.916-35.142,40.84l-5.652,36.202c-0.597,3.82,2.017,7.399,5.836,7.996
	c3.824,0.602,7.4-2.017,7.996-5.836l5.652-36.203c2.306-14.769,12.066-29.67,28.675-29.67h56.163
	c12.35,0,17.984,9.738,26.155,25.627c1.07,2.081,2.15,4.181,3.266,6.266l55.549,103.834c1.82,3.402,3.524,6.535,5.116,9.463
	c12.113,22.271,17.135,31.501,17.813,57.771v111.749c0,21.481-17.478,38.958-38.96,38.958h-96.433c-3.866,0-7,3.134-7,7s3.134,7,7,7
	h96.433c29.202,0,52.96-23.757,52.96-52.958V253.391C391.207,253.331,391.206,253.272,391.205,253.213z M262.677,36.52H219.78V14
	h42.897V36.52z M165.151,184.726c14.422,0,26.155-11.733,26.155-26.155c0-14.423-11.733-26.156-26.155-26.156
	c-14.423,0-26.156,11.733-26.156,26.156C138.995,172.992,150.728,184.726,165.151,184.726z M165.151,146.414
	c6.702,0,12.155,5.453,12.155,12.156c0,6.702-5.453,12.155-12.155,12.155c-6.703,0-12.156-5.453-12.156-12.155
	C152.995,151.867,158.448,146.414,165.151,146.414z M165.314,202.904l-3.984,25.528c-0.539,3.454-3.518,5.922-6.907,5.922
	c-0.359,0-0.723-0.027-1.088-0.085c-3.82-0.596-6.434-4.176-5.837-7.995l3.984-25.528c0.596-3.821,4.182-6.444,7.995-5.837
	C163.297,195.505,165.911,199.085,165.314,202.904z M84.508,241.355c17.788,0,32.26-14.473,32.26-32.262
	c0-17.79-14.472-32.264-32.26-32.264c-17.791,0-32.266,14.474-32.266,32.264C52.243,226.883,66.717,241.355,84.508,241.355z
	 M84.508,190.83c10.068,0,18.26,8.193,18.26,18.264c0,10.069-8.191,18.262-18.26,18.262c-10.071,0-18.266-8.192-18.266-18.262
	C66.243,199.023,74.437,190.83,84.508,190.83z M147.414,279.441c0-3.866,3.134-7,7-7c11.801,0,21.401,9.601,21.401,21.4
	c0,3.866-3.134,7-7,7s-7-3.134-7-7c0-4.081-3.32-7.4-7.401-7.4C150.547,286.441,147.414,283.308,147.414,279.441z M94.552,101.887
	c14.422,0,26.154-11.733,26.154-26.155c0-14.423-11.732-26.156-26.154-26.156c-14.424,0-26.159,11.733-26.159,26.156
	C68.393,90.153,80.128,101.887,94.552,101.887z M94.552,63.575c6.702,0,12.154,5.453,12.154,12.156
	c0,6.702-5.452,12.155-12.154,12.155c-6.705,0-12.159-5.453-12.159-12.155C82.393,69.028,87.847,63.575,94.552,63.575z
	 M309.875,250.369c2.395,0.729,4.841,1.09,7.274,1.09c4.028,0,8.02-0.989,11.675-2.938c12.1-6.455,16.695-21.552,10.243-33.653
	c-0.001-0.003-0.003-0.006-0.005-0.009l-60.859-113.762c-6.455-12.102-21.556-16.697-33.657-10.24
	c-12.1,6.456-16.693,21.554-10.235,33.662l60.857,113.76C298.294,244.141,303.517,248.435,309.875,250.369z M251.134,103.209
	c1.626-0.867,3.374-1.278,5.1-1.278c3.892,0,7.663,2.092,9.621,5.763l60.858,113.76c2.821,5.292,0.812,11.893-4.479,14.715
	c-5.292,2.822-11.893,0.813-14.719-4.485l-60.857-113.76C243.836,112.632,245.845,106.031,251.134,103.209z"/>
<g>
</g>
<g>
</g>
<g>
</g>
<g>
</g>
<g>
</g>
<g>
</g>
<g>
</g>
<g>
</g>
<g>
</g>
<g>
</g>
<g>
</g>
<g>
</g>
<g>
</g>
<g>
</g>
<g>
</g>
</svg>
