<?xml version="1.0" encoding="iso-8859-1"?>
<!-- Generator: Adobe Illustrator 17.1.0, SVG Export Plug-In . SVG Version: 6.00 Build 0)  -->
<!DOCTYPE svg PUBLIC "-//W3C//DTD SVG 1.1//EN" "http://www.w3.org/Graphics/SVG/1.1/DTD/svg11.dtd">
<svg version="1.1" id="Capa_1" xmlns="http://www.w3.org/2000/svg" xmlns:xlink="http://www.w3.org/1999/xlink" x="0px" y="0px"
	 viewBox="0 0 426.833 426.833" style="enable-background:new 0 0 426.833 426.833;" xml:space="preserve">
<path id="XMLID_192_" d="M52.388,58.635c0-3.866,3.134-7,7-7h27.685c3.866,0,7,3.134,7,7s-3.134,7-7,7H59.388
	C55.521,65.635,52.388,62.501,52.388,58.635z M263.736,146.811c1.269,0,2.553-0.345,3.708-1.067
	c3.277-2.052,4.271-6.371,2.219-9.647c-8.204-13.105-2.516-22.978,7.443-37.999c9.377-14.144,21.047-31.745,7.643-53.162
	c-2.051-3.276-6.369-4.271-9.647-2.22c-3.277,2.051-4.271,6.37-2.22,9.647c8.203,13.105,2.515,22.978-7.444,37.998
	c-9.377,14.145-21.048,31.747-7.642,53.163C259.125,145.647,261.404,146.811,263.736,146.811z M293.038,143.524
	c1.328,2.123,3.608,3.287,5.94,3.287c1.269,0,2.553-0.345,3.708-1.067c3.277-2.052,4.27-6.371,2.219-9.647
	c-8.204-13.105-2.516-22.978,7.443-37.999c9.377-14.144,21.047-31.745,7.643-53.162c-2.051-3.276-6.369-4.271-9.647-2.22
	c-3.277,2.051-4.271,6.37-2.22,9.647c8.203,13.105,2.515,22.977-7.444,37.998C291.301,104.505,279.63,122.108,293.038,143.524z
	 M236.457,187.631h-2.002c-3.866,0-7,3.134-7,7s3.134,7,7,7h2.002c3.866,0,7-3.134,7-7S240.323,187.631,236.457,187.631z
	 M166.442,359.276c0.458,3.839-2.283,7.322-6.122,7.78c-13.95,1.664-28.894,2.508-44.416,2.508
	c-40.229,0-108.311-6.809-108.311-32.327v-72.412C2.541,260.793,0,256.264,0,251.257c0-3.866,3.134-7,7-7
	c0.2,0,0.398,0.009,0.594,0.024v-12.696C2.541,227.554,0,223.025,0,218.018c0-3.866,3.134-7,7-7c0.2,0,0.398,0.009,0.594,0.024
	v-12.696C2.541,194.315,0,189.786,0,184.779c0-3.866,3.134-7,7-7c0.2,0,0.398,0.009,0.594,0.024V72.203
	C2.541,68.171,0,63.642,0,58.635c0-11.109,12.516-19.871,37.2-26.042c21.108-5.277,49.06-8.184,78.705-8.184
	c29.644,0,57.595,2.906,78.703,8.184c24.683,6.171,37.199,14.933,37.199,26.042c0,5.007-2.542,9.536-7.593,13.567v68.742
	c0,3.866-3.134,7-7,7c-3.866,0-7-3.134-7-7V79.814c-4.504,1.767-9.708,3.39-15.606,4.864c-21.107,5.276-49.058,8.183-78.703,8.183
	c-29.646,0-57.597-2.906-78.705-8.183c-5.898-1.475-11.103-3.098-15.606-4.864v110.86c4.191,2.095,10.494,4.484,19.785,6.759
	c19.944,4.883,46.411,7.571,74.526,7.571c4.636,0,9.324-0.075,13.931-0.224c3.874-0.143,7.098,2.906,7.222,6.771
	s-2.907,7.098-6.771,7.222c-4.757,0.153-9.596,0.231-14.382,0.231c-29.646,0-57.597-2.906-78.705-8.183
	c-5.898-1.475-11.103-3.098-15.606-4.864v17.957c4.191,2.094,10.494,4.483,19.785,6.758c19.944,4.883,46.411,7.571,74.526,7.571
	c4.636,0,9.324-0.075,13.931-0.224c3.874-0.17,7.098,2.907,7.222,6.771c0.125,3.864-2.907,7.098-6.771,7.222
	c-4.757,0.153-9.596,0.231-14.382,0.231c-29.646,0-57.597-2.906-78.705-8.183c-5.898-1.475-11.103-3.098-15.606-4.864v17.957
	c4.191,2.094,10.494,4.483,19.785,6.758c19.944,4.883,46.411,7.571,74.526,7.571c4.636,0,9.324-0.075,13.931-0.224
	c3.874-0.147,7.098,2.906,7.222,6.771s-2.907,7.098-6.771,7.222c-4.757,0.153-9.596,0.231-14.382,0.231
	c-29.646,0-57.597-2.906-78.705-8.183c-5.898-1.475-11.103-3.098-15.606-4.864v64.801c0.384,1.424,6.101,6.836,26.506,11.636
	c18.346,4.315,42.426,6.691,67.805,6.691c14.97,0,29.356-0.811,42.758-2.41C162.499,352.697,165.984,355.436,166.442,359.276z
	 M41.378,71.29c19.944,4.883,46.411,7.571,74.526,7.571s54.582-2.689,74.525-7.571c22.06-5.4,27.269-11.449,27.376-12.657
	c-0.108-1.202-5.32-7.252-27.382-12.652c-19.943-4.882-46.408-7.57-74.52-7.57s-54.577,2.688-74.521,7.57
	C19.322,51.38,14.108,57.43,14,58.638C14.107,59.84,19.317,65.889,41.378,71.29z M287.465,187.631h-2.005c-3.866,0-7,3.134-7,7
	s3.134,7,7,7h2.005c3.866,0,7-3.134,7-7S291.332,187.631,287.465,187.631z M343.334,187.631h-2.005c-3.866,0-7,3.134-7,7
	s3.134,7,7,7h2.005c3.866,0,7-3.134,7-7S347.2,187.631,343.334,187.631z M426.833,194.631c0,1.295-0.175,2.549-0.527,3.764
	l-29.041,175.776c-0.208,1.259-0.755,2.437-1.583,3.405c-20.646,24.171-105.933,24.847-106.788,24.847s-86.142-0.676-106.788-24.847
	c-0.828-0.969-1.376-2.146-1.583-3.405L151.485,198.41c-0.355-1.219-0.531-2.478-0.531-3.778c0-11.579,13.958-19.874,43.927-26.105
	c25.186-5.236,58.574-8.12,94.014-8.12s68.828,2.884,94.013,8.12C412.875,174.757,426.833,183.052,426.833,194.631z M409.72,212.902
	c-6.811,2.936-15.713,5.526-26.813,7.834c-25.186,5.237-58.574,8.121-94.013,8.121s-68.828-2.884-94.014-8.121
	c-11.097-2.308-20.001-4.898-26.812-7.833l25.915,156.854c15.202,14.035,75.218,18.666,94.911,18.666s79.709-4.631,94.911-18.666
	L409.72,212.902z M412.669,194.631c-1.104-1.437-7.361-7.563-36.16-13.108c-23.84-4.59-54.956-7.117-87.615-7.117
	c-32.659,0-63.775,2.527-87.616,7.117c-28.8,5.545-35.057,11.672-36.161,13.108c1.105,1.438,7.364,7.563,36.162,13.108
	c23.841,4.59,54.957,7.117,87.615,7.117s63.773-2.527,87.615-7.118C405.308,202.195,411.565,196.068,412.669,194.631z"/>
<g>
</g>
<g>
</g>
<g>
</g>
<g>
</g>
<g>
</g>
<g>
</g>
<g>
</g>
<g>
</g>
<g>
</g>
<g>
</g>
<g>
</g>
<g>
</g>
<g>
</g>
<g>
</g>
<g>
</g>
</svg>
