<?xml version="1.0" encoding="iso-8859-1"?>
<!-- Generator: Adobe Illustrator 17.1.0, SVG Export Plug-In . SVG Version: 6.00 Build 0)  -->
<!DOCTYPE svg PUBLIC "-//W3C//DTD SVG 1.1//EN" "http://www.w3.org/Graphics/SVG/1.1/DTD/svg11.dtd">
<svg version="1.1" id="Capa_1" xmlns="http://www.w3.org/2000/svg" xmlns:xlink="http://www.w3.org/1999/xlink" x="0px" y="0px"
	 viewBox="0 0 428.75 428.75" style="enable-background:new 0 0 428.75 428.75;" xml:space="preserve">
<path id="XMLID_177_" d="M45.479,67.542c3.866,0,7,3.134,7,7v175.857c0,3.866-3.134,7-7,7s-7-3.134-7-7V74.542
	C38.479,70.676,41.612,67.542,45.479,67.542z M86.481,411.187c0,3.866-3.134,7-7,7H35.62c-17.16,0-31.121-13.96-31.121-31.12V66.247
	c0-14.753,10.32-27.142,24.12-30.326V7c0-3.866,3.134-7,7-7h153.852c3.866,0,7,3.134,7,7v28.921
	c13.801,3.184,24.121,15.572,24.121,30.326v32.301c0,3.866-3.134,7-7,7h-2.538c-3.866,0-7-3.134-7-7c0-2.17,0.987-4.109,2.538-5.394
	V66.247c0-9.44-7.68-17.12-17.12-17.12c-0.001,0-0.001,0-0.001,0H35.62c-9.44,0-17.121,7.68-17.121,17.12v320.819
	c0,9.44,7.68,17.12,17.121,17.12h43.861C83.347,404.187,86.481,407.32,86.481,411.187z M42.619,35.127h139.852V14H42.619V35.127z
	 M417.25,224.102h-77.193c-3.866,0-7,3.134-7,7s3.134,7,7,7h70.193v21.126h-70.193c-3.866,0-7,3.134-7,7s3.134,7,7,7h69.7
	l-8.917,130.959h-57.472c-3.866,0-7,3.134-7,7s3.134,7,7,7h64.011c3.682,0,6.734-2.852,6.984-6.524l9.866-144.899
	c0.006-0.078,0.01-0.157,0.014-0.235c0.005-0.126,0.007-0.251,0.006-0.376v-35.05C424.25,227.235,421.116,224.102,417.25,224.102z
	 M312.843,165.284v32.581c0.011,0,0.022,0,0.034,0c1.379,0,2.772,0.407,3.991,1.254c3.174,2.208,3.957,6.57,1.75,9.744
	c-1.761,2.532-3.693,4.909-5.774,7.119v12.347c0.011,0,0.022,0,0.034,0c1.379,0,2.772,0.407,3.991,1.254
	c3.174,2.208,3.957,6.57,1.75,9.744c-1.761,2.532-3.693,4.909-5.774,7.119v12.345c0.011,0,0.022,0,0.034,0
	c1.379,0,2.772,0.407,3.991,1.254c3.174,2.208,3.957,6.57,1.75,9.744c-1.761,2.532-3.693,4.909-5.774,7.119v12.347
	c0.011,0,0.022,0,0.034,0c1.379,0,2.772,0.407,3.991,1.254c3.174,2.208,3.957,6.57,1.75,9.744c-1.761,2.532-3.693,4.909-5.774,7.119
	v68.254c0,2.45-0.171,4.899-0.51,7.325c6.528,4.548,10.808,12.107,10.808,20.648c0,13.869-11.281,25.15-25.147,25.15H129.193
	c-13.867,0-25.148-11.281-25.148-25.147c0-8.543,4.28-16.104,10.808-20.65c-0.339-2.427-0.51-4.877-0.51-7.326v-68.255
	c-2.08-2.209-4.013-4.586-5.774-7.118c-2.208-3.174-1.424-7.536,1.749-9.743c1.228-0.855,2.618-1.278,4.025-1.255v-12.348
	c-2.08-2.209-4.013-4.586-5.774-7.118c-2.208-3.173-1.424-7.536,1.749-9.743c1.228-0.854,2.618-1.287,4.025-1.255v-12.346
	c-2.08-2.209-4.013-4.586-5.774-7.118c-2.208-3.173-1.424-7.536,1.749-9.743c1.228-0.854,2.618-1.299,4.025-1.255v-12.348
	c-2.08-2.209-4.013-4.586-5.774-7.118c-2.208-3.174-1.424-7.536,1.749-9.743c1.228-0.854,2.618-1.308,4.025-1.255v-32.582
	c-6.239-4.58-10.298-11.967-10.298-20.282c0-13.87,11.281-25.15,25.148-25.15h168.802c13.866,0,25.147,11.28,25.147,25.146
	C323.142,153.316,319.084,160.703,312.843,165.284z M309.142,403.603c0-4.652-2.862-8.646-6.917-10.316
	c-0.167-0.057-0.33-0.119-0.49-0.188c-1.169-0.418-2.429-0.646-3.74-0.646H129.193c-1.314,0-2.575,0.229-3.747,0.647
	c-0.156,0.066-0.316,0.128-0.479,0.184c-4.058,1.668-6.923,5.664-6.923,10.315c0,6.149,5.001,11.15,11.148,11.15h168.802
	C304.141,414.75,309.142,409.749,309.142,403.603z M167.651,197.177v24.205h100.452c11.359,0,22.229-4.118,30.741-11.373v-39.875
	c-0.282,0.009-0.564,0.014-0.849,0.014H129.193c-0.284,0-0.568-0.005-0.85-0.015v39.875c7.145,6.089,15.948,9.968,25.308,11.059
	v-23.89c0-3.866,3.134-7,7-7S167.651,193.311,167.651,197.177z M128.343,227.088v13.383c8.513,7.256,19.382,11.374,30.742,11.374
	h109.018c11.359,0,22.229-4.118,30.741-11.372v-13.384c-9.232,5.355-19.809,8.293-30.741,8.293H159.085
	C148.152,235.382,137.576,232.444,128.343,227.088z M128.343,257.551v13.382c8.513,7.256,19.382,11.374,30.742,11.374h109.018
	c11.359,0,22.229-4.118,30.741-11.372v-13.383c-9.232,5.355-19.809,8.293-30.741,8.293H159.085
	C148.153,265.845,137.575,262.906,128.343,257.551z M128.343,288.013v13.385c8.514,7.256,19.383,11.374,30.742,11.374h1.566h107.452
	c11.359,0,22.229-4.118,30.741-11.373v-13.385c-9.232,5.355-19.809,8.293-30.741,8.293H159.085
	C148.153,296.307,137.575,293.368,128.343,288.013z M128.343,318.478v57.148c0,0.947,0.035,1.894,0.104,2.838
	c0.248-0.007,0.497-0.011,0.746-0.011h168.802c0.249,0,0.498,0.004,0.745,0.011c0.069-0.944,0.104-1.891,0.104-2.838v-57.147
	c-9.232,5.355-19.809,8.293-30.741,8.293H167.651v23.95c0,3.866-3.134,7-7,7s-7-3.134-7-7v-24.192
	C144.662,325.725,136.037,322.941,128.343,318.478z M309.142,145.001c0-6.15-5-11.15-11.147-11.15H129.193
	c-6.147,0-11.148,5-11.148,11.146c0,4.314,2.461,8.063,6.052,9.916c0.188,0.081,0.373,0.17,0.553,0.267
	c1.388,0.622,2.926,0.968,4.543,0.968h168.802c1.614,0,3.149-0.345,4.536-0.965c0.184-0.099,0.373-0.189,0.565-0.272
	C306.684,153.056,309.142,149.311,309.142,145.001z M338.578,367.285c3.649,0,6.726-2.829,6.977-6.524l4.264-62.638
	c0.263-3.857-2.651-7.197-6.508-7.459c-3.872-0.275-7.197,2.651-7.459,6.508l-4.264,62.638c-0.263,3.857,2.651,7.197,6.508,7.459
	C338.257,367.28,338.418,367.285,338.578,367.285z"/>
<g>
</g>
<g>
</g>
<g>
</g>
<g>
</g>
<g>
</g>
<g>
</g>
<g>
</g>
<g>
</g>
<g>
</g>
<g>
</g>
<g>
</g>
<g>
</g>
<g>
</g>
<g>
</g>
<g>
</g>
</svg>
