<?xml version="1.0" encoding="iso-8859-1"?>
<!-- Generator: Adobe Illustrator 17.1.0, SVG Export Plug-In . SVG Version: 6.00 Build 0)  -->
<!DOCTYPE svg PUBLIC "-//W3C//DTD SVG 1.1//EN" "http://www.w3.org/Graphics/SVG/1.1/DTD/svg11.dtd">
<svg version="1.1" id="Capa_1" xmlns="http://www.w3.org/2000/svg" xmlns:xlink="http://www.w3.org/1999/xlink" x="0px" y="0px"
	 viewBox="0 0 419.239 419.239" style="enable-background:new 0 0 419.239 419.239;" xml:space="preserve">
<path id="XMLID_1230_" d="M89.844,260.118c-3.866,0-7-3.134-7-7s3.134-7,7-7h2.005c3.866,0,7,3.134,7,7s-3.134,7-7,7H89.844z
	 M212.759,249.652c-3.21-0.434-6.305,1.396-7.47,4.422c-2.789,7.249-4.204,14.815-4.204,22.488c0,2.872,0.207,5.793,0.614,8.685
	c0.539,3.828,4.078,6.494,7.909,5.954c3.828-0.54,6.493-4.081,5.954-7.909c-0.317-2.246-0.478-4.51-0.478-6.73
	c0-4.18,0.543-8.323,1.619-12.374c4.448,0.415,8.939,0.624,13.411,0.624c35.163,0,67.094-12.638,85.508-33.048
	c0.186,2.525-0.016,5.096-0.615,7.64c-1.536,6.516-5.489,12.026-11.131,15.515c-3.288,2.034-4.306,6.348-2.271,9.636
	c2.033,3.288,6.348,4.305,9.635,2.271c8.823-5.457,15.001-14.055,17.394-24.211c0.965-4.09,1.267-8.229,0.927-12.289
	c17.331,10.897,27.914,27.927,27.914,46.235c0,2.215-0.161,4.479-0.479,6.73c-0.54,3.828,2.126,7.369,5.954,7.909
	c0.332,0.047,0.661,0.07,0.986,0.07c3.433,0,6.43-2.527,6.923-6.023c0.408-2.896,0.615-5.818,0.615-8.685
	c0-28.764-20.064-54.772-51.117-66.26c-3.191-1.179-6.767,0.104-8.478,3.042c-13.054,22.411-45.912,37.468-81.765,37.468
	C224.308,250.813,218.468,250.423,212.759,249.652z M141.793,207.373c3.874,0.358,7.262-2.469,7.623-6.317
	c0.36-3.849-2.468-7.262-6.316-7.623c-3.136-0.293-6.319-0.442-9.463-0.442c-55.658,0-100.939,45.282-100.939,100.94v45.297
	c0,3.866,3.134,7,7,7h76.44c3.866,0,7-3.134,7-7c0-3.866-3.134-7-7-7h-69.44v-38.297c0-47.939,39.001-86.94,86.94-86.94
	C136.347,206.991,139.091,207.12,141.793,207.373z M70.825,273.94c-3.866,0-7,3.134-7,7s3.134,7,7,7h2.003c3.866,0,7-3.134,7-7
	s-3.134-7-7-7H70.825z M125.717,368.4H14V49.813h53.211c3.866,0,7-3.134,7-7s-3.134-7-7-7H14V14h239.274v21.813h-53.211
	c-3.866,0-7,3.134-7,7s3.134,7,7,7h53.211v134.48c0,3.866,3.134,7,7,7s7-3.134,7-7V7c0-3.866-3.134-7-7-7H7C3.134,0,0,3.134,0,7
	v368.4c0,3.866,3.134,7,7,7h118.717c3.866,0,7-3.134,7-7S129.583,368.4,125.717,368.4z M170.588,166.346c-3.866,0-7,3.134-7,7
	s3.134,7,7,7h2.003c3.866,0,7-3.134,7-7s-3.134-7-7-7H170.588z M215.699,196.965c1.283,3.647,5.279,5.564,8.927,4.281
	c3.646-1.283,5.563-5.279,4.28-8.926c-14.235-40.468-52.521-67.658-95.269-67.658c-55.658,0-100.939,45.281-100.939,100.94
	c0,3.866,3.134,7,7,7s7-3.134,7-7c0-47.939,39.001-86.94,86.94-86.94C170.454,138.662,203.431,162.092,215.699,196.965z
	 M90.017,317.929h2.004c3.866,0,7-3.134,7-7s-3.134-7-7-7h-2.004c-3.866,0-7,3.134-7,7S86.151,317.929,90.017,317.929z
	 M96.688,180.346c3.866,0,7-3.134,7-7s-3.134-7-7-7h-2.005c-3.866,0-7,3.134-7,7s3.134,7,7,7H96.688z M419.239,261.665v44.477
	c0,11.193-4.027,21.466-10.706,29.442l-7.08,54.86c-2.05,15.877-16.657,28.794-32.562,28.794H183.295
	c-15.906,0-30.513-12.917-32.561-28.795l-7.08-54.858c-6.682-7.977-10.708-18.249-10.708-29.444v-44.477
	c0-25.321,20.599-45.92,45.918-45.92h88.479c3.866,0,7,3.134,7,7s-3.134,7-7,7h-88.479c-17.6,0-31.918,14.319-31.918,31.92v12.924
	c0,17.601,14.318,31.92,31.918,31.92h194.456c17.6,0,31.918-14.319,31.918-31.92v-12.924c0-17.601-14.318-31.92-31.918-31.92
	c-3.866,0-7-3.134-7-7s3.134-7,7-7C398.64,215.745,419.239,236.344,419.239,261.665z M392.853,347.697
	c-5.93,2.798-12.552,4.364-19.532,4.364H178.865c-6.98,0-13.601-1.565-19.531-4.364l5.286,40.955
	c1.159,8.991,9.712,16.586,18.676,16.586h185.596c8.963,0,17.516-7.596,18.677-16.587L392.853,347.697z M405.206,307.604
	c-8.266,7.986-19.511,12.906-31.885,12.906H178.865c-12.374,0-23.619-4.919-31.885-12.906c0.342,7.546,3.316,14.419,8.025,19.718
	c0.315,0.285,0.606,0.6,0.868,0.939c5.811,6.038,13.97,9.801,22.991,9.801h194.456c9.024,0,17.187-3.765,22.997-9.807
	c0.259-0.335,0.546-0.646,0.858-0.928C401.887,322.028,404.864,315.153,405.206,307.604z M172.591,111.599c3.866,0,7-3.134,7-7
	s-3.134-7-7-7h-2.003c-3.866,0-7,3.134-7,7s3.134,7,7,7H172.591z M234.578,154.801c0-55.658-45.281-100.939-100.94-100.939
	c-55.658,0-100.939,45.281-100.939,100.939c0,3.866,3.134,7,7,7s7-3.134,7-7c0-47.938,39.001-86.939,86.94-86.939
	c47.938,0,86.939,39.001,86.939,86.939c0,3.866,3.134,7,7,7S234.578,158.667,234.578,154.801z M134.638,167.514c3.866,0,7-3.134,7-7
	s-3.134-7-7-7h-2.002c-3.866,0-7,3.134-7,7s3.134,7,7,7H134.638z M134.638,95.941c3.866,0,7-3.134,7-7s-3.134-7-7-7h-2.002
	c-3.866,0-7,3.134-7,7s3.134,7,7,7H134.638z M96.688,111.599c3.866,0,7-3.134,7-7s-3.134-7-7-7h-2.005c-3.866,0-7,3.134-7,7
	s3.134,7,7,7H96.688z"/>
<g>
</g>
<g>
</g>
<g>
</g>
<g>
</g>
<g>
</g>
<g>
</g>
<g>
</g>
<g>
</g>
<g>
</g>
<g>
</g>
<g>
</g>
<g>
</g>
<g>
</g>
<g>
</g>
<g>
</g>
</svg>
