<?xml version="1.0" encoding="iso-8859-1"?>
<!-- Generator: Adobe Illustrator 17.1.0, SVG Export Plug-In . SVG Version: 6.00 Build 0)  -->
<!DOCTYPE svg PUBLIC "-//W3C//DTD SVG 1.1//EN" "http://www.w3.org/Graphics/SVG/1.1/DTD/svg11.dtd">
<svg version="1.1" id="Capa_1" xmlns="http://www.w3.org/2000/svg" xmlns:xlink="http://www.w3.org/1999/xlink" x="0px" y="0px"
	 viewBox="0 0 426.855 426.855" style="enable-background:new 0 0 426.855 426.855;" xml:space="preserve">
<path id="XMLID_966_" d="M216.967,282.59c17.478,11.546,38.347,17.649,60.352,17.649c44.776,0,84.37-26.182,96.285-63.668
	c1.171-3.686,5.108-5.721,8.791-4.551c3.685,1.171,5.722,5.107,4.551,8.792c-13.74,43.233-58.821,73.428-109.627,73.428
	c-24.757,0-48.294-6.905-68.068-19.969c-3.226-2.131-4.113-6.473-1.982-9.699C209.399,281.346,213.741,280.458,216.967,282.59z
	 M251.396,254.891h2c3.866,0,7-3.134,7-7s-3.134-7-7-7h-2c-3.866,0-7,3.134-7,7S247.53,254.891,251.396,254.891z M426.855,213.428
	c0,73.506-67.697,133.307-150.908,133.307c-59.772,0-113.262-30.688-137.636-78.553c-17.772-0.29-33.516-9.089-43.32-22.491H74.635
	L56.86,263.465c-12.991,12.988-34.127,12.988-47.119,0.001c-12.988-12.992-12.988-34.129-0.001-47.118l2.919-2.918l-2.918-2.917
	C-3.247,197.52-3.247,176.384,9.74,163.394c12.992-12.99,34.129-12.99,47.12,0l17.773,17.773H94.99
	c9.97-13.631,26.08-22.5,44.224-22.5h66.657c3.866,0,7,3.134,7,7s-3.134,7-7,7h-66.657c-14.34,0-26.974,7.443-34.241,18.67
	c-0.188,0.37-0.409,0.721-0.657,1.049c-3.719,6.146-5.861,13.348-5.861,21.042c0,7.696,2.145,14.902,5.866,21.049
	c0.245,0.324,0.462,0.671,0.648,1.036c7.267,11.229,19.903,18.676,34.245,18.676h3.319c0.101-0.002,0.202-0.002,0.303,0h63.035
	c3.866,0,7,3.134,7,7s-3.134,7-7,7h-51.59c23.378,39.544,69.872,64.546,121.666,64.546c75.491,0,136.908-53.521,136.908-119.307
	c0-65.787-61.417-119.308-136.908-119.308c-43.209,0-84.38,18.113-110.131,48.451c-2.503,2.948-6.92,3.308-9.867,0.807
	c-2.947-2.502-3.309-6.919-0.807-9.867c13.789-16.245,31.875-29.697,52.301-38.902c21.336-9.615,44.384-14.49,68.504-14.49
	C359.158,80.12,426.855,139.922,426.855,213.428z M87.585,231.691c-2.027-5.714-3.131-11.862-3.131-18.263s1.103-12.547,3.13-18.261
	H71.734c-1.856,0-3.637-0.737-4.95-2.05l-19.823-19.823c-3.765-3.765-8.713-5.648-13.66-5.648c-4.948,0-9.894,1.883-13.661,5.649
	c-7.529,7.531-7.529,19.787,0.001,27.319l7.869,7.867c1.313,1.313,2.051,3.094,2.051,4.951s-0.738,3.638-2.051,4.95l-7.87,7.867
	c-7.529,7.53-7.529,19.786,0.002,27.318c7.532,7.531,19.788,7.531,27.32-0.001l19.825-19.824c1.313-1.313,3.093-2.05,4.95-2.05
	H87.585z M223.535,210.333h1.998c3.866,0,7-3.134,7-7s-3.134-7-7-7h-1.998c-3.866,0-7,3.134-7,7S219.669,210.333,223.535,210.333z
	 M251.396,165.774h2c3.866,0,7-3.134,7-7s-3.134-7-7-7h-2c-3.866,0-7,3.134-7,7S247.53,165.774,251.396,165.774z M302.27,165.774
	h2.001c3.866,0,7-3.134,7-7s-3.134-7-7-7h-2.001c-3.866,0-7,3.134-7,7S298.404,165.774,302.27,165.774z M332.132,210.333
	c3.866,0,7-3.134,7-7s-3.134-7-7-7h-1.999c-3.866,0-7,3.134-7,7s3.134,7,7,7H332.132z M302.27,254.891h2.001c3.866,0,7-3.134,7-7
	s-3.134-7-7-7h-2.001c-3.866,0-7,3.134-7,7S298.404,254.891,302.27,254.891z M281.256,210.333c3.866,0,7-3.134,7-7s-3.134-7-7-7
	h-1.998c-3.866,0-7,3.134-7,7s3.134,7,7,7H281.256z"/>
<g>
</g>
<g>
</g>
<g>
</g>
<g>
</g>
<g>
</g>
<g>
</g>
<g>
</g>
<g>
</g>
<g>
</g>
<g>
</g>
<g>
</g>
<g>
</g>
<g>
</g>
<g>
</g>
<g>
</g>
</svg>
