<?xml version="1.0" encoding="iso-8859-1"?>
<!-- Generator: Adobe Illustrator 17.1.0, SVG Export Plug-In . SVG Version: 6.00 Build 0)  -->
<!DOCTYPE svg PUBLIC "-//W3C//DTD SVG 1.1//EN" "http://www.w3.org/Graphics/SVG/1.1/DTD/svg11.dtd">
<svg version="1.1" id="Capa_1" xmlns="http://www.w3.org/2000/svg" xmlns:xlink="http://www.w3.org/1999/xlink" x="0px" y="0px"
	 viewBox="0 0 418.187 418.187" style="enable-background:new 0 0 418.187 418.187;" xml:space="preserve">
<path id="XMLID_248_" d="M202.093,346.224v-58.278c0-3.866,3.134-7,7-7c3.866,0,7,3.134,7,7v58.278c0,3.866-3.134,7-7,7
	C205.227,353.224,202.093,350.09,202.093,346.224z M243.34,353.174c0.283,0.034,0.563,0.05,0.841,0.05
	c3.494,0,6.516-2.612,6.941-6.168l6.981-58.278c0.46-3.838-2.279-7.323-6.118-7.783c-3.834-0.459-7.323,2.279-7.783,6.118
	l-6.981,58.278C236.762,349.23,239.501,352.715,243.34,353.174z M405.554,199.598c0,34.84-27.907,63.281-62.54,64.141l-18.802,95.42
	c-1.466,7.441-4.307,14.642-8.452,21.431v30.598c0,3.866-3.134,7-7,7H109.426c-3.866,0-7-3.134-7-7v-30.599
	c-4.144-6.788-6.984-13.987-8.451-21.43l-18.802-95.42c-34.633-0.86-62.541-29.301-62.541-64.137
	c0-18.013,7.472-34.909,20.658-47.072c-0.81-3.152-1.24-6.453-1.24-9.854c0-21.844,17.772-39.616,39.617-39.616
	c3.893,0,7.659,0.565,11.216,1.617c20.549-30.262,51.642-52.237,86.766-61.358c-0.114-1.219-0.171-2.452-0.171-3.7
	C169.478,17.772,187.249,0,209.094,0c21.845,0,39.617,17.772,39.617,39.617c0,1.247-0.058,2.481-0.171,3.699
	c47.149,12.223,85.968,47.148,103.124,92.958C382.227,141.265,405.554,168.24,405.554,199.598z M183.478,39.617
	c0,14.125,11.491,25.617,25.616,25.617c14.125,0,25.617-11.492,25.617-25.617c0-14.125-11.492-25.617-25.617-25.617
	C194.969,14,183.478,25.492,183.478,39.617z M46.05,142.675c0,14.125,11.492,25.617,25.617,25.617
	c14.125,0,25.616-11.492,25.616-25.617s-11.491-25.616-25.616-25.616C57.542,117.059,46.05,128.55,46.05,142.675z M328.74,263.758
	H89.446l18.265,92.693c1.023,5.192,2.92,10.261,5.651,15.114h50.255c3.866,0,7,3.134,7,7s-3.134,7-7,7h-47.191v18.621H301.76
	v-18.621H254.57c-3.866,0-7-3.134-7-7s3.134-7,7-7h50.255c2.731-4.854,4.628-9.923,5.651-15.114L328.74,263.758z M391.554,199.601
	c0-25.712-20.057-47.653-45.661-49.955c-2.755-0.248-5.105-2.094-5.999-4.711c-14.833-43.473-50.964-76.777-95.11-88.13
	c-6.412,13.261-20,22.429-35.691,22.429c-15.69,0-29.278-9.167-35.689-22.428c-31.369,8.082-59.215,27.478-77.909,54.238
	c9.583,7.238,15.789,18.723,15.789,31.631c0,21.845-17.772,39.617-39.616,39.617c-13.141,0-24.809-6.433-32.021-16.313
	c-8.35,9.177-13.014,21.054-13.014,33.619c0,27.66,22.5,50.161,50.157,50.161h264.608
	C369.054,249.758,391.554,227.258,391.554,199.601z M279.963,353.157c0.329,0.046,0.656,0.068,0.979,0.068
	c3.436,0,6.434-2.531,6.924-6.031l8.157-58.278c0.536-3.829-2.134-7.367-5.962-7.903c-3.827-0.538-7.367,2.133-7.903,5.962
	L274,345.254C273.465,349.083,276.134,352.621,279.963,353.157z M260.023,80.647c-2.733-2.733-7.166-2.733-9.899,0
	c-10.96,10.96-25.532,16.997-41.03,16.997c-15.499,0-30.07-6.037-41.031-16.997c-2.733-2.733-7.166-2.733-9.899,0
	c-2.734,2.734-2.734,7.166,0,9.899c14.042,14.042,32.486,21.062,50.93,21.062c18.444,0,36.888-7.021,50.93-21.062
	C262.757,87.813,262.757,83.381,260.023,80.647z M291.878,118.807c0-3.866-3.134-7-7-7c-39.715,0-72.025,32.311-72.025,72.025
	c0,3.866,3.134,7,7,7s7-3.134,7-7c0-31.995,26.03-58.025,58.025-58.025C288.744,125.807,291.878,122.673,291.878,118.807z
	 M324.495,183.832c0,21.845-17.772,39.617-39.617,39.617c-21.844,0-39.616-17.772-39.616-39.617s17.771-39.616,39.616-39.616
	C306.722,144.216,324.495,161.987,324.495,183.832z M310.495,183.832c0-14.125-11.492-25.616-25.617-25.616
	c-14.125,0-25.616,11.491-25.616,25.616s11.491,25.617,25.616,25.617C299.003,209.449,310.495,197.957,310.495,183.832z
	 M167.064,347.057c0.426,3.556,3.447,6.168,6.941,6.168c0.278,0,0.559-0.016,0.841-0.05c3.839-0.459,6.578-3.944,6.118-7.783
	l-6.981-58.278c-0.459-3.838-3.935-6.577-7.783-6.118c-3.838,0.46-6.578,3.944-6.118,7.783L167.064,347.057z M130.322,347.194
	c0.49,3.5,3.488,6.031,6.923,6.031c0.323,0,0.65-0.022,0.979-0.068c3.829-0.536,6.498-4.074,5.962-7.903l-8.158-58.278
	c-0.536-3.829-4.083-6.496-7.903-5.962c-3.829,0.536-6.498,4.074-5.962,7.903L130.322,347.194z M136.693,135.675
	c-3.866,0-7,3.134-7,7c0,31.996-26.03,58.026-58.025,58.026c-3.866,0-7,3.134-7,7s3.134,7,7,7c39.715,0,72.025-32.311,72.025-72.026
	C143.693,138.809,140.559,135.675,136.693,135.675z"/>
<g>
</g>
<g>
</g>
<g>
</g>
<g>
</g>
<g>
</g>
<g>
</g>
<g>
</g>
<g>
</g>
<g>
</g>
<g>
</g>
<g>
</g>
<g>
</g>
<g>
</g>
<g>
</g>
<g>
</g>
</svg>
