<?xml version="1.0" encoding="iso-8859-1"?>
<!-- Generator: Adobe Illustrator 17.1.0, SVG Export Plug-In . SVG Version: 6.00 Build 0)  -->
<!DOCTYPE svg PUBLIC "-//W3C//DTD SVG 1.1//EN" "http://www.w3.org/Graphics/SVG/1.1/DTD/svg11.dtd">
<svg version="1.1" id="Capa_1" xmlns="http://www.w3.org/2000/svg" xmlns:xlink="http://www.w3.org/1999/xlink" x="0px" y="0px"
	 viewBox="0 0 423.441 423.441" style="enable-background:new 0 0 423.441 423.441;" xml:space="preserve">
<path id="XMLID_994_" d="M239.061,240.139c0-3.866,3.134-7,7-7h1.999c3.866,0,7,3.134,7,7s-3.134,7-7,7h-1.999
	C242.195,247.139,239.061,244.005,239.061,240.139z M281.799,207.75h2.001c3.866,0,7-3.134,7-7s-3.134-7-7-7h-2.001
	c-3.866,0-7,3.134-7,7S277.933,207.75,281.799,207.75z M226.076,207.75h2.001c3.866,0,7-3.134,7-7s-3.134-7-7-7h-2.001
	c-3.866,0-7,3.134-7,7S222.209,207.75,226.076,207.75z M206.091,166.764h1.999c3.866,0,7-3.134,7-7c0-3.866-3.134-7-7-7h-1.999
	c-3.866,0-7,3.134-7,7C199.091,163.63,202.225,166.764,206.091,166.764z M261.815,166.764h1.999c3.866,0,7-3.134,7-7
	c0-3.866-3.134-7-7-7h-1.999c-3.866,0-7,3.134-7,7C254.815,163.63,257.949,166.764,261.815,166.764z M157.215,152.764h-2
	c-3.866,0-7,3.134-7,7c0,3.866,3.134,7,7,7h2c3.866,0,7-3.134,7-7C164.215,155.898,161.081,152.764,157.215,152.764z
	 M175.201,207.75h2c3.866,0,7-3.134,7-7s-3.134-7-7-7h-2c-3.866,0-7,3.134-7,7S171.334,207.75,175.201,207.75z M354.762,178.805h-2
	c-3.866,0-7,3.134-7,7s3.134,7,7,7h2c3.866,0,7-3.134,7-7S358.628,178.805,354.762,178.805z M423.441,211.719
	c0,1.101-0.254,2.143-0.707,3.069c-15.866,33.74-40.823,62.315-72.177,82.639c-32.228,20.89-69.65,31.932-108.225,31.932
	c-63.015,0-121.918-29.67-159.509-79.85c-19.113,25.495-44.096,46.132-72.77,60.021c-2.493,1.208-5.467,0.831-7.58-0.962
	c-2.113-1.793-2.97-4.665-2.185-7.322c8.232-27.85,15.322-57.964,21.076-89.523c-5.752-31.55-12.842-61.666-21.078-89.528
	c-0.786-2.658,0.071-5.529,2.185-7.322c2.114-1.793,5.086-2.17,7.58-0.962c28.676,13.89,53.658,34.526,72.771,60.021
	c37.59-50.18,96.493-79.85,159.509-79.85c38.574,0,75.997,11.042,108.225,31.933c31.331,20.31,56.272,48.854,72.14,82.562
	C423.173,209.521,423.441,210.589,423.441,211.719z M405.044,218.719h-22.573c-3.866,0-7-3.134-7-7s3.134-7,7-7h22.571
	c-32.261-59.058-94.948-96.638-162.71-96.638c-60.154,0-116.278,29.08-151.066,78.028c4.651,7.274,8.838,14.861,12.489,22.637
	c1.644,3.5,0.139,7.668-3.36,9.312c-3.502,1.644-7.669,0.138-9.312-3.36c-4.006-8.531-8.705-16.816-13.99-24.672
	c-0.024-0.035-0.049-0.07-0.072-0.106c-15.304-22.699-35.42-41.718-58.765-55.684c3.624,13.313,6.997,27.07,10.1,41.185
	c1.144-0.077,2.332,0.13,3.448,0.657c9.279,4.383,17.78,9.285,25.269,14.567c3.159,2.229,3.913,6.596,1.685,9.755
	s-6.595,3.914-9.755,1.685c-5.21-3.675-10.983-7.16-17.225-10.4c1.249,6.205,2.446,12.47,3.59,18.792
	c0.149,0.824,0.149,1.669,0,2.493c-1.196,6.609-2.449,13.156-3.76,19.636c6.307-3.265,12.138-6.779,17.395-10.488
	c3.16-2.228,7.527-1.474,9.755,1.685c2.229,3.159,1.475,7.527-1.685,9.755c-7.488,5.282-15.989,10.183-25.269,14.567
	c-1.168,0.552-2.41,0.753-3.612,0.645c-3.058,13.856-6.374,27.359-9.934,40.436c23.344-13.965,43.458-32.984,58.763-55.684
	c1.301-1.93,3.477-3.087,5.804-3.087c2.328,0,4.503,1.157,5.805,3.087c34.547,51.245,92.006,81.838,153.703,81.838
	C310.094,315.36,372.784,277.776,405.044,218.719z M314.572,264.471c-22.255,9.971-47.527,15.241-73.086,15.241
	c-22.999,0-45.091-4.082-65.662-12.13c-3.601-1.41-7.66,0.368-9.069,3.968s0.367,7.661,3.968,9.069
	c22.203,8.688,46.012,13.093,70.764,13.093c27.516,0,54.769-5.693,78.811-16.464c3.527-1.581,5.106-5.722,3.526-9.25
	C322.241,264.469,318.101,262.892,314.572,264.471z"/>
<g>
</g>
<g>
</g>
<g>
</g>
<g>
</g>
<g>
</g>
<g>
</g>
<g>
</g>
<g>
</g>
<g>
</g>
<g>
</g>
<g>
</g>
<g>
</g>
<g>
</g>
<g>
</g>
<g>
</g>
</svg>
