<?xml version="1.0" encoding="iso-8859-1"?>
<!-- Generator: Adobe Illustrator 17.1.0, SVG Export Plug-In . SVG Version: 6.00 Build 0)  -->
<!DOCTYPE svg PUBLIC "-//W3C//DTD SVG 1.1//EN" "http://www.w3.org/Graphics/SVG/1.1/DTD/svg11.dtd">
<svg version="1.1" id="Capa_1" xmlns="http://www.w3.org/2000/svg" xmlns:xlink="http://www.w3.org/1999/xlink" x="0px" y="0px"
	 viewBox="0 0 428.133 428.133" style="enable-background:new 0 0 428.133 428.133;" xml:space="preserve">
<path id="XMLID_290_" d="M65.445,0H41.074C23.776,0,9.703,14.072,9.703,31.37v365.572c0,3.866,3.134,7,7,7h33.889
	c1.904,0,3.726-0.775,5.046-2.147c1.319-1.373,2.023-3.224,1.949-5.126l-9.52-243.714c-0.147-3.757-3.235-6.727-6.995-6.727H23.703
	V31.37c0-9.578,7.793-17.37,17.371-17.37h24.371c3.866,0,7-3.134,7-7S69.312,0,65.445,0z M34.341,160.229l8.973,229.714h-19.61
	V160.229H34.341z M143.37,55.368l13.034,243.715c0.206,3.86-2.756,7.157-6.616,7.364c-0.128,0.007-0.254,0.01-0.38,0.01
	c-3.695,0-6.784-2.893-6.984-6.626L129.39,56.116c-0.206-3.86,2.756-7.157,6.616-7.364C139.841,48.54,143.163,51.507,143.37,55.368z
	 M172.366,396.942c0,3.866-3.134,7-7,7h-45.333c-3.866,0-7-3.134-7-7V363.24L94.002,7.374c-0.103-1.919,0.588-3.795,1.91-5.189
	C97.233,0.79,99.07,0,100.992,0h159.939c1.922,0,3.759,0.79,5.08,2.185c1.322,1.395,2.013,3.271,1.91,5.189l-8.231,153.909
	c-0.207,3.86-3.468,6.837-7.364,6.616c-3.86-0.207-6.822-3.504-6.616-7.364L253.547,14h-145.17l18.292,342.054h37.543
	c3.866,0,7,3.134,7,7s-3.134,7-7,7h-37.179v19.889h38.333C169.232,389.942,172.366,393.076,172.366,396.942z M72.445,32.421
	c0,3.866-3.134,7-7,7H41.074c-3.866,0-7-3.134-7-7s3.134-7,7-7h24.371C69.312,25.421,72.445,28.555,72.445,32.421z M72.445,56.965
	c0,3.866-3.134,7-7,7H41.074c-3.866,0-7-3.134-7-7s3.134-7,7-7h24.371C69.312,49.965,72.445,53.099,72.445,56.965z M72.445,81.882
	c0,3.866-3.134,7-7,7H41.074c-3.866,0-7-3.134-7-7s3.134-7,7-7h24.371C69.312,74.882,72.445,78.016,72.445,81.882z M259.442,315.078
	c0,3.866-3.134,7-7,7h-2.026c-3.866,0-7-3.134-7-7s3.134-7,7-7h2.026C256.309,308.078,259.442,311.212,259.442,315.078z
	 M231.975,372.532c0,3.866-3.134,7-7,7h-2.027c-3.866,0-7-3.134-7-7s3.134-7,7-7h2.027
	C228.841,365.532,231.975,368.666,231.975,372.532z M321.719,240.646c0,3.866-3.134,7-7,7h-61.942c-3.866,0-7-3.134-7-7s3.134-7,7-7
	h61.942C318.585,233.646,321.719,236.779,321.719,240.646z M411.43,188.523h-76.616c-0.546,0-1.076,0.063-1.586,0.181
	c-1.437-0.119-2.891-0.181-4.357-0.181h-90.243c-28.741,0-52.124,23.383-52.124,52.123v135.364c0,28.74,23.383,52.122,52.124,52.122
	h90.243c26.366,0,48.223-19.68,51.653-45.122h30.906c3.866,0,7-3.134,7-7V195.523C418.43,191.657,415.296,188.523,411.43,188.523z
	 M366.991,376.011c0,21.021-17.102,38.122-38.121,38.122h-90.243c-21.021,0-38.124-17.102-38.124-38.122v-99.856
	c9.522,10.215,23.09,16.612,38.124,16.612h90.243c15.033,0,28.6-6.397,38.121-16.612V376.011z M328.87,278.767h-90.243
	c-21.021,0-38.124-17.101-38.124-38.121s17.103-38.122,38.124-38.122h90.243c21.02,0,38.121,17.102,38.121,38.123
	C366.991,261.666,349.89,278.767,328.87,278.767z M404.43,369.011h-23.438V240.646v-0.001c0-15.033-6.397-28.601-16.612-38.122
	h40.051V369.011z M231.975,334.23c0,3.866-3.134,7-7,7h-2.027c-3.866,0-7-3.134-7-7s3.134-7,7-7h2.027
	C228.841,327.23,231.975,330.364,231.975,334.23z M259.442,353.38c0,3.866-3.134,7-7,7h-2.026c-3.866,0-7-3.134-7-7s3.134-7,7-7
	h2.026C256.309,346.38,259.442,349.514,259.442,353.38z M259.442,391.686c0,3.866-3.134,7-7,7h-2.026c-3.866,0-7-3.134-7-7
	s3.134-7,7-7h2.026C256.309,384.686,259.442,387.819,259.442,391.686z"/>
<g>
</g>
<g>
</g>
<g>
</g>
<g>
</g>
<g>
</g>
<g>
</g>
<g>
</g>
<g>
</g>
<g>
</g>
<g>
</g>
<g>
</g>
<g>
</g>
<g>
</g>
<g>
</g>
<g>
</g>
</svg>
