<?xml version="1.0" encoding="iso-8859-1"?>
<!-- Generator: Adobe Illustrator 17.1.0, SVG Export Plug-In . SVG Version: 6.00 Build 0)  -->
<!DOCTYPE svg PUBLIC "-//W3C//DTD SVG 1.1//EN" "http://www.w3.org/Graphics/SVG/1.1/DTD/svg11.dtd">
<svg version="1.1" id="Capa_1" xmlns="http://www.w3.org/2000/svg" xmlns:xlink="http://www.w3.org/1999/xlink" x="0px" y="0px"
	 viewBox="0 0 417.651 417.651" style="enable-background:new 0 0 417.651 417.651;" xml:space="preserve">
<path id="XMLID_99_" d="M98.795,45.046c-3.175,0-5.921,3.096-5.997,6.76l-2.261,110.608c-0.078,3.816-3.196,6.857-6.996,6.857
	c-0.049,0-0.097-0.001-0.146-0.002c-3.865-0.078-6.935-3.276-6.855-7.141l2.261-110.61c0.233-11.29,9.203-20.473,19.994-20.473
	h8.288c3.866,0,7,3.134,7,7s-3.134,7-7,7H98.795z M283.547,42.669c1.445,0,2.621,1.176,2.621,2.62c0,3.866,3.134,7,7,7s7-3.134,7-7
	c0-9.164-7.456-16.62-16.621-16.62c-3.866,0-7,3.134-7,7S279.681,42.669,283.547,42.669z M134.336,299.388c3.866,0,7-3.134,7-7
	v-86.909c0-12.326-10.025-22.354-22.348-22.354c-12.323,0-22.349,10.028-22.349,22.354v86.909c0,3.866,3.134,7,7,7s7-3.134,7-7
	v-86.909c0-4.606,3.745-8.354,8.349-8.354c4.603,0,8.348,3.748,8.348,8.354v86.909C127.336,296.254,130.47,299.388,134.336,299.388z
	 M201.023,259.474c-0.16-3.861-3.413-6.872-7.284-6.704c-3.863,0.16-6.864,3.422-6.704,7.284l0.745,17.943
	c0.26,6.285-2.105,12.36-6.659,17.106c-4.901,5.107-11.746,8.037-18.78,8.037h-8.239c-3.792,0-6.895,3.02-6.998,6.811
	c-0.251,9.299-4.999,15.469-8.028,15.469H98.9c-3.03,0-7.777-6.17-8.029-15.469c-0.103-3.791-3.205-6.811-6.998-6.811h-8.239
	c-7.035,0-13.881-2.931-18.782-8.038c-4.553-4.746-6.917-10.82-6.657-17.104l9.868-238.276C60.661,25.299,71.835,14,85.503,14
	h66.968c13.666,0,24.841,11.299,25.438,25.723l0.474,11.416c0.16,3.862,3.409,6.856,7.284,6.704c3.863-0.16,6.864-3.422,6.704-7.284
	l-0.474-11.416C190.988,17.193,173.67,0,152.472,0H85.503C64.302,0,46.984,17.194,46.077,39.143l-9.868,238.276
	c-0.419,10.13,3.325,19.853,10.543,27.376c7.527,7.845,18.054,12.345,28.883,12.346h1.988c2.532,12.923,11.086,22.279,21.278,22.279
	h40.175c10.191,0,18.745-9.356,21.277-22.279h1.988c10.828,0,21.355-4.499,28.882-12.344c7.219-7.523,10.963-17.247,10.545-27.379
	L201.023,259.474z M134.336,351.449c-3.866,0-7,3.134-7,7v36.849c0,4.606-3.745,8.354-8.348,8.354c-4.604,0-8.349-3.747-8.349-8.354
	v-36.849c0-3.866-3.134-7-7-7s-7,3.134-7,7v36.849c0,12.326,10.025,22.354,22.349,22.354c12.323,0,22.348-10.027,22.348-22.354
	v-36.849C141.336,354.583,138.202,351.449,134.336,351.449z M280.779,302.993l-8.093,8.092c-2.733,2.733-2.734,7.166,0,9.899
	c1.367,1.367,3.159,2.051,4.95,2.051c1.791,0,3.583-0.684,4.949-2.05l8.093-8.092c2.733-2.733,2.734-7.166,0-9.899
	S283.514,300.261,280.779,302.993z M303.601,249.694l-8.093,8.093c-2.734,2.734-2.734,7.166,0,9.9c1.367,1.366,3.158,2.05,4.95,2.05
	s3.583-0.684,4.95-2.05l8.093-8.093c2.734-2.734,2.734-7.166,0-9.9C310.767,246.962,306.334,246.962,303.601,249.694z
	 M260.789,238.372c2.734-2.733,2.734-7.166,0.001-9.899l-8.091-8.092c-2.734-2.733-7.165-2.732-9.9-0.001
	c-2.733,2.733-2.734,7.166,0,9.899l8.091,8.092c1.367,1.367,3.159,2.051,4.95,2.051
	C257.631,240.422,259.422,239.738,260.789,238.372z M381.475,139.731c0,13.535-2.67,26.67-7.935,39.039
	c-0.166,0.39-0.364,0.758-0.591,1.104l-84.688,233.167c-1.005,2.768-3.635,4.61-6.58,4.61s-5.574-1.843-6.58-4.61l-84.687-233.167
	c-0.227-0.346-0.425-0.715-0.591-1.104c-5.264-12.372-7.933-25.506-7.933-39.038c0-36.819,20.578-70.829,52.85-88.073
	c-0.141-1.482-0.213-2.986-0.213-4.505c0-26,21.154-47.153,47.156-47.153c26,0,47.153,21.153,47.153,47.153
	c0,1.519-0.072,3.021-0.213,4.504C360.896,68.902,381.475,102.912,381.475,139.731z M248.527,47.153
	c0,2.355,0.247,4.654,0.716,6.872c0.021,0.091,0.042,0.183,0.059,0.274c3.277,14.857,16.551,26.007,32.38,26.007
	c15.843,0,29.126-11.171,32.387-26.049c0.013-0.063,0.026-0.127,0.041-0.19c0.475-2.23,0.725-4.544,0.725-6.914
	c0-18.281-14.873-33.153-33.153-33.153C263.401,14,248.527,28.872,248.527,47.153z M356.908,183.029h-26.929v29.099
	c0,12.322-10.026,22.347-22.351,22.347c-10.585,0-19.476-7.398-21.771-17.296c-1.406,0.276-2.848,0.417-4.31,0.417
	c-12.322,0-22.346-10.025-22.346-22.348v-12.219h-52.745l75.225,207.118L356.908,183.029z M367.475,139.731
	c0-30.497-16.422-58.752-42.437-74.037c-7.216,16.811-23.933,28.612-43.355,28.612c-19.422,0-36.14-11.804-43.357-28.612
	c-26.015,15.285-42.435,43.54-42.435,74.037c0,10.096,1.726,19.93,5.135,29.298h65.175c3.866,0,7,3.134,7,7v19.219
	c0,4.603,3.744,8.348,8.346,8.348c2.182,0,4.254-0.853,5.833-2.401c1.335-1.309,3.104-2.002,4.903-2.002
	c0.913,0,1.833,0.179,2.709,0.546c2.599,1.092,4.29,3.636,4.29,6.454v5.936c0,4.603,3.745,8.347,8.347,8.347
	c4.604,0,8.351-3.744,8.351-8.347v-36.099c0-3.866,3.134-7,7-7h39.359C365.749,159.663,367.475,149.829,367.475,139.731z
	 M274.004,273.021l-8.092-8.092c-2.733-2.732-7.166-2.732-9.899,0c-2.734,2.734-2.734,7.166,0,9.9l8.092,8.092
	c1.367,1.366,3.158,2.05,4.95,2.05s3.583-0.684,4.95-2.05C276.738,280.188,276.738,275.756,274.004,273.021z"/>
<g>
</g>
<g>
</g>
<g>
</g>
<g>
</g>
<g>
</g>
<g>
</g>
<g>
</g>
<g>
</g>
<g>
</g>
<g>
</g>
<g>
</g>
<g>
</g>
<g>
</g>
<g>
</g>
<g>
</g>
</svg>
