<?xml version="1.0" encoding="iso-8859-1"?>
<!-- Generator: Adobe Illustrator 17.1.0, SVG Export Plug-In . SVG Version: 6.00 Build 0)  -->
<!DOCTYPE svg PUBLIC "-//W3C//DTD SVG 1.1//EN" "http://www.w3.org/Graphics/SVG/1.1/DTD/svg11.dtd">
<svg version="1.1" id="Capa_1" xmlns="http://www.w3.org/2000/svg" xmlns:xlink="http://www.w3.org/1999/xlink" x="0px" y="0px"
	 viewBox="0 0 433.445 433.445" style="enable-background:new 0 0 433.445 433.445;" xml:space="preserve">
<path id="XMLID_1164_" d="M57.795,307.521c0,3.866-3.134,7-7,7H7c-3.866,0-7-3.134-7-7V56.72c0-3.866,3.134-7,7-7h315.643
	c3.866,0,7,3.134,7,7v162.34c0,3.866-3.134,7-7,7s-7-3.134-7-7V63.72H14v236.801h36.795
	C54.661,300.521,57.795,303.654,57.795,307.521z M166.55,190.283v-3.974c-10.051,1.462-20.898,1.712-31.224,0.74
	c-10.526,4.643-25.315,7.283-41.001,7.283c-16.211,0-32.536-2.916-43.655-8.6v25.406c0,1.069,2.53,4.251,10.353,7.264
	c8.657,3.334,20.796,5.247,33.303,5.247s24.646-1.913,33.303-5.247c7.822-3.013,10.353-6.195,10.353-7.264v-8.346
	c0-3.866,3.134-7,7-7s7,3.134,7,7v8.346c0,17.405-29.004,26.511-57.655,26.511s-57.655-9.106-57.655-26.511v-43.316
	c0-11.835,13.774-21.141,36.847-24.892c3.81-0.625,7.411,1.97,8.032,5.786c0.62,3.816-1.97,7.413-5.786,8.033
	c-17.872,2.906-25.093,9.016-25.093,11.074c0,1.069,2.53,4.251,10.353,7.264c8.657,3.334,20.796,5.247,33.303,5.247
	c3.883,0,7.719-0.184,11.421-0.535c-9.422-4.416-15.563-10.667-15.563-18.676v-43.317c0-17.404,29.004-26.511,57.654-26.511
	c28.651,0,57.655,9.106,57.655,26.511v43.317c0,10.433-10.423,17.884-24.943,22.18v6.982c0,1.069,2.53,4.251,10.353,7.264
	c8.657,3.334,20.795,5.247,33.301,5.247c12.508,0,24.646-1.913,33.304-5.247c7.823-3.013,10.354-6.195,10.354-7.264v-25.405
	c-11.12,5.685-27.444,8.6-43.657,8.6c-3.866,0-7-3.134-7-7s3.134-7,7-7c12.508,0,24.646-1.913,33.304-5.247
	c7.823-3.013,10.354-6.195,10.354-7.264s-2.53-4.251-10.354-7.264c-8.657-3.334-20.796-5.247-33.304-5.247c-3.866,0-7-3.134-7-7
	s3.134-7,7-7c28.652,0,57.657,9.106,57.657,26.511v43.316c0,17.405-29.005,26.511-57.657,26.511
	C195.553,216.794,166.55,207.688,166.55,190.283z M104.184,117.805c0,1.069,2.53,4.251,10.353,7.264
	c8.657,3.334,20.795,5.247,33.302,5.247s24.646-1.913,33.303-5.247c7.822-3.013,10.353-6.195,10.353-7.264s-2.53-4.25-10.353-7.264
	c-8.657-3.334-20.796-5.247-33.303-5.247s-24.645,1.913-33.302,5.247C106.714,113.554,104.184,116.736,104.184,117.805z
	 M181.141,168.385c7.822-3.013,10.353-6.195,10.353-7.264v-25.406c-11.119,5.684-27.444,8.6-43.655,8.6
	c-16.21,0-32.535-2.916-43.654-8.6v25.406c0,1.069,2.53,4.251,10.353,7.264c8.657,3.334,20.795,5.247,33.302,5.247
	S172.483,171.72,181.141,168.385z M433.445,293.925v38.963c0,1.993-0.85,3.891-2.335,5.219c-1.485,1.327-3.471,1.958-5.447,1.737
	l-9.787-1.101c-6.616-0.745-12.648-3.046-17.466-6.352c-8.305,29.58-35.519,51.334-67.717,51.334H178.729
	c-32.181,0-59.382-21.728-67.702-51.284c-4.806,3.279-10.81,5.561-17.393,6.302l-9.787,1.101c-1.981,0.222-3.962-0.409-5.447-1.737
	c-1.485-1.328-2.335-3.227-2.335-5.219v-38.963c0-1.993,0.85-3.891,2.335-5.219s3.461-1.96,5.448-1.737l9.786,1.102
	c6.584,0.74,12.587,3.021,17.394,6.3c8.322-29.554,35.522-51.283,67.701-51.283h151.964c32.198,0,59.411,21.753,67.717,51.333
	c4.818-3.307,10.849-5.606,17.466-6.351l9.786-1.102c1.985-0.223,3.963,0.409,5.448,1.737S433.445,291.932,433.445,293.925z
	 M108.415,312.538c-0.812-4.37-7.535-9.564-16.346-10.555l-2.004-0.226v23.3l2.004-0.225c8.811-0.992,15.534-6.187,16.346-10.557
	C108.412,313.987,108.412,312.828,108.415,312.538z M387.014,313.408c0-31.055-25.266-56.32-56.32-56.32H178.729
	c-30.533,0-55.47,24.426-56.298,54.762c0.044,0.516,0.044,2.596,0,3.112c0.825,30.339,25.763,54.763,56.298,54.763h151.964
	C361.748,369.726,387.014,344.461,387.014,313.408z M419.445,301.757l-2.004,0.226c-9.402,1.058-16.428,6.903-16.428,11.424
	c0,4.52,7.025,10.367,16.428,11.425l2.004,0.226V301.757z M327.613,270.389h-20.896c-3.866,0-7,3.134-7,7s3.134,7,7,7h20.896
	c16,0,29.018,13.017,29.018,29.019c0,3.866,3.134,6.999,7,6.999s7-3.135,7-7.001C370.631,289.686,351.333,270.389,327.613,270.389z
	 M281.673,270.389h-1.545c-3.866,0-7,3.134-7,7s3.134,7,7,7h1.545c3.866,0,7-3.134,7-7S285.539,270.389,281.673,270.389z"/>
<g>
</g>
<g>
</g>
<g>
</g>
<g>
</g>
<g>
</g>
<g>
</g>
<g>
</g>
<g>
</g>
<g>
</g>
<g>
</g>
<g>
</g>
<g>
</g>
<g>
</g>
<g>
</g>
<g>
</g>
</svg>
