<?xml version="1.0" encoding="iso-8859-1"?>
<!-- Generator: Adobe Illustrator 17.1.0, SVG Export Plug-In . SVG Version: 6.00 Build 0)  -->
<!DOCTYPE svg PUBLIC "-//W3C//DTD SVG 1.1//EN" "http://www.w3.org/Graphics/SVG/1.1/DTD/svg11.dtd">
<svg version="1.1" id="Capa_1" xmlns="http://www.w3.org/2000/svg" xmlns:xlink="http://www.w3.org/1999/xlink" x="0px" y="0px"
	 viewBox="0 0 418.187 418.187" style="enable-background:new 0 0 418.187 418.187;" xml:space="preserve">
<path id="XMLID_27_" d="M317.139,107.987c0-0.005,0-0.011,0-0.017v0c-0.009-0.875-0.179-1.711-0.482-2.481l-23.638-64.602V7
	c0-3.866-3.134-7-7-7H132.167c-3.866,0-7,3.134-7,7v33.887l-23.638,64.602c-0.302,0.77-0.472,1.605-0.481,2.48v0
	c0,0.005,0,0.011,0,0.017c0,0.002,0,0.004,0,0.006c0,0.004,0,0.009,0,0.013s0,0.007,0,0.011c0,0.003,0,0.006,0,0.009
	c0,0.007,0,0.014,0,0.021v210.707c0,0.037,0,0.074,0,0.11v92.322c0,3.866,3.134,7,7,7h202.091c3.866,0,7-3.134,7-7v-117.72
	c0-0.009,0-0.018,0-0.027V108.047c0-0.007,0-0.014,0-0.021c0-0.003,0-0.006,0-0.009c0-0.004,0-0.007,0-0.011
	c0-0.004,0-0.009,0-0.013C317.139,107.991,317.139,107.989,317.139,107.987z M139.167,14h139.852v21.127H139.167V14z M137.06,49.127
	h144.066l18.998,51.919H118.063L137.06,49.127z M115.048,115.047h107.861v8.077c0,15.437-10.492,28.808-25.515,32.517
	c-3.126,0.771-5.322,3.576-5.322,6.796v6.172c0,18.463-15.021,33.485-33.485,33.485h-43.539V115.047z M219.807,404.187H115.048
	v-81.783c4.712-2.985,10.089-4.548,15.727-4.548h18.181c13.675,0,25.52,9.294,28.803,22.602c0.772,3.126,3.576,5.323,6.796,5.323
	h5.589c16.356,0,29.663,13.306,29.663,29.662V404.187z M303.139,286.458h-42.461c-11.621,0-21.075-9.454-21.075-21.074V251.46
	c0-9.715,6.604-18.13,16.061-20.465c3.126-0.771,5.322-3.576,5.322-6.796v-4.281c0-11.62,9.455-21.074,21.076-21.074h21.077V286.458
	z M303.139,184.844h-21.077c-19.091,0-34.668,15.329-35.068,34.325c-12.829,5.423-21.391,18.013-21.391,32.292v13.923
	c0,19.34,15.734,35.074,35.075,35.074l42.461,0v103.729h-69.332v-28.745c0-24.075-19.587-43.662-43.663-43.662h-0.468
	c-6.435-16.687-22.469-27.924-40.721-27.924h-18.181c-5.39,0-10.73,1.022-15.727,2.961v-90.724h43.539
	c26.183,0,47.485-21.302,47.485-47.485v-1.021c18.405-6.88,30.837-24.447,30.837-44.464v-8.077h66.23V184.844z"/>
<g>
</g>
<g>
</g>
<g>
</g>
<g>
</g>
<g>
</g>
<g>
</g>
<g>
</g>
<g>
</g>
<g>
</g>
<g>
</g>
<g>
</g>
<g>
</g>
<g>
</g>
<g>
</g>
<g>
</g>
</svg>
