<?xml version="1.0" encoding="iso-8859-1"?>
<!-- Generator: Adobe Illustrator 17.1.0, SVG Export Plug-In . SVG Version: 6.00 Build 0)  -->
<!DOCTYPE svg PUBLIC "-//W3C//DTD SVG 1.1//EN" "http://www.w3.org/Graphics/SVG/1.1/DTD/svg11.dtd">
<svg version="1.1" id="Capa_1" xmlns="http://www.w3.org/2000/svg" xmlns:xlink="http://www.w3.org/1999/xlink" x="0px" y="0px"
	 viewBox="0 0 383.675 383.675" style="enable-background:new 0 0 383.675 383.675;" xml:space="preserve">
<path id="XMLID_1509_" d="M125.042,309.473c0,3.866-3.134,7-7,7h-2.106c-3.866,0-7-3.134-7-7s3.134-7,7-7h2.106
	C121.909,302.473,125.042,305.606,125.042,309.473z M118.042,247.723h-2.106c-3.866,0-7,3.134-7,7s3.134,7,7,7h2.106
	c3.866,0,7-3.134,7-7S121.909,247.723,118.042,247.723z M71.155,289.099h2.106c3.866,0,7-3.134,7-7s-3.134-7-7-7h-2.106
	c-3.866,0-7,3.134-7,7S67.289,289.099,71.155,289.099z M84.295,261.723h2.107c3.866,0,7-3.134,7-7s-3.134-7-7-7h-2.107
	c-3.866,0-7,3.134-7,7S80.429,261.723,84.295,261.723z M73.261,220.349h-2.106c-3.866,0-7,3.134-7,7s3.134,7,7,7h2.106
	c3.866,0,7-3.134,7-7S77.127,220.349,73.261,220.349z M139.528,347.993c0,3.866-3.134,7-7,7H19.138c-3.866,0-7-3.134-7-7V173.479
	c0-0.276,0.017-0.552,0.049-0.826L31.978,6.174C32.397,2.652,35.383,0,38.929,0h203.989c3.544,0,6.529,2.648,6.95,6.168l5.442,45.45
	c0.46,3.838-2.279,7.322-6.118,7.782c-3.833,0.465-7.322-2.279-7.782-6.118L236.707,14h-68.569v72.485
	c0,2.408-1.238,4.647-3.278,5.929c-2.041,1.28-4.596,1.421-6.764,0.376L135.81,82.037L113.524,92.79
	c-2.168,1.045-4.725,0.903-6.764-0.376c-2.04-1.281-3.278-3.521-3.278-5.929V14H45.146L26.138,173.894v167.1h106.39
	C136.394,340.993,139.528,344.127,139.528,347.993z M117.482,75.336l15.286-7.376c1.923-0.928,4.163-0.927,6.084,0l15.285,7.376V14
	h-36.655V75.336z M270.662,137.469c-2.051,3.276-1.058,7.596,2.22,9.647c1.154,0.723,2.438,1.067,3.707,1.067
	c2.332,0,4.611-1.165,5.94-3.287c9.768-15.604,1.146-28.607-5.149-38.103c-6.526-9.844-9.711-15.334-4.951-22.938
	c2.051-3.276,1.058-7.596-2.22-9.647c-3.277-2.053-7.598-1.057-9.647,2.22c-9.767,15.603-1.146,28.606,5.15,38.102
	C272.238,124.374,275.421,129.865,270.662,137.469z M243.697,147.116c1.154,0.723,2.438,1.067,3.707,1.067
	c2.332,0,4.611-1.165,5.94-3.287c9.768-15.604,1.146-28.607-5.149-38.103c-6.527-9.844-9.711-15.334-4.952-22.938
	c2.051-3.277,1.058-7.597-2.22-9.647c-3.277-2.053-7.598-1.057-9.647,2.22c-9.767,15.604-1.145,28.606,5.15,38.102
	c6.527,9.844,9.711,15.335,4.951,22.938C239.426,140.745,240.419,145.064,243.697,147.116z M293.624,196.043h-2.106
	c-3.866,0-7,3.134-7,7s3.134,7,7,7h2.106c3.866,0,7-3.134,7-7S297.49,196.043,293.624,196.043z M258.006,187.853h-2.107
	c-3.866,0-7,3.134-7,7s3.134,7,7,7h2.107c3.866,0,7-3.134,7-7S261.873,187.853,258.006,187.853z M329.52,275.753
	c-3.866,0-7,3.134-7,7c0,29.97-24.383,54.352-54.353,54.352c-3.866,0-7,3.134-7,7s3.134,7,7,7c37.689,0,68.353-30.662,68.353-68.352
	C336.52,278.887,333.386,275.753,329.52,275.753z M371.537,228.912v56.807c0,54.013-43.943,97.956-97.958,97.956h-33.251
	c-54.015,0-97.958-43.943-97.958-97.956v-56.807c0-3.866,3.134-7,7-7h8.978c12.011-35.183,52.441-60.188,98.604-60.188
	s86.594,25.006,98.604,60.188h8.98C368.403,221.912,371.537,225.046,371.537,228.912z M173.35,221.912h167.203
	c-11.94-27.229-45.428-46.188-83.602-46.188S185.291,194.683,173.35,221.912z M357.537,235.912h-7.054
	c-0.101,0.002-0.201,0.002-0.3,0H163.72c-0.1,0.001-0.2,0.001-0.3,0h-7.051v49.807c0,46.294,37.663,83.956,83.958,83.956h33.251
	c46.295,0,83.958-37.662,83.958-83.956V235.912z M84.295,316.473h2.107c3.866,0,7-3.134,7-7s-3.134-7-7-7h-2.107
	c-3.866,0-7,3.134-7,7S80.429,316.473,84.295,316.473z M222.389,196.043h-2.106c-3.866,0-7,3.134-7,7s3.134,7,7,7h2.106
	c3.866,0,7-3.134,7-7S226.255,196.043,222.389,196.043z M99.544,289.099c3.866,0,7-3.134,7-7s-3.134-7-7-7h-2.106
	c-3.866,0-7,3.134-7,7s3.134,7,7,7H99.544z M54.762,247.723h-2.106c-3.866,0-7,3.134-7,7s3.134,7,7,7h2.106c3.866,0,7-3.134,7-7
	S58.628,247.723,54.762,247.723z M54.762,302.473h-2.106c-3.866,0-7,3.134-7,7s3.134,7,7,7h2.106c3.866,0,7-3.134,7-7
	S58.628,302.473,54.762,302.473z"/>
<g>
</g>
<g>
</g>
<g>
</g>
<g>
</g>
<g>
</g>
<g>
</g>
<g>
</g>
<g>
</g>
<g>
</g>
<g>
</g>
<g>
</g>
<g>
</g>
<g>
</g>
<g>
</g>
<g>
</g>
</svg>
