<?xml version="1.0" encoding="iso-8859-1"?>
<!-- Generator: Adobe Illustrator 17.1.0, SVG Export Plug-In . SVG Version: 6.00 Build 0)  -->
<!DOCTYPE svg PUBLIC "-//W3C//DTD SVG 1.1//EN" "http://www.w3.org/Graphics/SVG/1.1/DTD/svg11.dtd">
<svg version="1.1" id="Capa_1" xmlns="http://www.w3.org/2000/svg" xmlns:xlink="http://www.w3.org/1999/xlink" x="0px" y="0px"
	 viewBox="0 0 419.239 419.239" style="enable-background:new 0 0 419.239 419.239;" xml:space="preserve">
<path id="XMLID_1362_" d="M227.962,116.071c0-3.866,3.134-7,7-7h2.005c3.866,0,7,3.134,7,7s-3.134,7-7,7h-2.005
	C231.096,123.071,227.962,119.937,227.962,116.071z M307.302,160.931c-32.749,11.696-76.436,18.138-123.01,18.138
	c-25.14,0-49.394-1.866-72.088-5.544c-3.82-0.62-7.412,1.973-8.03,5.79c-0.619,3.816,1.973,7.411,5.79,8.03
	c23.433,3.799,48.44,5.725,74.328,5.725c48.139,0,93.497-6.731,127.719-18.954c16.172-5.776,29.125-12.578,38.532-20.109
	c2.685,3.827,4.04,7.647,4.04,11.409c0,3.388-1.106,6.851-3.288,10.292c-2.07,3.265-1.101,7.59,2.164,9.66
	c3.269,2.072,7.591,1.101,9.66-2.164c3.626-5.719,5.464-11.704,5.464-17.788c0-7.424-2.688-14.591-8.001-21.372
	c5.272-6.734,8.001-13.889,8.001-21.294c0-7.423-2.688-14.589-8.002-21.371c5.273-6.735,8.002-13.889,8.002-21.295
	c0-20.094-20.091-38.336-56.572-51.365C277.789,16.495,232.43,9.764,184.292,9.764c-48.139,0-93.497,6.731-127.719,18.954
	C20.091,41.746,0,59.988,0,80.082c0,5.658,1.664,13.178,7.988,21.313C2.683,108.173,0,115.333,0,122.749
	c0,5.652,1.661,13.175,7.985,21.313C2.682,150.838,0,157.997,0,165.414c0,7.426,2.674,14.579,7.964,21.342
	C2.674,193.525,0,200.675,0,208.082c0,7.392,2.732,14.544,8.009,21.282C2.69,236.15,0,243.321,0,250.748
	c0,19.61,19.236,37.54,54.166,50.486c32.624,12.093,76.265,19.116,122.884,19.776c0.034,0,0.067,0,0.101,0
	c3.819,0,6.943-3.069,6.998-6.901c0.055-3.866-3.035-7.043-6.9-7.099C79.597,305.63,14,276.804,14,250.748
	c0-3.765,1.357-7.589,4.046-11.42c8.939,7.162,21.075,13.664,36.12,19.241c32.624,12.093,76.265,19.116,122.884,19.776
	c3.896,0.017,7.044-3.035,7.099-6.9c0.055-3.866-3.035-7.043-6.9-7.099c-76.868-1.088-133.872-19.18-154.656-39.541
	c-0.1-0.114-0.205-0.226-0.314-0.335c-0.113-0.113-0.229-0.221-0.347-0.325C16.74,218.847,14,213.406,14,208.082
	c0-3.751,1.347-7.56,4.016-11.375c28.714,22.884,89.655,37.994,159.034,38.977c0.034,0,0.067,0,0.101,0
	c3.82,0,6.943-3.069,6.998-6.901c0.055-3.866-3.035-7.043-6.9-7.099c-69.781-0.988-132.062-17.019-154.977-39.891
	c-0.078-0.078-0.157-0.153-0.237-0.227C16.701,176.173,14,170.745,14,165.414c0-3.749,1.346-7.556,4.011-11.37
	c1.343,1.075,2.783,2.151,4.323,3.227c3.169,2.214,7.534,1.438,9.747-1.732c2.213-3.17,1.438-7.534-1.732-9.747
	C22.891,140.585,14,132.36,14,122.749c0-3.749,1.347-7.556,4.014-11.371c1.411,1.128,2.927,2.259,4.555,3.389
	c3.178,2.206,7.539,1.416,9.742-1.761c2.204-3.177,1.415-7.538-1.761-9.742C23,98.027,14,89.753,14,80.082
	c0-13.334,17.675-27.607,47.282-38.181c32.75-11.696,76.436-18.138,123.01-18.138s90.26,6.441,123.01,18.138
	c29.605,10.574,47.281,24.847,47.281,38.181c0,13.334-17.676,27.608-47.281,38.182c-32.75,11.697-76.436,18.138-123.01,18.138
	c-25.921,0-50.855-1.978-74.11-5.878c-3.814-0.636-7.422,1.933-8.062,5.746c-0.639,3.813,1.933,7.422,5.746,8.062
	c24.018,4.028,49.731,6.07,76.426,6.07c48.138,0,93.497-6.731,127.719-18.954c16.172-5.776,29.123-12.576,38.531-20.108
	c2.686,3.828,4.041,7.647,4.041,11.409C354.583,136.083,336.908,150.357,307.302,160.931z M235.423,55.208h2.004
	c3.866,0,7-3.134,7-7s-3.134-7-7-7h-2.004c-3.866,0-7,3.134-7,7S231.557,55.208,235.423,55.208z M89.021,131.809
	c0,0.056,0,0.112-0.002,0.168c0.001,0.056,0.002,0.112,0.002,0.168v37.632c0,12.92-10.511,23.432-23.431,23.432
	c-12.922,0-23.435-10.511-23.435-23.432V80.655c0-24.779,46.826-37.744,93.082-37.744c46.257,0,93.083,12.965,93.083,37.744
	c0,24.779-46.827,37.743-93.083,37.743c-16.516,0-32.3-1.589-46.216-4.626V131.809z M135.237,104.398
	c22.212,0,42.994-3.053,58.517-8.597c15.181-5.421,20.567-11.548,20.567-15.146c0-3.599-5.386-9.726-20.567-15.147
	c-15.522-5.543-36.304-8.597-58.516-8.597c-22.211,0-42.992,3.053-58.515,8.597c-15.181,5.422-20.567,11.548-20.567,15.147v40.411
	v48.713c0,5.201,4.231,9.432,9.433,9.432s9.433-4.231,9.433-9.432v-37.632c0-0.057,0-0.112,0.002-0.168
	c-0.001-0.056-0.002-0.112-0.002-0.168v-26.988c0-2.191,1.026-4.256,2.773-5.58c1.748-1.323,4.013-1.751,6.122-1.159
	C98.396,102.155,116.623,104.398,135.237,104.398z M323.076,90.344c3.866,0,7-3.134,7-7s-3.134-7-7-7h-2.005c-3.866,0-7,3.134-7,7
	s3.134,7,7,7H323.076z M419.239,245.186V373.53c0,19.82-16.125,35.945-35.944,35.945H238.565c-19.821,0-35.946-16.125-35.946-35.945
	V245.186c0-19.82,16.125-35.945,35.946-35.945h144.729C403.114,209.241,419.239,225.366,419.239,245.186z M317.931,247.809h37.762
	v-24.568h-37.762V247.809z M317.931,286.456h37.762v-24.647h-37.762V286.456z M317.931,325.024h37.762v-24.568h-37.762V325.024z
	 M266.168,247.809h37.763v-24.568h-37.763V247.809z M266.168,286.456h37.763v-24.647h-37.763V286.456z M266.168,325.024h37.763
	v-24.568h-37.763V325.024z M216.619,247.809h35.55v-24.568h-13.604c-12.102,0-21.946,9.844-21.946,21.945V247.809z M216.619,286.456
	h35.55v-24.647h-35.55V286.456z M216.619,303.079c0,12.101,9.845,21.945,21.946,21.945h13.604v-24.568h-35.55V303.079z
	 M405.239,367.712c-6.075,4.697-13.689,7.494-21.944,7.494H238.565c-8.256,0-15.871-2.798-21.946-7.495v5.819
	c0,12.101,9.845,21.945,21.946,21.945h144.729c12.101,0,21.944-9.844,21.944-21.945V367.712z M405.239,331.53
	c-6.075,4.696-13.689,7.494-21.944,7.494H238.565c-8.256,0-15.871-2.798-21.946-7.495v7.732c0,12.1,9.845,21.944,21.946,21.944
	h144.729c12.101,0,21.944-9.844,21.944-21.944V331.53z M405.239,300.456h-35.546v24.568h13.602c12.101,0,21.944-9.844,21.944-21.945
	V300.456z M405.239,261.809h-35.546v24.647h35.546V261.809z M405.239,245.186c0-12.101-9.844-21.945-21.944-21.945h-13.602v24.568
	h35.546V245.186z M265.685,91.581c3.866,0,7-3.134,7-7s-3.134-7-7-7h-2.005c-3.866,0-7,3.134-7,7s3.134,7,7,7H265.685z
	 M287.606,65.017c3.866,0,7-3.134,7-7s-3.134-7-7-7h-2.005c-3.866,0-7,3.134-7,7s3.134,7,7,7H287.606z"/>
<g>
</g>
<g>
</g>
<g>
</g>
<g>
</g>
<g>
</g>
<g>
</g>
<g>
</g>
<g>
</g>
<g>
</g>
<g>
</g>
<g>
</g>
<g>
</g>
<g>
</g>
<g>
</g>
<g>
</g>
</svg>
