<?xml version="1.0" encoding="iso-8859-1"?>
<!-- Generator: Adobe Illustrator 17.1.0, SVG Export Plug-In . SVG Version: 6.00 Build 0)  -->
<!DOCTYPE svg PUBLIC "-//W3C//DTD SVG 1.1//EN" "http://www.w3.org/Graphics/SVG/1.1/DTD/svg11.dtd">
<svg version="1.1" id="Capa_1" xmlns="http://www.w3.org/2000/svg" xmlns:xlink="http://www.w3.org/1999/xlink" x="0px" y="0px"
	 viewBox="0 0 415.244 415.244" style="enable-background:new 0 0 415.244 415.244;" xml:space="preserve">
<path id="XMLID_391_" d="M125.273,98.871l0.311-90.897c0.013-3.858,3.145-6.977,7-6.977c0.008,0,0.016,0,0.024,0
	c3.866,0.014,6.989,3.158,6.976,7.023l-0.311,90.899c-0.013,3.857-3.145,6.976-7,6.976c-0.008,0-0.016,0-0.024,0
	C128.383,105.882,125.26,102.737,125.273,98.871z M201.528,183.721c-33.181-40.952-26.87-101.26,14.062-134.46
	c0.012-0.01,0.024-0.02,0.037-0.029c4.946-4.008,12.027-4.688,19.43-1.865c6.216,2.37,12.367,7.041,17.319,13.154l0-0.001
	c4.953,6.112,8.248,13.099,9.277,19.671c1.226,7.826-0.908,14.613-5.854,18.62c-0.006,0.006-0.012,0.01-0.019,0.016
	c-13.603,11.041-15.704,31.086-4.687,44.705c0.005,0.007,0.01,0.013,0.015,0.019c4.008,4.946,4.687,12.028,1.865,19.431
	c-2.37,6.216-7.042,12.366-13.154,17.318c-7.888,6.392-16.503,9.675-23.915,9.675c-5.862,0-10.971-2.054-14.372-6.247
	C201.531,183.725,201.529,183.723,201.528,183.721z M240.231,152.364c-1.652-2.039-9.97-1.505-18.601,5.485
	c-8.628,6.991-10.876,15.016-9.226,17.058c0.001,0,0.001,0,0.001,0c0,0.001,0,0.001,0,0.001c1.654,2.041,9.971,1.505,18.6-5.486
	c4.164-3.374,7.403-7.54,8.886-11.43C240.844,155.494,240.977,153.285,240.231,152.364z M229.927,78.71
	c6.992,8.628,15.016,10.874,17.058,9.223c0.921-0.746,1.249-2.935,0.835-5.576c-0.644-4.112-2.948-8.858-6.322-13.022
	c0,0,0-0.001,0-0.001c-3.374-4.164-7.539-7.402-11.429-8.885c-1.422-0.543-2.751-0.819-3.802-0.819
	c-0.795,0-1.431,0.158-1.827,0.479C222.401,61.761,222.934,70.079,229.927,78.71z M202.248,158.884
	c2.513-4.182,6.07-8.267,10.568-11.911c6.343-5.14,13.157-8.269,19.436-9.298c-3.978-12.298-2.56-25.821,3.882-37.027
	c-5.93-2.308-11.944-6.78-17.085-13.124c-3.645-4.498-6.278-9.233-7.869-13.846C192.413,98.014,188.935,131.187,202.248,158.884z
	 M84.341,105.896c0.008,0,0.016,0,0.024,0c3.855,0,6.986-3.118,7-6.976l0.311-90.899c0.013-3.865-3.11-7.01-6.976-7.023
	c-0.008,0-0.016,0-0.024,0c-3.854,0-6.986,3.118-7,6.977l-0.311,90.897C77.351,102.737,80.474,105.882,84.341,105.896z
	 M108.295,105.896c0.008,0,0.016,0,0.024,0c3.855,0,6.986-3.118,7-6.976l0.311-90.899c0.013-3.865-3.11-7.01-6.976-7.023
	c-0.008,0-0.016,0-0.024,0c-3.854,0-6.986,3.118-7,6.977l-0.311,90.897C101.305,102.737,104.428,105.882,108.295,105.896z
	 M332.112,216.043c0,18.189-9.221,31.905-21.448,31.905c-17.54,0-31.809,14.27-31.809,31.81c0,12.227-13.717,21.446-31.907,21.446
	c-18.189,0-31.905-9.22-31.905-21.446c0-52.726,42.895-95.62,95.62-95.62C322.891,184.138,332.112,197.854,332.112,216.043z
	 M264.855,279.758c0-2.625-6.798-7.446-17.907-7.446c-11.107,0-17.905,4.821-17.905,7.446s6.798,7.446,17.905,7.446
	C258.057,287.204,264.855,282.383,264.855,279.758z M294.228,236.996c-3.153-5.525-5.011-12.789-5.011-20.953
	c0-5.789,0.934-11.125,2.602-15.71c-29.902,7.093-53.487,30.678-60.58,60.58c4.584-1.667,9.92-2.602,15.709-2.602
	c8.165,0,15.428,1.857,20.955,5.011C272.554,251.261,282.167,241.647,294.228,236.996z M318.112,216.043
	c0-11.107-4.822-17.905-7.448-17.905c-2.625,0-7.446,6.798-7.446,17.905s4.821,17.905,7.446,17.905
	C313.29,233.948,318.112,227.15,318.112,216.043z M246.306,354.421c0,18.189-9.221,31.906-21.448,31.906
	c-52.725,0-95.619-42.895-95.619-95.62c0-12.227,13.717-21.447,31.907-21.447c18.188,0,31.905,9.221,31.905,21.447
	c0,17.539,14.269,31.808,31.808,31.808C237.086,322.515,246.306,336.231,246.306,354.421z M161.146,298.152
	c11.107,0,17.905-4.82,17.905-7.445c0-2.626-6.798-7.447-17.905-7.447c-11.108,0-17.907,4.821-17.907,7.447
	C143.24,293.332,150.038,298.152,161.146,298.152z M203.413,354.421c0-8.164,1.857-15.428,5.011-20.954
	c-12.061-4.651-21.674-14.264-26.325-26.325c-5.526,3.153-12.789,5.011-20.953,5.011c-5.79,0-11.126-0.934-15.711-2.602
	c7.092,29.902,30.678,53.488,60.58,60.581C204.347,365.547,203.413,360.211,203.413,354.421z M232.306,354.421
	c0-11.108-4.822-17.906-7.448-17.906c-2.625,0-7.445,6.798-7.445,17.906c0,11.107,4.82,17.906,7.445,17.906
	C227.484,372.327,232.306,365.528,232.306,354.421z M390.411,65.672c0,52.726-42.895,95.62-95.62,95.62
	c-12.227,0-21.448-13.717-21.448-31.906c0-18.188,9.221-31.905,21.448-31.905c17.539,0,31.809-14.27,31.809-31.809
	c0-12.227,13.716-21.446,31.906-21.446S390.411,53.445,390.411,65.672z M302.237,129.386c0-11.107-4.821-17.905-7.446-17.905
	c-2.625,0-7.448,6.798-7.448,17.905s4.822,17.906,7.448,17.906C297.416,147.292,302.237,140.493,302.237,129.386z M374.216,84.517
	c-4.585,1.668-9.921,2.602-15.71,2.602c-8.164,0-15.428-1.857-20.954-5.011c-4.651,12.061-14.264,21.674-26.326,26.325
	c3.153,5.526,5.011,12.789,5.011,20.953c0,5.79-0.934,11.126-2.602,15.711C343.538,138.004,367.123,114.419,374.216,84.517z
	 M376.411,65.672c0-2.625-6.798-7.446-17.906-7.446S340.6,63.047,340.6,65.672s6.798,7.446,17.906,7.446
	S376.411,68.297,376.411,65.672z M131.663,352.478c-0.007,0-0.013,0-0.02,0c-3.857,0-6.989,3.122-7,6.981l-0.131,48.767
	c-0.01,3.866,3.115,7.008,6.981,7.019c0.006,0,0.013,0,0.019,0c3.857,0,6.989-3.122,7-6.981l0.131-48.767
	C138.655,355.63,135.529,352.488,131.663,352.478z M107.861,288.889H83.925c-0.011,0-0.022,0-0.035,0H59.968
	c-0.011,0-0.022,0-0.035,0h-21.1V131.601h117.522v113.78c0,3.866,3.134,7,7,7s7-3.134,7-7v-120.78c0-3.866-3.134-7-7-7H31.833
	c-3.866,0-7,3.134-7,7v171.288c0,3.866,3.134,7,7,7h21.098l-0.278,104.061c-0.01,3.866,3.115,7.008,6.981,7.019
	c0.006,0,0.013,0,0.019,0c3.857,0,6.989-3.122,7-6.981l0.278-104.098h9.957l-0.282,105.337c-0.01,3.866,3.115,7.008,6.981,7.019
	c0.006,0,0.012,0,0.019,0c3.857,0,6.989-3.122,7-6.981l0.282-105.374h9.954l-0.283,105.337c-0.01,3.865,3.115,7.008,6.981,7.019
	c0.006,0,0.013,0,0.019,0c3.857,0,6.989-3.122,7-6.981l0.302-112.355c0.005-1.859-0.73-3.645-2.043-4.962
	C111.504,289.629,109.72,288.889,107.861,288.889z M60.384,105.896c0.008,0,0.016,0,0.024,0c3.854,0,6.986-3.118,7-6.977
	L67.72,7.023c0.013-3.865-3.11-7.01-6.976-7.023c-0.008,0-0.016,0-0.024,0c-3.854,0-6.986,3.118-7,6.977l-0.313,91.896
	C53.394,102.737,56.518,105.883,60.384,105.896z M55.823,153.887v112.715c0,3.866,3.134,7,7,7s7-3.134,7-7V153.887
	c0-3.866-3.134-7-7-7S55.823,150.021,55.823,153.887z"/>
<g>
</g>
<g>
</g>
<g>
</g>
<g>
</g>
<g>
</g>
<g>
</g>
<g>
</g>
<g>
</g>
<g>
</g>
<g>
</g>
<g>
</g>
<g>
</g>
<g>
</g>
<g>
</g>
<g>
</g>
</svg>
