<?xml version="1.0" encoding="iso-8859-1"?>
<!-- Generator: Adobe Illustrator 17.1.0, SVG Export Plug-In . SVG Version: 6.00 Build 0)  -->
<!DOCTYPE svg PUBLIC "-//W3C//DTD SVG 1.1//EN" "http://www.w3.org/Graphics/SVG/1.1/DTD/svg11.dtd">
<svg version="1.1" id="Capa_1" xmlns="http://www.w3.org/2000/svg" xmlns:xlink="http://www.w3.org/1999/xlink" x="0px" y="0px"
	 viewBox="0 0 423.583 423.583" style="enable-background:new 0 0 423.583 423.583;" xml:space="preserve">
<path id="XMLID_570_" d="M275.696,70.291c-8.09-8.09-18.064-14.252-28.846-17.823c-3.67-1.215-5.66-5.175-4.445-8.845
	c1.216-3.671,5.176-5.66,8.846-4.445c12.844,4.252,24.72,11.588,34.345,21.213c8.852,8.851,15.824,19.696,20.164,31.365
	c1.348,3.624-0.497,7.653-4.12,9.001c-0.805,0.299-1.629,0.441-2.439,0.441c-2.841,0-5.514-1.743-6.562-4.562
	C288.994,86.84,283.135,77.73,275.696,70.291z M342.931,220.269c0.116,1.926-0.567,3.815-1.89,5.221
	c-1.323,1.405-3.168,2.202-5.098,2.202h-6.13v11.265c0,21.49-12.01,44.033-28.964,57.36c-0.039,0.064-0.078,0.129-0.119,0.193
	c-8.368,13.158-3.799,18.765,6.479,29.214c9.179,9.331,21.75,22.111,9.899,43.205c-1.894,3.371-6.158,4.567-9.531,2.674
	c-3.37-1.894-4.567-6.161-2.674-9.532c6.412-11.414,2.03-16.663-7.675-26.53c-7.01-7.125-15.888-16.151-14.769-29.311l-3.328,1.14
	c-9.991,10.499-6.717,16.945,0.839,29.042c6.934,11.102,16.431,26.307,0.282,44.324c-2.582,2.879-7.008,3.121-9.885,0.541
	c-2.879-2.581-3.121-7.006-0.541-9.885c8.738-9.749,5.602-15.825-1.73-27.564c-5.401-8.648-12.271-19.646-7.802-32.577
	c-5.233-0.314-10.123-2.004-14.363-5.035c-7.997-5.714-12.583-15.675-12.583-27.328v-52.104c-0.606-0.343-1.164-0.778-1.651-1.295
	c-1.322-1.406-2.006-3.295-1.89-5.222l2.796-46.111c-0.354-0.265-0.685-0.563-0.986-0.895c-1.326-1.458-1.977-3.407-1.791-5.37
	l4.609-48.797c-0.568-1.306-1.393-2.514-2.422-3.543c-0.274-0.274-0.559-0.532-0.853-0.774v3.808c0,3.866-3.134,7-7,7
	c-3.905,0-7.625,1.572-10.479,4.425c-0.191,0.191-0.377,0.386-0.558,0.586c0.724,1.203,1.074,2.607,0.988,4.031l-3.742,61.732
	c-0.056,0.923-0.142,1.844-0.257,2.763c0.784,0.37,1.501,0.887,2.108,1.532c1.322,1.406,2.006,3.295,1.89,5.221l-3.741,61.732
	c-0.502,8.288-3.351,16.237-8.269,23.126l-1.88,31.052c-0.713,11.707-7.096,22.612-16.934,29.306l-0.813,13.409
	c-0.505,8.342-5.134,15.727-11.782,20.169c5.618,5.225,9.652,12.17,10.877,19.783l1.773,11.018c0.326,2.025-0.253,4.091-1.583,5.652
	c-1.329,1.561-3.277,2.46-5.328,2.46c0,0-6.464-0.192-7.334-0.564c-6.882-2.943-14.393-4.499-21.719-4.499
	s-14.836,1.556-21.718,4.499c-0.87,0.372-7.335,0.564-7.335,0.564c-2.051,0-3.999-0.899-5.328-2.46
	c-1.33-1.561-1.909-3.627-1.583-5.652l1.773-11.018c1.225-7.612,5.259-14.558,10.877-19.783c-6.647-4.442-11.276-11.827-11.78-20.17
	l-0.813-13.408c-9.839-6.693-16.222-17.599-16.933-29.304l-1.88-31.052c-4.92-6.89-7.769-14.84-8.27-23.129l-3.742-61.73
	c-0.116-1.927,0.567-3.816,1.89-5.222c0.607-0.645,1.324-1.162,2.108-1.532c-0.115-0.919-0.201-1.84-0.257-2.763l-3.741-61.732
	c-0.116-1.926,0.567-3.815,1.89-5.221c0.493-0.524,1.06-0.963,1.675-1.308c2.889-32.746,17.201-63.408,40.672-86.88
	C151.467,14.638,186.723,0,224.16,0c3.47,0,6.352,2.524,6.906,5.835c28.793,1.664,55.672,13.713,76.312,34.353
	c20.826,20.827,33.051,48.411,34.42,77.672c0.082,1.757-0.5,3.475-1.621,4.816l2.755,45.451c0.116,1.926-0.567,3.815-1.89,5.221
	c-0.28,0.297-0.583,0.567-0.905,0.808L342.931,220.269z M167.913,407.683l-0.162-1.005c-1.536-9.546-10.863-17.611-20.368-17.611
	s-18.832,8.064-20.368,17.61l-0.162,1.006c6.68-2.079,13.663-3.163,20.53-3.163S161.233,405.604,167.913,407.683z M169.931,340.095
	h-45.096l0.389,6.424c0.005,0.058,0.008,0.115,0.011,0.173l1.028,16.963c0.374,6.187,5.909,11.412,12.089,11.412h9.03h9.03
	c6.18,0,11.717-5.226,12.091-11.411l1.028-16.962c0.003-0.059,0.006-0.118,0.011-0.176L169.931,340.095z M188.86,277.822h-82.953
	l2.611,43.119c0.195,3.216,1.079,6.341,2.534,9.199c0.313-0.67,0.731-1.294,1.248-1.843c1.323-1.405,3.168-2.202,5.098-2.202h59.971
	c1.93,0,3.774,0.797,5.098,2.202c0.517,0.549,0.936,1.172,1.248,1.842c1.455-2.858,2.34-5.984,2.535-9.201l1.999-33.016
	c0.004-0.09,0.009-0.179,0.016-0.269L188.86,277.822z M199.689,212.453H95.077l3.114,51.375c0.093-0.003,0.186-0.005,0.279-0.005
	h97.826c0.094,0,0.187,0.002,0.279,0.005L199.689,212.453z M199.69,141.204H95.077l3.291,54.31c0.06,0.982,0.169,1.963,0.328,2.939
	h97.374c0.159-0.976,0.269-1.956,0.328-2.938L199.69,141.204z M217.163,14.19c-31.077,1.694-60.104,14.655-82.374,36.927
	c-20.628,20.628-33.399,47.416-36.421,76.086h100.185c1.032-1.958,2.289-3.803,3.743-5.491l-23.518-23.516
	c-2.734-2.733-2.734-7.166-0.001-9.899c2.734-2.733,7.167-2.734,9.899,0l24.942,24.94c0.087,0.087,0.171,0.176,0.253,0.266
	c1.074-0.416,2.173-0.767,3.291-1.049V14.19z M250.667,82.085c2.736-2.734,7.168-2.733,9.9,0c2.733,2.733,2.733,7.166,0,9.899
	l-16.333,16.333c0.692,0.915,1.321,1.875,1.883,2.87h81.092c-2.725-23.023-13.125-44.494-29.73-61.1
	c-17.971-17.971-41.3-28.553-66.315-30.219v79.36c0.597,0.175,1.187,0.373,1.769,0.593L250.667,82.085z M315.814,227.692H247.35
	v51.197c0,7.18,2.388,12.84,6.723,15.938c3.858,2.757,9.104,3.208,14.768,1.269l10.475-3.586
	c19.785-6.771,36.499-31.296,36.499-53.553V227.692z M328.506,213.692l-2.312-38.141h-79.648l-2.313,38.141H328.506z
	 M328.506,161.551l-2.204-36.364h-78.378l-3.436,36.364H328.506z M128.666,110.979c0.805,0.299,1.629,0.441,2.439,0.441
	c2.841,0,5.514-1.743,6.562-4.562c4.585-12.326,11.958-23.791,21.32-33.155c10.182-10.18,22.733-17.935,36.298-22.427
	c3.67-1.215,5.66-5.175,4.445-8.845c-1.216-3.67-5.175-5.663-8.846-4.445c-15.627,5.174-30.079,14.102-41.797,25.817
	c-10.774,10.776-19.262,23.977-24.542,38.174C123.198,105.602,125.042,109.632,128.666,110.979z M280.485,257.128h2.195
	c3.866,0,7-3.134,7-7s-3.134-7-7-7h-2.195c-3.866,0-7,3.134-7,7S276.619,257.128,280.485,257.128z"/>
<g>
</g>
<g>
</g>
<g>
</g>
<g>
</g>
<g>
</g>
<g>
</g>
<g>
</g>
<g>
</g>
<g>
</g>
<g>
</g>
<g>
</g>
<g>
</g>
<g>
</g>
<g>
</g>
<g>
</g>
</svg>
