<?xml version="1.0" encoding="iso-8859-1"?>
<!-- Generator: Adobe Illustrator 17.1.0, SVG Export Plug-In . SVG Version: 6.00 Build 0)  -->
<!DOCTYPE svg PUBLIC "-//W3C//DTD SVG 1.1//EN" "http://www.w3.org/Graphics/SVG/1.1/DTD/svg11.dtd">
<svg version="1.1" id="Capa_1" xmlns="http://www.w3.org/2000/svg" xmlns:xlink="http://www.w3.org/1999/xlink" x="0px" y="0px"
	 viewBox="0 0 419.239 419.239" style="enable-background:new 0 0 419.239 419.239;" xml:space="preserve">
<path id="XMLID_302_" d="M122.103,279.397l19.719-118.405c0.635-3.813,4.233-6.392,8.055-5.755c3.813,0.635,6.39,4.241,5.755,8.055
	l-19.719,118.405c-0.57,3.424-3.536,5.851-6.896,5.851c-0.382,0-0.769-0.031-1.158-0.096
	C124.044,286.817,121.468,283.211,122.103,279.397z M209.62,287.547c3.866,0,7-3.134,7-7V162.142c0-3.866-3.134-7-7-7s-7,3.134-7,7
	v118.405C202.62,284.414,205.753,287.547,209.62,287.547z M281.691,281.697c0.57,3.424,3.536,5.851,6.896,5.851
	c0.382,0,0.769-0.031,1.158-0.096c3.813-0.635,6.39-4.241,5.755-8.055L275.78,160.992c-0.636-3.813-4.243-6.393-8.055-5.755
	c-3.813,0.635-6.39,4.241-5.755,8.055L281.691,281.697z M397.752,202.619h-17.928c-3.866,0-7,3.134-7,7c0,3.866,3.134,7,7,7h17.928
	c4.128,0,7.487,3.358,7.487,7.487v122.992c0,4.128-3.358,7.486-7.487,7.486H21.487c-4.128,0-7.487-3.358-7.487-7.486V224.106
	c0-4.128,3.358-7.487,7.487-7.487H41.13c3.866,0,7-3.134,7-7c0-3.866-3.134-7-7-7H21.487C9.639,202.619,0,212.258,0,224.106v122.992
	c0,11.848,9.639,21.486,21.487,21.486h376.266c11.848,0,21.487-9.639,21.487-21.486V224.106
	C419.239,212.258,409.601,202.619,397.752,202.619z M60.347,304.729c-8.393-9.907-11.748-22.971-9.446-36.784l27.927-167.694
	c4.557-27.348,30.547-49.597,57.938-49.597h145.706c20.048,0,39.345,11.918,50.037,29.029c0.243,0.329,0.456,0.678,0.638,1.045
	c3.579,5.994,6.108,12.596,7.262,19.522l27.929,167.694c2.301,13.813-1.055,26.877-9.448,36.784
	c-8.256,9.745-20.301,15.111-33.917,15.111H94.264C80.648,319.841,68.603,314.474,60.347,304.729z M71.029,295.68
	c5.551,6.553,13.803,10.162,23.234,10.162h230.709c9.432,0,17.684-3.609,23.235-10.161c5.688-6.715,7.933-15.748,6.32-25.435
	l-27.711-166.388c-10.252,17.468-29.425,30.052-48.75,30.052H141.171c-12.529,0-25.111-4.836-35.429-13.618
	c-2.944-2.505-3.299-6.923-0.793-9.868c2.505-2.943,6.924-3.299,9.868-0.793c7.788,6.628,17.147,10.279,26.354,10.279h136.895
	c17.848,0,36.868-16.18,41.367-34.603c-8.406-12.148-22.612-20.651-36.961-20.651H136.766c-20.498,0-40.706,17.355-44.128,37.897
	L64.71,270.246C63.097,279.932,65.341,288.965,71.029,295.68z M126.755,98.47h4.319c3.866,0,7-3.134,7-7s-3.134-7-7-7h-4.319
	c-3.866,0-7,3.134-7,7S122.889,98.47,126.755,98.47z"/>
<g>
</g>
<g>
</g>
<g>
</g>
<g>
</g>
<g>
</g>
<g>
</g>
<g>
</g>
<g>
</g>
<g>
</g>
<g>
</g>
<g>
</g>
<g>
</g>
<g>
</g>
<g>
</g>
<g>
</g>
</svg>
