<?xml version="1.0" encoding="iso-8859-1"?>
<!-- Generator: Adobe Illustrator 17.1.0, SVG Export Plug-In . SVG Version: 6.00 Build 0)  -->
<!DOCTYPE svg PUBLIC "-//W3C//DTD SVG 1.1//EN" "http://www.w3.org/Graphics/SVG/1.1/DTD/svg11.dtd">
<svg version="1.1" id="Capa_1" xmlns="http://www.w3.org/2000/svg" xmlns:xlink="http://www.w3.org/1999/xlink" x="0px" y="0px"
	 viewBox="0 0 418.782 418.782" style="enable-background:new 0 0 418.782 418.782;" xml:space="preserve">
<path id="XMLID_2_" d="M174.028,310.817c1.839,3.4,0.575,7.647-2.826,9.487c-1.059,0.573-2.2,0.845-3.325,0.845
	c-2.488,0-4.896-1.328-6.163-3.67c-10.685-19.748-14.733-32.995-18.831-61.626c-1.844-12.894,0.919-26.941,7.782-39.556
	c7.51-13.813,25.528-26.542,45.901-32.431c16.49-4.766,31.537-4.053,42.368,2.005c8.237,4.607,14.368,12.117,17.73,21.719
	c1.277,3.649-0.645,7.643-4.294,8.92c-3.647,1.281-7.642-0.645-8.92-4.293c-2.215-6.328-6.14-11.213-11.351-14.127
	c-7.431-4.157-18.966-4.439-31.646-0.774c-16.439,4.751-31.855,15.308-37.49,25.67c-5.432,9.986-7.642,20.954-6.221,30.884
	C160.607,280.873,164.161,292.582,174.028,310.817z M283.977,292.35c-3.827-0.549-7.373,2.11-7.92,5.938
	c-4.472,31.255-8.344,42.279-24.373,69.39c-1.968,3.328-0.865,7.62,2.463,9.588c1.118,0.661,2.345,0.976,3.556,0.976
	c2.394,0,4.726-1.229,6.032-3.438c17.028-28.799,21.432-41.337,26.181-74.532C290.463,296.443,287.805,292.897,283.977,292.35z
	 M65.216,361.617c0.475,0.098,0.949,0.145,1.416,0.145c3.253,0,6.169-2.281,6.85-5.593c11.658-56.765,11.658-225.74,0-282.506
	c-0.778-3.787-4.48-6.227-8.265-5.448c-3.787,0.777-6.227,4.478-5.449,8.265c11.16,54.34,11.16,222.534,0,276.873
	C58.989,357.14,61.429,360.84,65.216,361.617z M155.159,380.525c-37.642,0-75.135-2.651-111.521-7.882
	c-11.835-66.432-11.879-247.426-0.131-314.707c0.02-0.002,0.04-0.005,0.06-0.008c61.316-7.102,122.941-8.652,188.392-4.745
	c3.858,0.244,7.174-2.712,7.405-6.57s-2.711-7.174-6.57-7.404c-63.536-3.796-123.538-2.505-183.134,3.95V21.693
	C84.107,16.587,119.567,14,155.159,14c35.59,0,71.049,2.587,105.5,7.693v29.294c0,3.579,2.686,6.53,6.151,6.949
	c0.77,4.407,1.501,9.373,2.186,14.833c0.481,3.836,3.969,6.559,7.816,6.075c3.836-0.48,6.556-3.979,6.075-7.815
	c-1.034-8.247-2.181-15.464-3.411-21.45c-0.527-2.563-2.416-4.558-4.818-5.289V15.681c0-3.446-2.509-6.38-5.914-6.915
	C231.729,2.949,193.513,0,155.159,0C116.802,0,78.586,2.949,41.573,8.766c-3.405,0.535-5.914,3.469-5.914,6.915V44.29
	c-2.403,0.73-4.292,2.725-4.819,5.289c-13.645,66.442-13.646,264.229-0.001,330.674c0.59,2.875,2.912,5.077,5.815,5.514
	c38.604,5.812,78.475,8.759,118.504,8.759c3.866,0,7-3.134,7-7S159.025,380.525,155.159,380.525z M357.385,155.587
	c0.679,8.554-3.11,18.113-10.668,26.916c-9.13,10.631-21.833,17.994-32.364,18.759c-1.156,0.084-2.31,0.126-3.456,0.126
	c-8.38,0-16.419-2.223-22.945-6.391c-18-11.492-24.536-17.76-36.808-35.296c-5.041-7.202-7.661-16.475-7.376-26.107
	c0.313-10.599,7.17-23.645,17.468-33.237c8.456-7.875,17.818-12.007,26.354-11.664c8.827,0.366,17.063,5.305,22.596,13.548l0,0.001
	c10.906,16.25,16.322,20.676,32.982,31.139C351.502,138.615,356.682,146.709,357.385,155.587z M343.429,156.692
	c-0.355-4.49-3.092-8.559-7.706-11.458c-18.419-11.567-25.119-17.25-37.16-35.192l0,0.001c-3.064-4.566-7.167-7.181-11.552-7.362
	c-0.149-0.007-0.3-0.01-0.452-0.01c-4.626,0-10.345,2.867-15.781,7.931c-7.462,6.95-12.814,16.575-13.016,23.406
	c-0.197,6.642,1.526,12.915,4.852,17.665c11.211,16.021,16.434,21.029,32.873,31.524c4.893,3.125,11.231,4.571,17.852,4.102
	c6.785-0.493,16.143-6.216,22.756-13.917C341.132,167.517,343.805,161.434,343.429,156.692z M318.823,274.945
	c6.861,12.617,9.624,26.664,7.779,39.553c-4.749,33.193-9.154,45.732-26.183,74.533c-6.637,11.225-17.583,20.454-30.821,25.99
	c-6.029,2.521-13.367,3.761-21.285,3.761c-11.052,0-23.239-2.412-34.604-7.12c-15.931-6.598-27.312-16.586-32.046-28.124
	c-4.852-11.819-3.423-25.602,3.919-37.813c16.403-27.276,21.037-38.247,24.83-69.032v-0.001c1.785-14.48,8.938-25.907,20.143-32.174
	c10.829-6.06,25.874-6.77,42.363-2.006C293.291,248.4,311.31,261.131,318.823,274.945z M306.524,281.633
	c-5.636-10.363-21.055-20.92-37.495-25.671c-12.679-3.664-24.212-3.382-31.642,0.774c-7.211,4.033-11.857,11.729-13.083,21.668
	l0-0.001c-4.082,33.136-9.364,45.665-26.727,74.536c-5.114,8.505-6.167,17.483-2.965,25.283c3.261,7.946,12.173,15.42,24.452,20.506
	c15.738,6.517,34.296,7.906,45.131,3.377c10.475-4.38,19.059-11.554,24.172-20.2c16.03-27.112,19.903-38.137,24.375-69.39
	C314.164,302.589,311.955,291.621,306.524,281.633z M398.16,37.137c0.21,7.042-1.718,13.839-5.429,19.138
	c-8.571,12.245-13.136,16.622-25.708,24.649c-4.804,3.068-10.705,4.705-16.836,4.705c-0.836,0-1.675-0.03-2.518-0.092
	c-7.734-0.561-16.99-5.88-23.579-13.55c-5.542-6.453-8.315-13.547-7.806-19.975c0.538-6.761,4.447-12.898,10.724-16.843
	c11.213-7.045,14.57-9.788,21.811-20.576l0,0.001c4.169-6.213,10.422-9.937,17.156-10.217c6.424-0.261,13.369,2.767,19.57,8.542
	C392.979,19.843,397.93,29.348,398.16,37.137z M384.166,37.553c-0.102-3.469-2.938-9.523-8.161-14.388
	c-3.247-3.023-6.674-4.804-9.227-4.804c-0.074,0-0.147,0.002-0.22,0.005c-2.261,0.094-4.432,1.524-6.113,4.029c0,0,0,0,0,0.001
	c-8.37,12.47-13.317,16.668-25.987,24.628c-2.532,1.591-4.03,3.756-4.216,6.097c-0.206,2.602,1.465,6.245,4.47,9.744
	c4.628,5.388,10.532,8.459,13.973,8.709c4.033,0.292,7.871-0.575,10.805-2.449c11.009-7.03,14.265-10.152,21.773-20.88
	C383.257,45.398,384.287,41.602,384.166,37.553z M282.594,235.092c3.845,0,6.974-3.104,6.999-6.955
	c0.034-5.211,0.048-10.439,0.042-15.662c-0.004-3.863-3.138-6.992-7-6.992c-0.002,0-0.005,0-0.008,0
	c-3.866,0.004-6.997,3.142-6.992,7.008c0.006,5.188-0.008,10.381-0.042,15.556c-0.025,3.866,3.089,7.021,6.955,7.046
	C282.563,235.092,282.578,235.092,282.594,235.092z"/>
<g>
</g>
<g>
</g>
<g>
</g>
<g>
</g>
<g>
</g>
<g>
</g>
<g>
</g>
<g>
</g>
<g>
</g>
<g>
</g>
<g>
</g>
<g>
</g>
<g>
</g>
<g>
</g>
<g>
</g>
</svg>
