<?xml version="1.0" encoding="iso-8859-1"?>
<!-- Generator: Adobe Illustrator 17.1.0, SVG Export Plug-In . SVG Version: 6.00 Build 0)  -->
<!DOCTYPE svg PUBLIC "-//W3C//DTD SVG 1.1//EN" "http://www.w3.org/Graphics/SVG/1.1/DTD/svg11.dtd">
<svg version="1.1" id="Capa_1" xmlns="http://www.w3.org/2000/svg" xmlns:xlink="http://www.w3.org/1999/xlink" x="0px" y="0px"
	 viewBox="0 0 444.657 444.657" style="enable-background:new 0 0 444.657 444.657;" xml:space="preserve">
<path id="XMLID_419_" d="M235.728,163.136c-2.744,2.724-7.177,2.706-9.899-0.038c-15.087-15.205-35.19-23.578-56.604-23.578
	c-43.971,0-79.745,35.773-79.745,79.744c0,43.972,35.773,79.745,79.745,79.745c21.414,0,41.517-8.374,56.605-23.58
	c2.722-2.744,7.154-2.762,9.899-0.038c2.744,2.723,2.762,7.155,0.038,9.899c-17.737,17.875-41.369,27.719-66.543,27.719
	c-51.691,0-93.745-42.054-93.745-93.745c0-51.69,42.054-93.744,93.745-93.744c25.175,0,48.806,9.844,66.542,27.717
	C238.49,155.98,238.472,160.413,235.728,163.136z M383.617,410.604c0,18.776-15.277,34.053-34.055,34.053
	c-10.794,0-20.731-5.171-27.055-13.422c-6.322,8.251-16.259,13.422-27.054,13.422c-18.777,0-34.055-15.276-34.055-34.053V274.62
	c0-3.25,2.236-6.072,5.399-6.814c8.981-2.109,15.5-10.32,15.5-19.525c0-9.165-6.462-17.347-15.384-19.5
	c-0.907-0.196-1.749-0.568-2.488-1.078c-0.003-0.003-0.006-0.005-0.009-0.007c-0.001,0-0.002-0.001-0.003-0.001
	c-0.438-0.304-0.837-0.654-1.192-1.045c-1.112-1.222-1.799-2.84-1.822-4.616v-0.001c0,0,0-0.01-0.001-0.015v-0.007v-0.012v-0.011
	v-0.009v-0.014c0-0.002,0-0.005,0-0.005c0-0.01,0-0.017,0-0.023v-46.557c0-17.955,11.24-33.334,27.055-39.471v-33.792
	c0-3.866,3.134-7,7-7h54.108c3.866,0,7,3.134,7,7v33.791c15.813,6.137,27.055,21.517,27.055,39.472v46.557
	c0,3.249-2.235,6.071-5.398,6.814c-8.98,2.11-15.499,10.323-15.499,19.527s6.519,17.416,15.499,19.526
	c3.163,0.743,5.398,3.565,5.398,6.814v16.878c0,3.866-3.134,7-7,7s-7-3.134-7-7v-11.83c-12.382-5.256-20.897-17.672-20.897-31.388
	c0-13.717,8.516-26.135,20.897-31.391v-41.509c0-15.615-12.704-28.318-28.319-28.318h-37.578c-15.616,0-28.32,12.703-28.32,28.318
	v39.557h54.159c3.866,0,7,3.134,7,7s-3.134,7-7,7h-39.39c3.875,5.571,6.13,12.284,6.13,19.342c0,13.719-8.517,26.136-20.899,31.39
	v34.558h70.189c3.866,0,7,3.134,7,7s-3.134,7-7,7h-70.189v82.378c0,11.058,8.996,20.053,20.055,20.053
	c8.938,0,16.879-6.028,19.311-14.659c0.85-3.018,3.603-5.102,6.737-5.102h2.012c3.135,0,5.888,2.084,6.737,5.102
	c2.433,8.631,10.373,14.659,19.312,14.659c11.059,0,20.055-8.995,20.055-20.053c0-3.866,3.134-7,7-7
	S383.617,406.738,383.617,410.604z M302.454,133.081c0.42-0.013,0.843-0.019,1.266-0.019h37.578c0.423,0,0.845,0.006,1.265,0.019
	v-23.963h-13.054v5.036c0,3.866-3.134,7-7,7s-7-3.134-7-7v-5.036h-13.055V133.081z M243.189,396.095c0,3.866-3.134,7-7,7H42.915
	c-3.866,0-7-3.134-7-7V42.432c0-3.866,3.134-7,7-7h43.523V7c0-3.866,3.134-7,7-7h50.524c3.866,0,7,3.134,7,7v28.432h144.569
	c3.866,0,7,3.134,7,7v26.822c0,3.866-3.134,7-7,7s-7-3.134-7-7V49.432H49.915v339.663h186.274
	C240.055,389.095,243.189,392.229,243.189,396.095z M100.438,35.432h36.524V14H125.7v4.239c0,3.866-3.134,7-7,7s-7-3.134-7-7V14
	h-11.262V35.432z M170.18,212.264h-1.912c-3.866,0-7,3.134-7,7s3.134,7,7,7h1.912c3.866,0,7-3.134,7-7
	S174.046,212.264,170.18,212.264z M346.458,207.558c3.866,0,7-3.134,7-7v-18.793c0-11.722-9.536-21.258-21.257-21.258
	c-3.866,0-7,3.134-7,7s3.134,7,7,7c4.001,0,7.257,3.256,7.257,7.258v18.793C339.458,204.424,342.592,207.558,346.458,207.558z
	 M405.347,372.237c-5.548,10.841-16.557,17.575-28.73,17.575c-11.66,0-22.449-6.324-28.156-16.504
	c-10.635-18.976,2.01-33.664,13.165-46.623c3.208-3.727,6.525-7.58,9.275-11.47c1.313-1.854,3.443-2.958,5.716-2.958
	s4.403,1.104,5.716,2.958c2.749,3.888,6.062,7.734,9.266,11.454C402.499,339.324,414.852,353.667,405.347,372.237z M380.991,335.807
	c-1.45-1.684-2.921-3.391-4.373-5.138c-1.455,1.751-2.929,3.463-4.382,5.15c-11.116,12.913-17.134,20.703-11.563,30.644
	c3.232,5.767,9.342,9.35,15.943,9.35c6.893,0,13.126-3.814,16.268-9.954C397.858,356.143,391.918,348.492,380.991,335.807z
	 M225.257,187.41c5.365,9.401,8.434,20.276,8.434,31.854s-3.068,22.452-8.433,31.854c-0.064,0.128-0.133,0.255-0.205,0.38
	c-0.077,0.134-0.157,0.264-0.242,0.39c-11.217,19.038-31.935,31.843-55.586,31.843c-23.649,0-44.365-12.802-55.583-31.837
	c-0.085-0.128-0.167-0.26-0.246-0.396c-0.074-0.128-0.143-0.256-0.208-0.387c-5.363-9.399-8.43-20.271-8.43-31.847
	s3.067-22.447,8.43-31.848c0.065-0.13,0.134-0.259,0.208-0.386c0.078-0.136,0.16-0.268,0.246-0.396
	c11.218-19.035,31.935-31.837,55.583-31.837c23.653,0,44.37,12.802,55.587,31.843c0.084,0.126,0.164,0.257,0.241,0.39
	C225.125,187.155,225.193,187.282,225.257,187.41z M219.69,219.264c0-6.69-1.309-13.08-3.683-18.928l-23.374,13.495
	c-3.346,1.932-7.629,0.787-9.562-2.563c-1.933-3.348-0.786-7.629,2.562-9.563l23.355-13.484
	c-7.884-10.077-19.507-17.093-32.764-18.94v26.995c0,3.866-3.134,7-7,7c-3.866,0-7-3.134-7-7v-26.995
	c-13.257,1.848-24.88,8.864-32.765,18.941l23.355,13.483c3.348,1.934,4.495,6.215,2.562,9.563c-1.934,3.349-6.215,4.492-9.562,2.563
	l-23.374-13.495c-2.375,5.848-3.683,12.237-3.683,18.928s1.309,13.08,3.683,18.928l23.374-13.495c3.348-1.93,7.63-0.786,9.562,2.563
	c1.933,3.348,0.786,7.629-2.562,9.563l-23.355,13.483c7.884,10.078,19.508,17.094,32.765,18.941v-26.995c0-3.866,3.134-7,7-7
	c3.866,0,7,3.134,7,7v26.995c13.257-1.848,24.88-8.863,32.764-18.94l-23.355-13.484c-3.348-1.934-4.495-6.215-2.562-9.563
	c1.933-3.35,6.214-4.493,9.562-2.563l23.374,13.495C218.382,232.344,219.69,225.954,219.69,219.264z"/>
<g>
</g>
<g>
</g>
<g>
</g>
<g>
</g>
<g>
</g>
<g>
</g>
<g>
</g>
<g>
</g>
<g>
</g>
<g>
</g>
<g>
</g>
<g>
</g>
<g>
</g>
<g>
</g>
<g>
</g>
</svg>
