<?xml version="1.0" encoding="iso-8859-1"?>
<!-- Generator: Adobe Illustrator 17.1.0, SVG Export Plug-In . SVG Version: 6.00 Build 0)  -->
<!DOCTYPE svg PUBLIC "-//W3C//DTD SVG 1.1//EN" "http://www.w3.org/Graphics/SVG/1.1/DTD/svg11.dtd">
<svg version="1.1" id="Capa_1" xmlns="http://www.w3.org/2000/svg" xmlns:xlink="http://www.w3.org/1999/xlink" x="0px" y="0px"
	 viewBox="0 0 429.908 429.908" style="enable-background:new 0 0 429.908 429.908;" xml:space="preserve">
<path id="XMLID_1314_" d="M272.111,146.147v2.102c0,3.866-3.134,7-7,7s-7-3.134-7-7v-2.102c0-3.866,3.134-7,7-7
	S272.111,142.282,272.111,146.147z M294.169,155.225c3.856-0.273,6.761-3.621,6.488-7.477l-0.148-2.096
	c-0.273-3.856-3.616-6.765-7.477-6.488c-3.856,0.273-6.761,3.621-6.488,7.477l0.148,2.096c0.261,3.688,3.334,6.506,6.975,6.506
	C293.833,155.244,294.001,155.238,294.169,155.225z M353.448,90.096v27.695c0,3.866-3.134,7-7,7h-11.302L304.15,320.217
	c-0.606,3.818-4.196,6.422-8.01,5.817c-3.818-0.605-6.422-4.192-5.817-8.01l30.649-193.232H132.929l13.789,86.937l102.214,119.136
	c5.354-2.862,11.432-4.147,17.655-3.673c8.612,0.659,16.436,4.611,22.028,11.131l32.899,38.346
	c5.593,6.519,8.311,14.852,7.652,23.463c-0.659,8.612-4.612,16.435-11.132,22.028c-5.878,5.043-13.232,7.75-20.935,7.75
	c-0.839,0-1.682-0.032-2.528-0.097c-8.611-0.658-16.435-4.611-22.028-11.131l-32.899-38.344
	c-10.017-11.677-10.203-28.522-1.336-40.354l-87.407-101.877l19.639,123.821h36.054c3.866,0,7,3.134,7,7s-3.134,7-7,7h-35.031
	v13.695h58.39c3.866,0,7,3.134,7,7s-3.134,7-7,7h-65.39c-3.866,0-7-3.134-7-7v-27.144l-24.052-151.642l-55.365-64.531
	c-2.518-2.934-2.18-7.354,0.754-9.871c2.933-2.517,7.354-2.18,9.871,0.754l40.556,47.271l-10.574-66.668h-11.302
	c-3.866,0-7-3.134-7-7V90.096c0-3.866,3.134-7,7-7h16.141c-0.029-0.836-0.043-1.671-0.043-2.502c0-9.259,1.707-18.39,5.073-27.139
	c1.165-3.027,4.257-4.86,7.47-4.423c7.104,0.959,14.377,1.446,21.616,1.446c44.759,0,85.833-18.888,102.209-47
	c1.419-2.437,4.119-3.734,6.819-3.435c0.004,0,0.007,0,0.012,0.001c0.458,0.051,0.915,0.149,1.365,0.294c0,0,0.001,0,0.002,0
	c0.094,0.03,0.187,0.063,0.279,0.097c37.635,13.92,61.954,45.384,61.954,80.159c0,0.831-0.014,1.666-0.043,2.502h16.142
	C350.315,83.096,353.448,86.23,353.448,90.096z M250.271,371.221l32.899,38.344c6.557,7.642,18.107,8.525,25.75,1.969
	c7.642-6.557,8.526-18.108,1.97-25.75l-32.9-38.346c-3.158-3.681-7.586-5.914-12.469-6.287c-4.874-0.372-9.586,1.156-13.264,4.304
	c-0.006,0.005-0.011,0.01-0.017,0.015c-0.029,0.025-0.059,0.05-0.088,0.075C244.591,352.114,243.74,363.607,250.271,371.221z
	 M137.551,80.594c0,0.83,0.018,1.665,0.053,2.502h178.693c0.035-0.837,0.053-1.672,0.053-2.502c0-24.145-14.518-46.51-38.056-60.119
	c0.917,5.867,0.694,11.924-0.713,17.895c-2.851,12.096-10.207,22.336-20.713,28.835c-3.288,2.033-7.603,1.017-9.635-2.271
	c-2.034-3.288-1.017-7.602,2.271-9.635c7.326-4.531,12.458-11.684,14.451-20.14c1.071-4.546,1.163-9.161,0.313-13.595
	C242.323,47.976,202.15,64.478,157.71,64.478c-5.921,0-11.865-0.3-17.738-0.894C138.364,69.138,137.551,74.839,137.551,80.594z
	 M339.448,97.096h-16.656c-0.071,0.001-0.142,0.001-0.213,0H131.32c-0.07,0.001-0.141,0.001-0.211,0h-16.656v13.695H329.17h10.279
	V97.096z M278.717,184.821c0.001,0,0.002,0,0.003,0c3.866-0.002,6.999-3.137,6.997-7.003l-0.001-2.096
	c-0.002-3.865-3.135-6.997-7-6.997c-0.001,0-0.002,0-0.003,0c-3.866,0.002-6.999,3.137-6.997,7.003l0.001,2.096
	C271.719,181.689,274.852,184.821,278.717,184.821z"/>
<g>
</g>
<g>
</g>
<g>
</g>
<g>
</g>
<g>
</g>
<g>
</g>
<g>
</g>
<g>
</g>
<g>
</g>
<g>
</g>
<g>
</g>
<g>
</g>
<g>
</g>
<g>
</g>
<g>
</g>
</svg>
