<?xml version="1.0" encoding="utf-8"?>
<!-- Generator: Adobe Illustrator 16.0.0, SVG Export Plug-In . SVG Version: 6.00 Build 0)  -->
<!DOCTYPE svg PUBLIC "-//W3C//DTD SVG 1.1//EN" "http://www.w3.org/Graphics/SVG/1.1/DTD/svg11.dtd">
<svg version="1.1" id="Capa_1" xmlns="http://www.w3.org/2000/svg" xmlns:xlink="http://www.w3.org/1999/xlink" x="0px" y="0px"
	 width="310px" height="230px" viewBox="0 0 310 230" enable-background="new 0 0 310 230" xml:space="preserve">
<g>
	<path fill-rule="evenodd" clip-rule="evenodd" fill="#010101" d="M253.687,92.238c-3.719-7.24-8.394-11.753-10.154-13.314
		c-7.823-20.696-27.958-45.542-79.329-48.293c-21.395-1.143-50.741-0.104-75.856,10.027c0.688,0.302,1.318,0.722,1.854,1.248
		c0.642,0.209,1.259,0.513,1.819,0.933c1.143,0.349,2.146,0.991,2.926,1.841c0.082,0.013,0.163,0.036,0.233,0.047
		c3.662-1.282,7.404-2.389,11.182-3.333c8.954,1.748,17.512,4.477,25.557,8.161c-4.443,1.796-8.442,3.661-11.975,5.469
		c-5.841-3.113-13.443-6.202-20.357-8.256c0.455,0.234,0.886,0.537,1.294,0.886c0.35,0.175,0.688,0.373,1.015,0.619
		c0.874,0.268,1.713,0.711,2.436,1.352c0.187,0.093,0.374,0.198,0.56,0.303c0.933,0.373,1.749,0.957,2.414,1.691l0.933,0.455
		c0.198,0.104,0.408,0.209,0.594,0.326c0.35,0.14,0.676,0.303,0.991,0.489l0.14,0.059c0.792,0.07,1.585,0.291,2.344,0.665
		l0.571,0.291l1.038,0.351l2.962,0.979c0.163,0.059,0.314,0.116,0.478,0.186c0.793,0.07,1.597,0.292,2.355,0.666l0.594,0.302h-1.049
		c1.551,0,3.089,0.537,4.326,1.633c0.186,0.094,0.373,0.198,0.56,0.302c0.338,0.141,0.664,0.304,0.991,0.502
		c0.501,0.198,0.991,0.466,1.434,0.793c0.362,0.115,0.688,0.244,1.026,0.408c-0.466-0.362-0.933-0.723-1.399-1.072
		c4.045-1.936,8.476-3.836,13.268-5.597c9.899,5.597,18.712,13.863,27.411,25.849c1.062-0.211,2.204-0.152,3.312,0.222l1.48,0.489
		c0.466,0.151,0.921,0.362,1.329,0.618c0.805,0.315,1.563,0.805,2.216,1.458l0.233,0.233c0.629,0.303,1.212,0.723,1.736,1.249
		l0.374,0.373c-9.724-15.216-19.46-25.802-30.408-33.078c4.546-1.41,9.385-2.658,14.493-3.707
		c17.092,10.307,29.812,22.992,38.767,38.672c-3.848,1.015-7.648,2.065-11.391,3.148c1.574,1.563,2.238,3.813,1.783,5.97
		c4.139-1.201,8.348-2.355,12.604-3.463c0.77,1.517,1.494,3.008,2.181,4.489c1.947-0.805,4.256-0.666,6.146,0.595l1.374,0.92
		c-1.072-2.472-2.238-4.989-3.497-7.554c4.385-1.05,8.779-2.029,13.175-2.915c3.357,7.579,5.981,14.597,8.022,21.069
		c1.456-1.68,3.671-2.507,5.875-2.181c-1.982-6.25-4.487-12.931-7.613-20.078c3.648-0.653,7.274-1.212,10.845-1.679
		c3.403,3.113,14.362,14.75,12.463,33.625c2.237-0.385,4.512,0.396,6.027,2.111C259.913,107.932,256.929,98.546,253.687,92.238
		L253.687,92.238z M253.011,153.846h-3.941c-0.733,0-1.434-0.128-2.086-0.35c-1.517,3.194-3.417,6.4-5.689,9.491
		c0.78-3.149,1.422-6.764,1.784-10.878c-0.129-0.06-0.246-0.129-0.374-0.211c-0.351-0.14-0.677-0.304-0.992-0.489
		c-0.512-0.21-1.002-0.479-1.445-0.805c-0.397-0.116-0.781-0.28-1.131-0.466l-0.885-0.443c-0.455-0.222-0.875-0.501-1.249-0.806
		c-0.104,2.087-0.279,4-0.512,5.749c-1.739,13.022-6.507,19.553-7.345,20.603c-1.772,1.316-3.626,2.542-5.574,3.637
		c-1.831,1.026-3.708,2.076-5.608,3.113c1.972-4.675,4.046-11.029,5.317-18.958c0.396-2.483,0.711-5.211,0.92-8.162
		c4.337-2.028,8.384-4.231,12.137-6.61l-0.022-0.023c-1.947-0.955-3.357-2.869-3.604-5.118c-2.669,1.668-5.432,3.207-8.277,4.629
		c-0.012-2.483-0.104-5.096-0.313-7.811c-2.018,0.908-4.409,0.745-6.297-0.502c0.351,4.011,0.433,7.765,0.338,11.215
		c-6.202,2.659-12.662,4.839-19.109,6.61c1.224-15.109-0.933-34.218-11.531-55.893c-0.116,0.362-0.245,0.735-0.372,1.119
		c-0.374,1.108-1.003,2.041-1.808,2.775c-0.093,0.175-0.187,0.362-0.292,0.537c-0.14,0.338-0.303,0.664-0.501,0.991
		c-0.187,0.466-0.432,0.921-0.723,1.329c7.718,17.209,10.691,34.197,8.85,50.764c-6.938,1.646-13.759,2.846-20.171,3.732
		c0.21-9.293-0.746-20.008-3.73-31.958c-1.399,1.759-3.592,2.658-5.83,2.414c2.763,11.401,3.591,21.568,3.312,30.336
		c-11.019,1.235-20.288,1.55-25.896,1.609c2.355-4.792,4.431-12.941,1.644-25.253c-0.746-3.289-1.608-6.216-2.542-8.826
		c-0.886,0.441-1.877,0.699-2.926,0.699c-1.527,0-2.927-0.526-4.035-1.4c1.26,2.997,2.449,6.589,3.417,10.901
		c3.976,17.583-3.208,24.333-3.486,24.591c-1.131,0.968-1.411,2.61-0.677,3.916c0.362,0.618,8.559,15.379-0.594,30.232
		c-3.125,5.096-7.357,7.567-12.941,7.567c-6.471,0-12.313-3.428-12.359-3.463c-1.422-0.852-3.218-0.49-4.15,0.874
		c-0.164,0.21-4.023,5.271-15.309,5.271l0,0c-3.369,0-7.065-0.455-11.018-1.363c-8.068-1.843-13.35-11.228-13.396-11.31
		c-0.572-1.063-1.516-1.726-2.577-1.726c-0.349,0-1.516,0.337-2.402,0.209c-2.087-0.326-6.424-1.528-13.117-7.101
		c-10.05-8.371-7.928-23.994-7.905-24.145c0.187-1.272-0.442-2.543-1.562-3.185c-0.478-0.255-11.531-6.716-13.862-25.301
		c-2.286-18.34,6.797-25.767,7.158-26.058c0.921-0.699,1.376-1.854,1.189-2.984c-0.023-0.14-2.25-14.341,4.606-24.053
		c0.991-1.388,2.086-2.564,3.229-3.568c-1.913-1.003-3.264-2.95-3.462-5.223c-1.727,1.41-3.382,3.113-4.851,5.2
		c-6.879,9.734-6.354,22.384-5.888,26.955c-3.171,3.23-10.388,12.732-8.161,30.501c2.181,17.454,11.321,25.93,15.239,28.81
		c-0.35,5.2-0.163,19.133,10.284,27.842c8.348,6.949,14.212,8.535,17.71,8.594c2.273,3.416,7.985,10.703,16.37,12.614
		c4.628,1.061,9.467,1.691,14.224,1.481c10.832,4.382,21.873,5.98,31.865,5.98c15.542,0,28.53-3.858,34.173-7.111
		c1.958,0.244,5.561-0.129,12.475-2.903c4.127-1.645,9.888-4.419,13.339-7.113c8.487-0.989,22.175-7.136,46.567-20.857
		c11.75-6.61,21.814-18.071,27.06-30.501C253.466,153.835,253.243,153.846,253.011,153.846L253.011,153.846z M208.31,187.202
		c-8.068,4.221-15.984,7.987-22.246,10.099c3.276-5.293,7.473-13.491,10.295-24.182c0.735-2.787,1.389-5.842,1.901-9.13
		c6.959-1.796,13.442-3.894,19.435-6.307c-0.151,1.388-0.315,2.728-0.513,3.987C214.955,176.068,209.744,184.976,208.31,187.202
		L208.31,187.202z M151.879,209.135c-7.381,2.343-15.321,2.365-22.515,1.421c2.764-1.761,5.166-4.231,7.112-7.402
		c7.824-12.72,5.2-25.278,2.798-31.877c5.457-0.012,14.982-0.244,26.572-1.493c-0.444,4.524-1.165,8.606-2.006,12.184
		C160.238,197.219,153.733,206.661,151.879,209.135L151.879,209.135z M144.836,40.228c2.472,0.792,5.084,1.632,7.602,2.552
		c-4.431,1.132-8.593,2.402-12.499,3.754c-6.133-3.206-12.58-5.864-19.296-7.951c5.037-0.758,10.039-1.27,14.935-1.597
		C138.214,38.093,141.432,39.131,144.836,40.228L144.836,40.228z M184.548,44.109c11.438,6.728,25.404,17.011,35.503,37.007
		c-4.466,0.921-8.955,1.936-13.409,3.031c-8.487-15.436-20.275-28.168-35.887-38.672C175.186,44.833,179.779,44.366,184.548,44.109
		L184.548,44.109z M236.512,78.225c-3.335,0.478-6.714,1.026-10.108,1.654c-5.177-10.807-13.453-23.877-30.709-36.003
		c1.305,0.024,2.623,0.047,3.952,0.093C220.424,52.107,231.081,65.702,236.512,78.225L236.512,78.225z M178.124,38.327
		c-5.376,0.489-10.494,1.235-15.367,2.156c-2.775-1.517-6.016-2.81-9.305-3.964c3.638,0.047,7.124,0.163,10.411,0.338
		C168.936,37.126,173.682,37.627,178.124,38.327L178.124,38.327z M100.007,213.611c2.18-1.026,3.778-2.169,4.873-3.124
		c1.598,0.746,3.965,1.7,6.751,2.366c3.299,1.095,7.368,2.239,11.88,3.113C116.819,216.211,108.635,215.78,100.007,213.611
		L100.007,213.611z M160.087,208.061c3.008-4.989,7.053-13.174,9.724-24.286c1.037-4.278,1.89-9.222,2.355-14.76
		c6.553-0.874,13.059-2.006,19.506-3.439c-0.362,1.889-0.781,3.778-1.271,5.654c-3.521,13.572-10.411,24.136-13.666,28.611
		C173.401,202.733,165.508,206.359,160.087,208.061L160.087,208.061z"/>
	<path fill="#010101" d="M50.397,134.235c4.08,0,7.8,1.388,10.517,3.638c2.81,2.331,4.547,5.584,4.547,9.188
		c0,3.614-1.737,6.867-4.547,9.198c-2.716,2.25-6.437,3.638-10.517,3.638c-4.069,0-7.789-1.388-10.505-3.638
		c-2.81-2.331-4.547-5.584-4.547-9.198c0-3.604,1.737-6.856,4.547-9.188C42.608,135.623,46.328,134.235,50.397,134.235
		L50.397,134.235z M58.395,140.904c-2.028-1.679-4.85-2.728-7.998-2.728c-3.136,0-5.969,1.049-7.986,2.728
		c-1.924,1.598-3.113,3.777-3.113,6.156c0,2.39,1.189,4.57,3.113,6.168c2.017,1.678,4.85,2.716,7.986,2.716
		c3.147,0,5.97-1.038,7.998-2.716c1.924-1.598,3.113-3.778,3.113-6.168C61.508,144.682,60.318,142.502,58.395,140.904
		L58.395,140.904z"/>
	<path fill="#010101" d="M74.834,166.811c2.519,0,4.769,1.179,6.389,3.091c1.54,1.808,2.496,4.302,2.496,7.029
		c0,2.729-0.956,5.212-2.496,7.032c-1.62,1.898-3.87,3.077-6.389,3.077c-2.518,0-4.769-1.179-6.39-3.077
		c-1.538-1.82-2.495-4.303-2.495-7.032c0-2.728,0.957-5.222,2.495-7.029C70.066,167.989,72.316,166.811,74.834,166.811
		L74.834,166.811z M78.216,172.442c-0.886-1.038-2.076-1.69-3.381-1.69c-1.306,0-2.495,0.652-3.381,1.69
		c-0.957,1.131-1.551,2.717-1.551,4.488c0,1.761,0.594,3.347,1.551,4.478c0.886,1.049,2.075,1.691,3.381,1.691
		c1.306,0,2.495-0.643,3.381-1.691c0.956-1.131,1.55-2.717,1.55-4.478C79.766,175.159,79.172,173.573,78.216,172.442L78.216,172.442
		z"/>
	<path fill="#010101" d="M116.05,163.349c2.087,0,3.859,1.399,5.06,3.66c0.991,1.877,1.598,4.432,1.598,7.206
		c0,2.773-0.606,5.316-1.598,7.193c-1.201,2.262-2.973,3.661-5.06,3.661s-3.871-1.399-5.061-3.661
		c-0.991-1.877-1.608-4.42-1.608-7.193c0-2.774,0.617-5.329,1.608-7.206C112.179,164.748,113.963,163.349,116.05,163.349
		L116.05,163.349z M117.624,168.852c-0.513-0.955-1.073-1.551-1.574-1.551c-0.513,0-1.072,0.596-1.574,1.551
		c-0.711,1.329-1.143,3.229-1.143,5.363c0,2.133,0.432,4.021,1.143,5.363c0.502,0.956,1.061,1.539,1.574,1.539
		c0.501,0,1.061-0.583,1.574-1.539c0.7-1.342,1.142-3.23,1.142-5.363C118.766,172.081,118.324,170.181,117.624,168.852
		L117.624,168.852z"/>
	<path fill="#010101" d="M90.877,191.983c2.005,0,3.859,0.652,5.223,1.725c1.493,1.166,2.425,2.822,2.425,4.688
		s-0.932,3.521-2.425,4.687c-1.364,1.073-3.218,1.726-5.223,1.726c-2.017,0-3.859-0.652-5.224-1.726
		c-1.504-1.166-2.425-2.821-2.425-4.687s0.921-3.521,2.425-4.688C87.019,192.636,88.86,191.983,90.877,191.983L90.877,191.983z
		 M93.676,196.811c-0.688-0.549-1.679-0.887-2.798-0.887c-1.119,0-2.11,0.338-2.81,0.887c-0.548,0.431-0.898,0.991-0.898,1.585
		c0,0.595,0.35,1.154,0.898,1.598c0.699,0.536,1.69,0.875,2.81,0.875c1.12,0,2.111-0.339,2.798-0.875
		c0.56-0.443,0.898-1.003,0.898-1.598C94.574,197.802,94.236,197.241,93.676,196.811L93.676,196.811z"/>
	<path fill="#010101" d="M46.456,168.782c1.458,0,2.763,0.629,3.708,1.643c0.909,0.979,1.469,2.321,1.469,3.79
		c0,1.468-0.56,2.798-1.469,3.777c-0.945,1.025-2.25,1.644-3.708,1.644c-1.457,0-2.774-0.618-3.708-1.644
		c-0.91-0.979-1.481-2.31-1.481-3.777c0-1.469,0.571-2.811,1.481-3.79C43.681,169.411,44.999,168.782,46.456,168.782L46.456,168.782
		z M47.284,173.107c-0.222-0.232-0.513-0.374-0.828-0.374c-0.315,0-0.605,0.142-0.828,0.374c-0.257,0.279-0.408,0.664-0.408,1.107
		c0,0.442,0.151,0.827,0.408,1.095c0.222,0.233,0.513,0.387,0.828,0.387c0.315,0,0.606-0.153,0.828-0.387
		c0.245-0.268,0.408-0.652,0.408-1.095C47.691,173.771,47.528,173.387,47.284,173.107L47.284,173.107z"/>
	<path fill-rule="evenodd" clip-rule="evenodd" fill="#010101" d="M297.841,152.121l7.462-15.974L200.159,87.026L39.822,12.116
		l-13.082,33.8l0,0l-1.435,3.708v0.011l-4.64,11.975c-1.072,2.414-1.107,4.967-0.104,7.729c2.051,5.668,8.534,12.172,19.739,19.915
		c12.697,8.791,30.675,18.504,50.601,27.376c18.562,8.242,79.667,33.694,87.968,15.366l6.285-13.279l0.955-2.018l0,0l1.552-3.3
		c4.396,6.973,12.44,17.478,24.892,25.721c1.05,0.606,26.131,14.959,49.96,19.507l0.607,0.069c0.488,0.035,4.827,0.605,6.039,8.488
		l0.268,1.771l1.445,1.038c0.396,0.291,4.07,2.763,9.435,1.364C286.774,169.68,292.665,163.195,297.841,152.121L297.841,152.121z
		 M171.151,128.498c-0.502,1.133-5.993,3.393-24.018-0.861c-14.551-3.428-33.299-10.087-52.781-18.749
		c-19.471-8.663-36.96-18.107-49.237-26.606C29.899,71.766,27.918,66.204,28.489,64.863l1.924-4.978
		c14.901,17.36,58.32,37.193,68.229,41.576c9.677,4.279,52.56,22.619,74.922,21.966l-2.366,4.99L171.151,128.498z M178.45,113.073
		l-0.607,1.283c-7.577,3.031-35.781-2.962-75.772-20.649C62.417,76.184,37.023,58.346,34.097,50.381l0.314-0.815l0.222-0.583l0,0
		l9.817-25.359l144.412,67.473L178.45,113.073L178.45,113.073L178.45,113.073z M277.017,163.324
		c-2.447-9.747-9.337-12.802-13.209-13.068c-22.327-4.339-46.777-18.33-46.801-18.341c-14.446-9.561-22.421-23.063-24.881-27.738
		l4.431-9.49l97.482,45.542l-3.869,8.3c-5.189,11.102-9.573,13.887-11.729,14.563C277.881,163.267,277.401,163.324,277.017,163.324
		L277.017,163.324z"/>
	<path fill-rule="evenodd" clip-rule="evenodd" fill="#010101" d="M213.951,118.04c3.173-1.154,4.816-4.664,3.663-7.846
		c-1.156-3.171-4.664-4.816-7.849-3.661c-3.171,1.154-4.813,4.663-3.66,7.847C207.26,117.55,210.769,119.195,213.951,118.04
		L213.951,118.04z"/>
	<path fill-rule="evenodd" clip-rule="evenodd" fill="#010101" d="M276.681,147.352c3.182-1.154,4.826-4.663,3.67-7.847
		c-1.152-3.182-4.674-4.814-7.845-3.661c-3.184,1.154-4.815,4.664-3.662,7.835C269.999,146.863,273.508,148.506,276.681,147.352
		L276.681,147.352z"/>
</g>
</svg>
