<?xml version="1.0" encoding="iso-8859-1"?>
<!-- Generator: Adobe Illustrator 17.1.0, SVG Export Plug-In . SVG Version: 6.00 Build 0)  -->
<!DOCTYPE svg PUBLIC "-//W3C//DTD SVG 1.1//EN" "http://www.w3.org/Graphics/SVG/1.1/DTD/svg11.dtd">
<svg version="1.1" id="Capa_1" xmlns="http://www.w3.org/2000/svg" xmlns:xlink="http://www.w3.org/1999/xlink" x="0px" y="0px"
	 viewBox="0 0 418.187 418.187" style="enable-background:new 0 0 418.187 418.187;" xml:space="preserve">
<path id="XMLID_1410_" d="M58.817,242.706c-2.529-2.924-2.208-7.345,0.716-9.874c2.926-2.528,7.346-2.208,9.874,0.716
	c4.508,5.212,10.291,9.183,16.722,11.481c3.641,1.301,5.537,5.307,4.236,8.948c-1.023,2.862-3.718,4.646-6.592,4.646
	c-0.782,0-1.577-0.132-2.356-0.41C72.717,255.104,64.902,249.741,58.817,242.706z M139.134,84.329
	c-2.923-2.527-7.345-2.207-9.874,0.717c-7.562,8.746-18.47,13.762-29.928,13.762c-11.457,0-22.364-5.016-29.925-13.762
	c-2.529-2.924-6.948-3.245-9.874-0.717c-2.924,2.529-3.246,6.949-0.717,9.874c10.223,11.824,24.991,18.605,40.517,18.605
	s30.294-6.781,40.518-18.605C142.38,91.278,142.059,86.858,139.134,84.329z M139.852,168.454c2.528-2.924,2.208-7.345-0.717-9.873
	c-2.924-2.528-7.345-2.208-9.874,0.717c-7.563,8.746-18.471,13.762-29.928,13.762c-11.456,0-22.363-5.016-29.926-13.762
	c-2.529-2.924-6.948-3.246-9.873-0.717c-2.925,2.528-3.246,6.949-0.717,9.873c10.223,11.825,24.991,18.606,40.517,18.606
	C114.86,187.06,129.628,180.278,139.852,168.454z M92.964,335.181c0.283,0.034,0.563,0.05,0.841,0.05
	c3.494,0,6.516-2.612,6.941-6.168c0.46-3.838-2.279-7.323-6.118-7.782c-9.756-1.168-18.713-5.956-25.221-13.481
	c-2.528-2.925-6.95-3.245-9.874-0.716c-2.924,2.529-3.245,6.949-0.716,9.874C67.611,327.125,79.737,333.597,92.964,335.181z
	 M110.678,403.026c-3.714,0.77-7.531,1.161-11.345,1.161c-30.963,0-56.154-25.191-56.154-56.154V70.154
	C43.179,39.19,68.37,14,99.334,14c30.963,0,56.153,25.19,56.153,56.154v109.669c0,3.866,3.134,7,7,7s7-3.134,7-7V70.154
	C169.487,31.471,138.016,0,99.333,0S29.179,31.471,29.179,70.154v277.878c0,38.683,31.471,70.154,70.155,70.154
	c4.765,0,9.538-0.488,14.186-1.452c3.786-0.785,6.218-4.49,5.434-8.275C118.168,404.674,114.466,402.243,110.678,403.026z
	 M370.83,163.409H189.386c-3.866,0-7,3.134-7,7s3.134,7,7,7H370.83c2.265,0,4.178,1.914,4.178,4.179v16.327
	c0,2.265-1.913,4.179-4.178,4.179h-4.612c-3.866,0-7,3.134-7,7v138.147c0,10.069-8.192,18.261-18.262,18.261c-3.866,0-7,3.134-7,7
	c0,3.866,3.134,7,7,7c17.789,0,32.262-14.472,32.262-32.261V215.937c8.898-1.173,15.79-8.808,15.79-18.022v-16.327
	C389.007,171.563,380.853,163.409,370.83,163.409z M209.822,246.565c-3.866,0-7,3.134-7,7v2.102c0,3.866,3.134,7,7,7
	c3.866,0,7-3.134,7-7v-2.102C216.822,249.699,213.688,246.565,209.822,246.565z M175.901,279.694c-3.866,0-7,3.134-7,7v2.101
	c0,3.866,3.134,7,7,7s7-3.134,7-7v-2.101C182.901,282.828,179.768,279.694,175.901,279.694z M334.935,236.599
	c0,9.214-6.892,16.849-15.791,18.021v131.305c0,17.789-14.472,32.261-32.261,32.261H160.575c-17.789,0-32.261-14.472-32.261-32.261
	V254.621c-8.9-1.172-15.791-8.807-15.791-18.021v-16.328c0-10.023,8.155-18.178,18.178-18.178h186.055
	c10.023,0,18.179,8.155,18.179,18.178V236.599z M320.935,220.271c0-2.265-1.914-4.178-4.179-4.178H130.701
	c-2.265,0-4.178,1.914-4.178,4.178v16.328c0,2.265,1.914,4.178,4.178,4.178h4.613c3.866,0,7,3.134,7,7v138.148
	c0,10.069,8.192,18.261,18.261,18.261h126.308c10.069,0,18.261-8.192,18.261-18.261V247.777c0-3.866,3.134-7,7-7h4.612
	c2.265,0,4.179-1.913,4.179-4.178V220.271z M175.901,246.565c-3.866,0-7,3.134-7,7v2.102c0,3.866,3.134,7,7,7s7-3.134,7-7v-2.102
	C182.901,249.699,179.768,246.565,175.901,246.565z"/>
<g>
</g>
<g>
</g>
<g>
</g>
<g>
</g>
<g>
</g>
<g>
</g>
<g>
</g>
<g>
</g>
<g>
</g>
<g>
</g>
<g>
</g>
<g>
</g>
<g>
</g>
<g>
</g>
<g>
</g>
</svg>
