<?xml version="1.0" encoding="iso-8859-1"?>
<!-- Generator: Adobe Illustrator 17.1.0, SVG Export Plug-In . SVG Version: 6.00 Build 0)  -->
<!DOCTYPE svg PUBLIC "-//W3C//DTD SVG 1.1//EN" "http://www.w3.org/Graphics/SVG/1.1/DTD/svg11.dtd">
<svg version="1.1" id="Capa_1" xmlns="http://www.w3.org/2000/svg" xmlns:xlink="http://www.w3.org/1999/xlink" x="0px" y="0px"
	 viewBox="0 0 417.628 417.628" style="enable-background:new 0 0 417.628 417.628;" xml:space="preserve">
<path id="XMLID_470_" d="M398.521,256.25h-58.627l60.479-86.374c2.217-3.167,1.447-7.531-1.72-9.749
	c-3.165-2.216-7.53-1.448-9.749,1.72l-66.101,94.403h-138.89c-3.866,0-7,3.134-7,7v56.659c0,53.883,43.837,97.72,97.721,97.72
	h33.168c53.882,0,97.719-43.837,97.719-97.72V263.25C405.521,259.383,402.388,256.25,398.521,256.25z M391.521,319.909
	c0,46.163-37.556,83.72-83.719,83.72h-33.168c-46.164,0-83.721-37.557-83.721-83.72V270.25h200.608V319.909z M197.709,203.45
	c2.171,1.047,4.725,0.904,6.764-0.376c2.04-1.281,3.278-3.521,3.278-5.929v-42c13.091-6.576,22.636-19.379,24.519-34.766
	c0.069-0.564,0.069-1.135,0-1.699c-1.883-15.387-11.428-28.19-24.519-34.767V48.915h82.204v182.209c0,3.866,3.134,7,7,7s7-3.134,7-7
	V44.814l32.866-32.864c2.733-2.734,2.733-7.166,0-9.899c-2.733-2.732-7.166-2.733-9.899-0.001l-32.866,32.865H56.922L24.057,2.049
	c-2.733-2.732-7.166-2.732-9.899,0c-2.734,2.734-2.734,7.166,0,9.9l32.865,32.864v337.207c0,3.866,3.134,7,7,7h113.093
	c3.866,0,7-3.134,7-7s-3.134-7-7-7H61.023V48.915h82.205v35c-13.091,6.576-22.635,19.379-24.518,34.766
	c-0.069,0.564-0.069,1.135,0,1.699c1.882,15.387,11.427,28.188,24.518,34.765v42.001c0,2.408,1.238,4.647,3.278,5.929
	c2.04,1.279,4.594,1.422,6.764,0.376l22.22-10.721L197.709,203.45z M157.227,48.915h36.523v30.65
	c-2.01-0.276-4.06-0.419-6.138-0.419h-24.245c-2.08,0-4.129,0.143-6.14,0.419V48.915z M153.016,144.132
	c-0.237-0.104-0.48-0.193-0.73-0.271c-10.179-3.91-17.87-13.056-19.564-24.332c1.693-11.271,9.379-20.415,19.552-24.328
	c0.258-0.079,4.207-2.056,11.093-2.056h24.245c5.952,0,10.836,1.978,11.099,2.058c10.17,3.914,17.853,13.057,19.545,24.326
	c-1.693,11.273-9.382,20.418-19.557,24.33c-0.255,0.078-0.503,0.17-0.745,0.275c-3.245,1.152-6.73,1.777-10.342,1.777h-24.245
	C159.751,145.913,156.264,145.287,153.016,144.132z M157.227,185.996v-26.502c2.011,0.276,4.061,0.419,6.14,0.419h24.245
	c2.079,0,4.128-0.143,6.138-0.419v26.502l-15.219-7.344c-1.922-0.928-4.162-0.928-6.084,0L157.227,185.996z M159.667,288.994
	c0,3.866-3.134,7-7,7h-2.1c-3.866,0-7-3.134-7-7s3.134-7,7-7h2.1C156.533,281.994,159.667,285.127,159.667,288.994z M115.003,261.69
	c0,3.866-3.134,7-7,7h-2.101c-3.866,0-7-3.134-7-7s3.134-7,7-7h2.101C111.869,254.69,115.003,257.824,115.003,261.69z
	 M159.667,343.601c0,3.866-3.134,7-7,7h-2.1c-3.866,0-7-3.134-7-7s3.134-7,7-7h2.1C156.533,336.601,159.667,339.735,159.667,343.601
	z M96.553,288.994c0,3.866-3.134,7-7,7h-2.102c-3.866,0-7-3.134-7-7s3.134-7,7-7h2.102
	C93.419,281.994,96.553,285.127,96.553,288.994z M132.117,323.297c-3.866,0-7-3.134-7-7s3.134-7,7-7h2.102c3.866,0,7,3.134,7,7
	s-3.134,7-7,7H132.117z M295.404,378.142c0-3.866,3.134-7,7-7c29.882,0,54.192-24.311,54.192-54.192c0-3.866,3.134-7,7-7
	s7,3.134,7,7c0,37.602-30.591,68.192-68.192,68.192C298.538,385.142,295.404,382.008,295.404,378.142z M112.009,288.994
	c0-3.866,3.134-7,7-7h2.102c3.866,0,7,3.134,7,7s-3.134,7-7,7h-2.102C115.143,295.994,112.009,292.86,112.009,288.994z
	 M96.553,343.601c0,3.866-3.134,7-7,7h-2.102c-3.866,0-7-3.134-7-7s3.134-7,7-7h2.102C93.419,336.601,96.553,339.735,96.553,343.601
	z M112.009,343.601c0-3.866,3.134-7,7-7h2.102c3.866,0,7,3.134,7,7s-3.134,7-7,7h-2.102
	C115.143,350.601,112.009,347.467,112.009,343.601z M98.902,316.297c0-3.866,3.134-7,7-7h2.101c3.866,0,7,3.134,7,7s-3.134,7-7,7
	h-2.101C102.036,323.297,98.902,320.164,98.902,316.297z"/>
<g>
</g>
<g>
</g>
<g>
</g>
<g>
</g>
<g>
</g>
<g>
</g>
<g>
</g>
<g>
</g>
<g>
</g>
<g>
</g>
<g>
</g>
<g>
</g>
<g>
</g>
<g>
</g>
<g>
</g>
</svg>
