<?xml version="1.0" encoding="iso-8859-1"?>
<!-- Generator: Adobe Illustrator 17.1.0, SVG Export Plug-In . SVG Version: 6.00 Build 0)  -->
<!DOCTYPE svg PUBLIC "-//W3C//DTD SVG 1.1//EN" "http://www.w3.org/Graphics/SVG/1.1/DTD/svg11.dtd">
<svg version="1.1" id="Capa_1" xmlns="http://www.w3.org/2000/svg" xmlns:xlink="http://www.w3.org/1999/xlink" x="0px" y="0px"
	 viewBox="0 0 418.187 418.187" style="enable-background:new 0 0 418.187 418.187;" xml:space="preserve">
<path id="XMLID_1341_" d="M352.363,157.965c2.356-3.065,6.751-3.641,9.815-1.286c9.409,7.229,17.116,16.134,22.906,26.465
	c1.89,3.372,0.688,7.639-2.684,9.529c-1.083,0.606-2.258,0.895-3.416,0.895c-2.451,0-4.83-1.289-6.113-3.579
	c-4.858-8.668-11.326-16.14-19.223-22.208C350.584,165.425,350.008,161.03,352.363,157.965z M119.44,257.261
	c0-10.735,8.733-19.469,19.468-19.469h12.47c10.735,0,19.47,8.733,19.47,19.468c0,10.735-8.734,19.469-19.47,19.469h-12.47
	C128.174,276.729,119.44,267.996,119.44,257.261z M133.44,257.26c0,3.016,2.453,5.469,5.468,5.469h12.47
	c3.016,0,5.47-2.453,5.47-5.468c0-3.016-2.454-5.469-5.47-5.469h-12.47C135.894,251.792,133.44,254.245,133.44,257.26z
	 M191.339,407.669c0,3.866-3.134,7-7,7H88.57c-44.562,0-82.049-34.484-85.905-78.738c-0.149-0.568-0.322-13.008-0.412-18.543
	c-0.186-11.311-0.376-23.005,0.184-34.259v-50.691c0-0.426,0.038-0.843,0.11-1.248c-0.142-2.019-0.214-4.058-0.214-6.113
	c0-22.588,8.754-43.978,24.65-60.228c15.869-16.223,37.009-25.452,59.526-25.987c0.2-0.005,0.545-0.013,12.294-0.023
	c0.002,0,0.004,0,0.006,0c3.863,0,6.997,3.13,7,6.994c0.003,3.866-3.128,7.003-6.994,7.006c-9.345,0.008-11.685,0.015-12.002,0.02
	c-10.263,0.244-20.02,2.683-28.825,6.859c8.074,4.512,13.546,13.146,13.546,23.035c0,14.538-11.826,26.365-26.363,26.365H25.804
	c-2.542,0-5.028-0.358-7.409-1.058c-1.347,5.469-2.062,11.17-2.062,17.018c0,2.142,0.094,4.26,0.277,6.355
	c0.033,0.232,0.055,0.467,0.065,0.706c3.561,36.531,34.446,65.179,71.897,65.179h79.239c3.866,0,7,3.134,7,7s-3.134,7-7,7H88.573
	c-30.136,0-56.712-15.54-72.137-39.024v11.01c0,0.118-0.003,0.235-0.009,0.353c-0.548,10.842-0.359,22.362-0.177,33.502
	c0.084,5.182,0.258,16.24,0.275,16.489c2.713,37.582,34.358,67.021,72.044,67.021h95.769
	C188.205,400.669,191.339,403.803,191.339,407.669z M23.079,194.813c0.886,0.201,1.798,0.304,2.725,0.304h19.367
	c6.817,0,12.363-5.546,12.363-12.364c0-6.819-5.546-12.367-12.363-12.367h-3.55C33.837,177.098,27.475,185.426,23.079,194.813z
	 M96.642,208.125c0,3.866,3.134,7,7,7h11.183c3.866,0,7-3.134,7-7s-3.134-7-7-7h-11.183
	C99.775,201.125,96.642,204.258,96.642,208.125z M72.289,243.237c-3.866,0-7,3.134-7,7s3.134,7,7,7h2.089c3.866,0,7-3.134,7-7
	s-3.134-7-7-7H72.289z M186.027,86.921h-1.74c-3.866,0-7,3.134-7,7s3.134,7,7,7h1.74c3.866,0,7-3.134,7-7
	S189.894,86.921,186.027,86.921z M360.262,363.91c-3.866,0-7,3.134-7,7v2.102c0,3.866,3.134,7,7,7s7-3.134,7-7v-2.102
	C367.262,367.044,364.128,363.91,360.262,363.91z M358.6,259.393c3.866,0,7-3.134,7-7v-2.101c0-3.866-3.134-7-7-7s-7,3.134-7,7
	v2.101C351.6,256.258,354.733,259.393,358.6,259.393z M331.624,360.663c0,12.985-10.563,23.549-23.549,23.549
	c-12.984,0-23.549-10.564-23.549-23.549s10.564-23.549,23.549-23.549C321.061,337.114,331.624,347.678,331.624,360.663z
	 M317.624,360.663c0-5.265-4.283-9.549-9.549-9.549s-9.549,4.284-9.549,9.549s4.283,9.549,9.549,9.549
	S317.624,365.928,317.624,360.663z M245.089,44.229c0-9.584,7.796-17.381,17.379-17.381h10.384c9.584,0,17.382,7.797,17.382,17.381
	s-7.798,17.381-17.382,17.381h-10.384C252.885,61.611,245.089,53.813,245.089,44.229z M259.089,44.229
	c0,1.833,1.548,3.381,3.379,3.381h10.384c1.833,0,3.382-1.548,3.382-3.381s-1.549-3.381-3.382-3.381h-10.384
	C260.637,40.848,259.089,42.396,259.089,44.229z M390.86,335.401c0,10.069,8.191,18.261,18.261,18.261c3.866,0,7,3.134,7,7v50.524
	c0,3.866-3.134,7-7,7H232.289c-3.866,0-7-3.134-7-7c0-10.069-8.191-18.261-18.261-18.261c-3.866,0-7-3.134-7-7V209.093
	c0-3.866,3.134-7,7-7h33.975c3.866,0,7,3.134,7,7c0,5.266,4.283,9.549,9.549,9.549s9.549-4.284,9.549-9.549c0-3.866,3.134-7,7-7
	h135.021c3.866,0,7,3.134,7,7V310.14c0,3.866-3.134,7-7,7C399.052,317.14,390.86,325.332,390.86,335.401z M376.86,335.401
	c0-15.386,10.826-28.291,25.261-31.496v-87.812H280.039c-2.988,9.578-11.938,16.549-22.487,16.549s-19.499-6.971-22.487-16.549
	h-21.036V379.69c12.181,2.705,21.791,12.315,24.496,24.496h163.597v-37.289C387.687,363.692,376.86,350.787,376.86,335.401z
	 M267.517,99.768c0,9.584-7.798,17.382-17.382,17.382h-10.381c-9.584,0-17.382-7.797-17.382-17.382
	c0-9.583,7.798-17.38,17.382-17.38h10.381C259.719,82.387,267.517,90.184,267.517,99.768z M253.517,99.768
	c0-1.833-1.549-3.38-3.382-3.38h-10.381c-1.833,0-3.382,1.548-3.382,3.38c0,1.833,1.549,3.382,3.382,3.382h10.381
	C251.968,103.149,253.517,101.601,253.517,99.768z M226.7,58.859c0-3.866-3.134-7-7-7h-9.309c-3.866,0-7,3.134-7,7s3.134,7,7,7
	h9.309C223.566,65.859,226.7,62.725,226.7,58.859z M270.492,314.987c-17.789,0-32.261-14.472-32.261-32.261
	c0-17.789,14.472-32.262,32.261-32.262s32.262,14.473,32.262,32.262C302.754,300.515,288.281,314.987,270.492,314.987z
	 M288.754,282.727c0-10.069-8.192-18.262-18.262-18.262s-18.261,8.192-18.261,18.262c0,10.069,8.191,18.261,18.261,18.261
	S288.754,292.795,288.754,282.727z M263.819,145.946h-65.975c-24.15,0-45.597-11.791-58.886-29.921v46.643
	c0.033,0.201,0.057,0.405,0.071,0.611c1.591,22.045,15.281,41.195,35.729,49.977c3.552,1.526,5.194,5.642,3.669,9.194
	c-1.139,2.652-3.722,4.24-6.435,4.24c-0.922,0-1.858-0.183-2.76-0.57c-24.923-10.704-41.727-33.889-44.076-60.694
	c-0.13-0.527-0.199-1.077-0.199-1.643V79.099c0-0.375-0.085-4.437-0.085-6.124C124.874,32.735,157.608,0,197.845,0h65.975
	c40.237,0,72.973,32.735,72.973,72.972c0,1.194-0.084,6.39-0.084,6.39c0.021,43.6,0.032,96.47-0.046,100.743
	c-0.07,3.821-3.19,6.872-6.996,6.872c-0.044,0-0.087,0-0.131-0.001c-3.865-0.071-6.941-3.261-6.871-7.127
	c0.028-1.563,0.069-12.564,0.058-63.844C309.433,134.145,287.978,145.946,263.819,145.946z M144.987,46.837
	c0.198,0.013,0.398,0.02,0.599,0.02h16.123c5.029,0,9.121-4.092,9.121-9.121c0-5.032-4.092-9.124-9.121-9.124h-2.681
	C153.237,33.686,148.443,39.875,144.987,46.837z M197.845,131.946h65.975c31.444,0,57.219-24.736,58.887-55.771
	c0,0,0.086-2.474,0.086-3.201c0-32.52-26.455-58.975-58.973-58.975h-65.975c-8.171,0-15.958,1.67-23.04,4.688
	c6.052,4.174,10.025,11.155,10.025,19.046c0,12.751-10.372,23.124-23.121,23.124h-16.123c-1.816,0-3.601-0.208-5.328-0.617
	c-0.906,4.102-1.384,8.362-1.384,12.732c0,1.743,0.271,5.572,0.28,5.774C142.064,108.567,167.275,131.946,197.845,131.946z"/>
<g>
</g>
<g>
</g>
<g>
</g>
<g>
</g>
<g>
</g>
<g>
</g>
<g>
</g>
<g>
</g>
<g>
</g>
<g>
</g>
<g>
</g>
<g>
</g>
<g>
</g>
<g>
</g>
<g>
</g>
</svg>
