<?xml version="1.0" encoding="iso-8859-1"?>
<!-- Generator: Adobe Illustrator 17.1.0, SVG Export Plug-In . SVG Version: 6.00 Build 0)  -->
<!DOCTYPE svg PUBLIC "-//W3C//DTD SVG 1.1//EN" "http://www.w3.org/Graphics/SVG/1.1/DTD/svg11.dtd">
<svg version="1.1" id="Capa_1" xmlns="http://www.w3.org/2000/svg" xmlns:xlink="http://www.w3.org/1999/xlink" x="0px" y="0px"
	 viewBox="0 0 429.783 429.783" style="enable-background:new 0 0 429.783 429.783;" xml:space="preserve">
<path id="XMLID_30_" d="M247.77,93.672c0,3.866-3.134,7-7,7h-2.101c-3.866,0-7-3.134-7-7s3.134-7,7-7h2.101
	C244.635,86.672,247.77,89.806,247.77,93.672z M266.385,412.708c0,3.866-3.134,7-7,7h-26.538c-17.861,0-33.177-11.111-39.399-26.784
	h-47.202c-3.866,0-7-3.134-7-7s3.134-7,7-7h44.261c-0.02-0.527-0.029-1.055-0.029-1.587V244.169h-1.822c-3.866,0-7-3.134-7-7
	v-35.128c0-3.866,3.134-7,7-7H381.84c3.866,0,7,3.134,7,7v35.128c0,3.866-3.134,7-7,7h-1.822v45.227c0,3.866-3.134,7-7,7
	s-7-3.134-7-7v-45.227h-161.54v133.168c0.118,4.426,1.102,7.239,1.164,8.053c3.479,11.734,14.358,20.318,27.206,20.318h26.538
	C263.251,405.708,266.385,408.842,266.385,412.708z M374.84,230.169v-21.128H195.656v21.128H374.84z M240.77,118.923h-2.101
	c-3.866,0-7,3.134-7,7s3.134,7,7,7h2.101c3.866,0,7-3.134,7-7S244.635,118.923,240.77,118.923z M45.494,254.844
	c0.068,0.002,0.137,0.003,0.205,0.003c3.772,0,6.884-3.003,6.993-6.799l5.369-186.682h179.4c3.866,0,7-3.134,7-7s-3.134-7-7-7
	H58.464l0.869-30.204C59.383,15.389,60.686,14,62.299,14h198.401c1.611,0,2.914,1.391,2.966,3.162l4.255,147.927
	c0.111,3.864,3.324,6.884,7.198,6.796c3.864-0.111,6.907-3.334,6.796-7.198l-4.255-147.93C277.385,7.36,269.936,0,260.699,0H62.299
	c-9.241,0-16.69,7.362-16.96,16.76l-6.641,230.886C38.587,251.51,41.63,254.732,45.494,254.844z M124.679,322.609v50.085
	c0,31.475-25.606,57.081-57.082,57.081c-31.478,0-57.084-25.606-57.084-57.081v-50.085c0-31.476,25.607-57.082,57.082-57.082h0.003
	C99.072,265.527,124.679,291.134,124.679,322.609z M48.355,411.236c-9.741-23.073-4.443-50.896,14.961-68.519
	c14.231-16.154,9.708-36.087-2.991-62.577c-20.306,3.465-35.813,21.189-35.813,42.469v50.085
	C24.513,389.539,34.231,404.157,48.355,411.236z M110.679,322.609c0-20.925-14.997-38.414-34.806-42.284
	c10.793,23.939,17.418,49.922-2.367,72.003c-0.171,0.19-0.352,0.371-0.542,0.542c-18.083,16.201-20.473,43.842-5.917,62.901
	c0.182,0.003,0.366,0.004,0.549,0.004c23.758,0,43.084-19.326,43.084-43.081V322.609z M391.635,402.146
	c-17.88,17.882-41.889,27.637-66.675,27.637c-6.058,0-12.16-0.583-18.232-1.771c-0.178-0.033-0.354-0.074-0.53-0.121
	c-0.813-0.219-1.558-0.575-2.213-1.039c-26.086-17.589-41.653-46.834-41.653-78.266c0-31.485,15.622-60.778,41.79-78.357
	c2.361-1.587,5.446-1.585,7.807,0c18.245,12.258,31.364,30.208,37.636,50.625c18.955-9.998,41.203-13.348,62.403-9.186
	c2.79,0.549,4.972,2.729,5.52,5.52C423.564,348.121,413.9,379.882,391.635,402.146z M339.721,348.586
	c0-25.209-11.763-48.769-31.696-63.943c-19.931,15.173-31.693,38.733-31.693,63.943c0,22.1,9.038,42.931,24.694,57.955v-50.459
	c0-3.866,3.134-7,7-7s7,3.134,7,7v50.457C330.682,391.513,339.721,370.682,339.721,348.586z M404.537,324.624
	c-17.891-2.396-36.317,1.327-51.779,10.479c0.637,4.43,0.963,8.933,0.963,13.483c0,25.531-10.274,49.621-28.114,67.193
	c20.878-0.171,41.059-8.463,56.128-23.531C399.561,374.422,407.902,349.445,404.537,324.624z M203.032,86.672c-3.866,0-7,3.134-7,7
	s3.134,7,7,7h2.101c3.866,0,7-3.134,7-7s-3.134-7-7-7H203.032z"/>
<g>
</g>
<g>
</g>
<g>
</g>
<g>
</g>
<g>
</g>
<g>
</g>
<g>
</g>
<g>
</g>
<g>
</g>
<g>
</g>
<g>
</g>
<g>
</g>
<g>
</g>
<g>
</g>
<g>
</g>
</svg>
