<?xml version="1.0" encoding="iso-8859-1"?>
<!-- Generator: Adobe Illustrator 17.1.0, SVG Export Plug-In . SVG Version: 6.00 Build 0)  -->
<!DOCTYPE svg PUBLIC "-//W3C//DTD SVG 1.1//EN" "http://www.w3.org/Graphics/SVG/1.1/DTD/svg11.dtd">
<svg version="1.1" id="Capa_1" xmlns="http://www.w3.org/2000/svg" xmlns:xlink="http://www.w3.org/1999/xlink" x="0px" y="0px"
	 viewBox="0 0 448.376 448.376" style="enable-background:new 0 0 448.376 448.376;" xml:space="preserve">
<path id="XMLID_757_" d="M235.975,87.387c13.848-20.289,21.741-33.646,10.041-51.803c-2.094-3.25-1.157-7.582,2.093-9.676
	c3.25-2.094,7.581-1.157,9.676,2.093c17.324,26.884,2.677,48.344-10.246,67.278c-13.848,20.288-21.741,33.645-10.041,51.801
	c2.094,3.25,1.157,7.582-2.093,9.676c-1.172,0.755-2.486,1.117-3.785,1.117c-2.3,0-4.553-1.132-5.891-3.209
	C208.405,127.78,223.052,106.32,235.975,87.387z M202.606,288.561c-0.274-3.855-3.619-6.748-7.479-6.486
	c-3.856,0.274-6.76,3.623-6.486,7.479l0.149,2.096c0.262,3.687,3.335,6.504,6.975,6.504c0.167,0,0.335-0.006,0.503-0.018
	c3.856-0.274,6.76-3.623,6.486-7.479L202.606,288.561z M196.481,157.873c1.299,0,2.613-0.361,3.786-1.117
	c3.25-2.094,4.186-6.426,2.092-9.676c-11.701-18.157-3.807-31.513,10.041-51.802c12.923-18.934,27.57-40.393,10.247-67.277
	c-2.093-3.25-6.427-4.187-9.676-2.093c-3.25,2.094-4.187,6.426-2.093,9.676c11.7,18.157,3.807,31.513-10.042,51.802
	c-12.923,18.934-27.57,40.394-10.246,67.278C191.93,156.741,194.182,157.873,196.481,157.873z M193.318,256.223
	c3.857-0.271,6.763-3.618,6.492-7.475l-0.147-2.095c-0.272-3.856-3.625-6.764-7.474-6.492c-3.856,0.271-6.763,3.618-6.492,7.474
	l0.147,2.095c0.26,3.689,3.333,6.509,6.976,6.509C192.985,256.241,193.151,256.235,193.318,256.223z M256.19,240.162
	c-3.851-0.274-7.204,2.631-7.477,6.488l-0.148,2.095c-0.273,3.856,2.631,7.204,6.488,7.477c0.168,0.012,0.335,0.018,0.502,0.018
	c3.641,0,6.714-2.818,6.975-6.506l0.148-2.095C262.952,243.783,260.047,240.435,256.19,240.162z M253.247,282.075
	c-3.858-0.272-7.205,2.629-7.479,6.486l-0.149,2.096c-0.274,3.856,2.63,7.204,6.486,7.479c0.169,0.012,0.336,0.018,0.503,0.018
	c3.64,0,6.713-2.817,6.975-6.504l0.149-2.096C260.007,285.698,257.103,282.349,253.247,282.075z M224.187,302.063
	c-3.866,0-7,3.134-7,7v2.101c0,3.866,3.134,7,7,7s7-3.134,7-7v-2.101C231.187,305.197,228.053,302.063,224.187,302.063z
	 M438.397,403.406l-25.915,16.708c-9.866,6.36-22.73,3.78-30.591-6.138l-23.075-29.124c-8.729,2.004-17.713-0.506-23.798-7.314
	l-10.405-11.643c-7.125,2.901-15.099,2.998-22.519-0.24l-29.995-13.094c-5.669,4.317-12.614,6.797-20.179,6.797h-55.47
	c-7.565,0-14.509-2.479-20.178-6.798l-29.995,13.095c-6.66,2.906-13.765,3.125-20.301,1.044l-9.686,10.839
	c-6.645,7.436-16.747,9.746-26.203,6.646l-23.605,29.792c-4.969,6.271-11.938,9.609-18.885,9.609c-4.042,0-8.077-1.13-11.706-3.471
	L9.979,403.406c-9.867-6.361-12.825-19.146-7.035-30.398l19.105-37.119c-3.702-3.577-6.01-8.385-6.581-13.814
	c-0.74-7.034,1.633-14.383,6.348-19.66l32.894-36.812c1.33-1.488,2.842-2.815,4.494-3.954c-0.667-4.246-0.278-8.688,1.189-13.041
	c2.74-8.129,9.072-15.033,16.938-18.467l58.532-25.552c5.17-2.257,10.848-3.03,16.368-2.316c1.358-4.167,3.645-8.091,6.787-11.555
	c6.69-7.376,16.633-11.779,26.597-11.779h77.142c9.964,0,19.907,4.404,26.597,11.78c3.142,3.464,5.428,7.386,6.786,11.553
	c5.518-0.712,11.196,0.06,16.367,2.318l58.531,25.551c7.867,3.435,14.2,10.338,16.94,18.468c1.279,3.794,1.737,7.657,1.392,11.398
	c2.725,1.419,5.187,3.314,7.225,5.595l32.897,36.813c4.714,5.276,7.087,12.625,6.347,19.659c-0.67,6.365-3.727,11.877-8.619,15.554
	l18.209,35.381C451.222,384.26,448.264,397.044,438.397,403.406z M77.901,377.024l-44.507-32.583l-18,34.973
	c-2.079,4.039-2,9.535,2.172,12.225l25.915,16.708c4.172,2.689,9.21,0.494,12.032-3.067L77.901,377.024z M113.746,359.377
	c-2.531-2.409-4.772-5.284-6.614-8.583l-42.198-75.621l-32.678,36.57c-2.127,2.381-3.198,5.695-2.864,8.866
	c0.185,1.756,0.888,4.203,3.187,5.885l2.398,1.756c0.057,0.04,0.112,0.081,0.167,0.123l54.979,40.249
	c0.006,0.004,0.012,0.008,0.018,0.012c0.121,0.089,0.245,0.177,0.37,0.263c4.598,3.156,11.225,3.922,15.342-0.687L113.746,359.377z
	 M166.712,341.459c-2.644-4.728-4.383-10.196-4.966-16.157L151.1,216.268c-2.725-1.092-7.516,0.227-9.634,1.152l-58.533,25.552
	c-4.307,1.88-7.773,5.659-9.273,10.108c-1.219,3.618-0.961,7.275,0.726,10.3l44.971,80.591c4.05,7.256,12.675,12.627,21.32,8.854
	L166.712,341.459z M272.694,323.941l10.833-110.945c0.06-0.61,0.494-7.569-4.542-12.871c-4.183-4.404-10.147-7.186-16.227-7.186
	h-77.142c-6.081,0-12.146,2.686-16.228,7.185c-2.919,3.218-5.118,6.219-4.542,12.871l10.833,110.946
	c1.041,10.643,8.51,21.418,20.771,21.418h55.47C264.185,345.359,271.654,334.584,272.694,323.941z M373.986,263.38
	c1.688-3.025,1.947-6.683,0.728-10.299c-1.5-4.449-4.966-8.228-9.274-10.108l-58.532-25.552c-2.991-1.306-6.396-1.69-9.633-1.154
	l-10.646,109.035c-0.583,5.962-2.321,11.43-4.966,16.158l26.035,11.365c8.647,3.776,17.27-1.596,21.319-8.854L373.986,263.38z
	 M361.168,368.635l52.879-38.711c0.047-0.036,0.096-0.071,0.144-0.105l4.539-3.323c2.3-1.683,3.003-4.13,3.188-5.887
	c0.333-3.171-0.737-6.485-2.863-8.865l-32.896-36.812c-0.515-0.576-1.092-1.097-1.718-1.558l-43.2,77.419
	c-1.458,2.613-3.169,4.961-5.074,7.021l9.29,10.396C349.687,372.942,356.562,372.007,361.168,368.635z M432.983,379.414
	l-17.197-33.414l-44.234,32.382l21.312,26.898c2.821,3.56,7.861,5.755,12.032,3.066l25.915-16.708
	C434.983,388.95,435.062,383.453,432.983,379.414z M224.187,262.15c-3.866,0-7,3.134-7,7v2.101c0,3.866,3.134,7,7,7s7-3.134,7-7
	v-2.101C231.187,265.284,228.053,262.15,224.187,262.15z M224.187,220.133c-3.866,0-7,3.134-7,7v2.101c0,3.866,3.134,7,7,7
	s7-3.134,7-7v-2.101C231.187,223.267,228.053,220.133,224.187,220.133z"/>
<g>
</g>
<g>
</g>
<g>
</g>
<g>
</g>
<g>
</g>
<g>
</g>
<g>
</g>
<g>
</g>
<g>
</g>
<g>
</g>
<g>
</g>
<g>
</g>
<g>
</g>
<g>
</g>
<g>
</g>
</svg>
