<?xml version="1.0" encoding="iso-8859-1"?>
<!-- Generator: Adobe Illustrator 17.1.0, SVG Export Plug-In . SVG Version: 6.00 Build 0)  -->
<!DOCTYPE svg PUBLIC "-//W3C//DTD SVG 1.1//EN" "http://www.w3.org/Graphics/SVG/1.1/DTD/svg11.dtd">
<svg version="1.1" id="Capa_1" xmlns="http://www.w3.org/2000/svg" xmlns:xlink="http://www.w3.org/1999/xlink" x="0px" y="0px"
	 viewBox="0 0 413.312 413.312" style="enable-background:new 0 0 413.312 413.312;" xml:space="preserve">
<path id="XMLID_83_" d="M374.446,223.187c-0.143-7.898-0.245-13.605-0.245-16.472c0-23.786-6.072-159.852-6.765-175.288
	c-0.485-10.831-0.904-20.186-7.52-26.114c-4.814-4.315-11.625-5.852-22.775-5.129c-18.103,1.17-50.3,5.316-78.707,8.975
	c-9.388,1.209-18.563,2.391-26.497,3.366c-0.076,0.008-0.152,0.018-0.229,0.028c-11.412,1.402-20.218,2.371-23.325,2.371h-3.455
	c-5.279,0-27.015-2.8-50.026-5.764C126.69,5.527,94.714,1.409,76.539,0.208c-8.423-0.557-17.042-0.332-23.034,5.028
	c-5.579,4.992-7.02,12.617-7.466,22.53c-0.283,6.281-6.928,154.128-6.928,178.949c0,2.866-0.103,8.575-0.246,16.477
	c-0.72,39.844-2.216,122.752,3.073,159.188c3.18,21.902,12.023,30.932,31.028,30.932c1.583,0,3.238-0.063,4.965-0.186
	c14.397-1.027,36.612-3.709,58.759-6.522c0.064-0.008,0.128-0.016,0.193-0.024c6.064-0.771,12.119-1.551,18.008-2.31
	c23.016-2.964,44.754-5.764,50.035-5.764h3.455c5.282,0,27.027,2.801,50.05,5.766c26.629,3.429,56.812,7.315,75.356,8.736
	c23.908,1.832,34.082-6.479,37.587-30.652C376.661,345.906,375.166,263.02,374.446,223.187z M357.52,380.347
	c-2.465,17.002-6.071,19.968-22.662,18.702c-18.185-1.393-48.177-5.256-74.638-8.663c-28.308-3.646-45.956-5.88-51.838-5.88h-3.455
	c-1.307,0-3.193,0.11-5.649,0.321c5.233-2.213,10.013-4.302,14.271-6.163c8.301-3.629,16.883-7.38,19.241-7.666
	c3.809-0.066,6.876-3.174,6.876-6.999c0-3.866-3.134-7-7-7c-4.334,0-10.343,2.551-24.724,8.837
	c-17.333,7.575-43.483,19.005-73.372,26.924c-21.837,2.772-43.647,5.403-57.636,6.401c-14.986,1.074-18.743-2.269-21.143-18.793
	c-5.125-35.31-3.587-120.532-2.93-156.924c0.144-7.975,0.248-13.736,0.248-16.729c0-24.51,6.631-172.051,6.914-178.32
	c0.205-4.565,0.721-10.852,2.815-12.726c1.23-1.101,4.02-1.654,8.318-1.654c1.339,0,2.826,0.054,4.457,0.161
	c17.74,1.173,49.487,5.262,77.497,8.87c13.837,1.782,25.125,3.227,33.736,4.238c-12.422,4.869-23.223,9.674-31.873,13.521
	c-8.103,3.604-16.48,7.329-18.809,7.626c-3.805,0.071-6.867,3.178-6.867,6.999c0,3.866,3.134,7,7,7
	c4.332,0,10.238-2.55,24.365-8.834c17.268-7.68,43.32-19.268,73.338-27.223c7.345-0.904,16.1-2.027,26.218-3.33
	c28.2-3.632,60.163-7.748,77.821-8.89c8.296-0.536,11.394,0.565,12.529,1.584c2.236,2.004,2.563,9.279,2.877,16.315
	c2.508,55.899,6.751,155.59,6.751,174.661c0,2.992,0.104,8.753,0.248,16.725C361.105,259.822,362.643,345.022,357.52,380.347z
	 M249.233,190.25l-28.578,16.501l28.578,16.5l30.999-9.028c3.714-1.084,7.598,1.053,8.678,4.764
	c1.081,3.711-1.052,7.597-4.764,8.678l-18.125,5.279l17.988,10.385c3.348,1.934,4.495,6.215,2.563,9.563
	c-1.934,3.348-6.214,4.494-9.563,2.563l-17.986-10.385l4.49,18.334c0.92,3.755-1.379,7.544-5.134,8.464
	c-3.748,0.916-7.545-1.378-8.464-5.134l-7.681-31.356l-28.58-16.501v33.001l23.316,22.33c2.792,2.674,2.888,7.105,0.214,9.897
	c-2.675,2.793-7.105,2.887-9.897,0.214l-13.633-13.057v20.77c0,3.866-3.135,7-7,7s-7-3.134-7-7v-20.768l-13.634,13.055
	c-2.792,2.674-7.225,2.579-9.897-0.215c-2.674-2.792-2.578-7.223,0.214-9.896l23.316-22.327v-33.004l-28.58,16.5l-7.681,31.36
	c-0.919,3.755-4.709,6.057-8.464,5.134c-3.755-0.92-6.053-4.709-5.133-8.464l4.491-18.338l-17.988,10.386
	c-3.346,1.932-7.629,0.786-9.562-2.563c-1.933-3.348-0.786-7.629,2.562-9.563l17.985-10.383l-18.121-5.279
	c-3.712-1.081-5.844-4.967-4.763-8.679c1.081-3.712,4.964-5.844,8.679-4.763l30.992,9.028l28.583-16.502l-28.583-16.502
	l-30.993,9.027c-3.714,1.078-7.598-1.052-8.678-4.763c-1.081-3.712,1.051-7.598,4.763-8.679l18.121-5.278l-17.985-10.384
	c-3.348-1.934-4.495-6.215-2.562-9.563c1.933-3.349,6.215-4.492,9.562-2.563l17.987,10.386l-4.491-18.337
	c-0.92-3.755,1.378-7.544,5.133-8.464c3.757-0.919,7.545,1.379,8.464,5.134l7.681,31.359l28.58,16.5v-33.005l-23.316-22.328
	c-2.792-2.674-2.888-7.104-0.214-9.897c2.672-2.792,7.104-2.888,9.897-0.214l13.634,13.056V121.47c0-3.866,3.134-7,7-7s7,3.134,7,7
	v20.769l13.633-13.058c2.792-2.672,7.223-2.578,9.897,0.214c2.674,2.792,2.578,7.224-0.214,9.897l-23.316,22.331v33.002
	l28.58-16.501l7.681-31.356c0.919-3.756,4.71-6.056,8.464-5.134c3.755,0.92,6.054,4.709,5.134,8.464l-4.49,18.334l17.986-10.385
	c3.35-1.932,7.629-0.786,9.563,2.563c1.933,3.348,0.785,7.629-2.563,9.563l-17.988,10.386l18.126,5.279
	c3.711,1.081,5.844,4.967,4.763,8.679c-1.081,3.711-4.967,5.844-8.679,4.763L249.233,190.25z"/>
<g>
</g>
<g>
</g>
<g>
</g>
<g>
</g>
<g>
</g>
<g>
</g>
<g>
</g>
<g>
</g>
<g>
</g>
<g>
</g>
<g>
</g>
<g>
</g>
<g>
</g>
<g>
</g>
<g>
</g>
</svg>
