<?xml version="1.0" encoding="iso-8859-1"?>
<!-- Generator: Adobe Illustrator 17.1.0, SVG Export Plug-In . SVG Version: 6.00 Build 0)  -->
<!DOCTYPE svg PUBLIC "-//W3C//DTD SVG 1.1//EN" "http://www.w3.org/Graphics/SVG/1.1/DTD/svg11.dtd">
<svg version="1.1" id="Capa_1" xmlns="http://www.w3.org/2000/svg" xmlns:xlink="http://www.w3.org/1999/xlink" x="0px" y="0px"
	 viewBox="0 0 464.212 464.212" style="enable-background:new 0 0 464.212 464.212;" xml:space="preserve">
<path id="XMLID_544_" d="M345.084,347.126c1.933,3.348,0.786,7.629-2.562,9.562l-7.911,4.568c-1.103,0.637-2.306,0.939-3.494,0.939
	c-2.419,0-4.772-1.255-6.068-3.501c-1.933-3.348-0.786-7.629,2.562-9.562l7.911-4.568
	C338.87,342.631,343.151,343.778,345.084,347.126z M342.523,317.979l-7.911-4.568c-3.348-1.933-7.628-0.786-9.563,2.562
	c-1.933,3.348-0.786,7.629,2.562,9.563l7.911,4.568c1.103,0.637,2.306,0.939,3.494,0.939c2.419,0,4.771-1.255,6.068-3.5
	C347.017,324.194,345.871,319.913,342.523,317.979z M269.913,407.892c-36.458,17.332-77.341,21.964-116.327,13.383
	c29.938-1.031,59.288-9.08,86.073-23.742c5.234-2.864,10.409-6.016,15.381-9.368c3.206-2.161,4.052-6.511,1.891-9.717
	c-2.161-3.206-6.511-4.053-9.717-1.892c-4.616,3.112-9.419,6.037-14.277,8.696c-26.979,14.768-56.763,22.296-86.973,22.132
	c25.656-13.916,48.882-32.564,67.759-54.495c22.155-25.744,38.227-55.342,47.769-87.972c9.552-32.653,11.965-66.251,7.174-99.858
	c-3.336-23.429-10.151-46.248-20.257-67.832c-0.439-1.142-1.173-2.156-2.136-2.934l-36.117-29.148
	c-0.181-0.301-0.082-1.563,0.742-2.346l7.333-6.968l2.842,2.862c2.724,2.742,7.156,2.757,9.899,0.033
	c2.743-2.725,2.758-7.157,0.033-9.899l-2.624-2.641l7.109-6.755c0.825-0.784,2.088-0.818,2.367-0.633l29.263,40.293
	c0.69,0.95,1.608,1.712,2.67,2.214c34.54,16.345,62.594,42.88,81.128,76.739c9.884,18.056,16.593,37.452,19.94,57.649
	c0.632,3.814,4.236,6.397,8.05,5.762c3.814-0.632,6.394-4.236,5.762-8.05c-3.604-21.754-10.829-42.643-21.471-62.083
	c-19.671-35.935-49.309-64.217-85.792-81.892l-28.221-38.858c-2.429-3.344-6.122-5.402-10.401-5.794
	c-4.677-0.43-9.519,1.255-12.938,4.505l-24.594,23.369c-3.419,3.25-5.347,7.996-5.156,12.695c0.174,4.293,2.042,8.086,5.256,10.68
	l34.833,28.118c9.267,20.038,15.529,41.188,18.62,62.891c0.376,2.64,0.706,5.279,0.988,7.919
	c-4.225,9.033-9.142,17.782-14.63,26.029c-15.718,23.616-35.919,43.216-60.044,58.255c-24.108,15.031-50.596,24.538-78.729,28.255
	c-27.866,3.68-56.926,1.329-84.042-6.796c-3.646-1.094-7.503-0.704-10.856,1.103c-3.353,1.805-5.802,4.809-6.896,8.456
	c-1.261,4.202-0.496,8.797,2.042,12.366l3.331,5.34c0.176,0.305,0.364,0.606,0.563,0.899c24.57,39.128,63.032,66.457,108.321,76.96
	c3.755,0.87,7.575,1.625,11.355,2.244c3.816,0.624,7.415-1.962,8.039-5.778c0.624-3.815-1.962-7.414-5.778-8.039
	c-3.479-0.569-6.997-1.264-10.454-2.065c-36.308-8.421-67.841-28.589-90.298-57.446c19.592,15.185,42.33,25.994,66.98,31.712
	c31.697,7.352,64.576,5.722,95.083-4.715c3.658-1.251,5.608-5.231,4.357-8.889c-1.251-3.657-5.233-5.607-8.889-4.357
	c-28.024,9.588-58.242,11.083-87.387,4.324c-25.604-5.939-48.959-17.848-68.428-34.776c24.533,5.435,50.101,6.599,74.792,3.337
	c30.125-3.981,58.489-14.161,84.302-30.254c25.83-16.102,47.46-37.089,64.292-62.379c1.44-2.165,2.844-4.362,4.209-6.587
	c-0.321,19.817-3.317,39.502-8.973,58.836c-8.978,30.702-24.099,58.549-44.942,82.769c-20.642,23.981-46.814,43.798-75.682,57.307
	c-3.664,1.712-6.442,4.749-7.822,8.55c-1.379,3.801-1.196,7.912,0.514,11.573c1.974,4.229,5.843,7.333,10.393,8.36
	c0,0,7.555,2.222,7.924,2.314c17.609,5.089,35.702,7.613,53.759,7.613c28.688,0,57.288-6.37,83.725-18.938
	c3.492-1.66,4.977-5.836,3.316-9.327C277.581,407.717,273.405,406.233,269.913,407.892z M306.679,133.196
	c-3.391,1.856-4.635,6.111-2.778,9.502c13.087,23.904,20.671,50.819,21.932,77.835c0.175,3.751,3.271,6.674,6.987,6.674
	c0.11,0,0.221-0.002,0.332-0.007c3.862-0.181,6.846-3.457,6.666-7.319c-1.358-29.13-9.532-58.145-23.636-83.906
	C314.324,132.584,310.071,131.34,306.679,133.196z M362.049,356.921c-3.866,0-7,3.134-7,7v9.136c0,3.866,3.134,7,7,7
	c3.866,0,7-3.134,7-7v-9.136C369.049,360.055,365.914,356.921,362.049,356.921z M396.484,349.133l-7.912-4.567
	c-3.346-1.931-7.629-0.786-9.562,2.563c-1.933,3.348-0.785,7.629,2.563,9.562l7.912,4.567c1.102,0.636,2.306,0.938,3.493,0.938
	c2.419,0,4.772-1.255,6.069-3.501C400.979,355.347,399.832,351.066,396.484,349.133z M431.931,337.335
	c0,38.534-31.35,69.883-69.884,69.883c-38.534,0-69.883-31.35-69.883-69.883s31.349-69.883,69.883-69.883
	C400.581,267.452,431.931,298.801,431.931,337.335z M417.931,337.335c0-30.814-25.069-55.883-55.884-55.883
	c-30.814,0-55.883,25.069-55.883,55.883s25.069,55.883,55.883,55.883C392.862,393.218,417.931,368.149,417.931,337.335z
	 M362.049,294.613c-3.866,0-7,3.134-7,7v9.135c0,3.866,3.134,7,7,7c3.866,0,7-3.134,7-7v-9.135
	C369.049,297.747,365.914,294.613,362.049,294.613z M464.212,337.335c0,56.334-45.831,102.166-102.166,102.166
	c-56.333,0-102.164-45.832-102.164-102.166c0-56.334,45.831-102.166,102.164-102.166C418.381,235.169,464.212,281,464.212,337.335z
	 M450.212,337.335c0-48.615-39.551-88.166-88.166-88.166c-48.614,0-88.164,39.551-88.164,88.166s39.55,88.166,88.164,88.166
	C410.661,425.5,450.212,385.95,450.212,337.335z M389.484,313.409l-7.912,4.568c-3.348,1.933-4.495,6.214-2.562,9.562
	c1.296,2.246,3.649,3.501,6.069,3.501c1.188,0,2.391-0.302,3.493-0.939l7.912-4.568c3.348-1.933,4.495-6.214,2.562-9.562
	C397.113,312.623,392.831,311.476,389.484,313.409z"/>
<g>
</g>
<g>
</g>
<g>
</g>
<g>
</g>
<g>
</g>
<g>
</g>
<g>
</g>
<g>
</g>
<g>
</g>
<g>
</g>
<g>
</g>
<g>
</g>
<g>
</g>
<g>
</g>
<g>
</g>
</svg>
