<?xml version="1.0" encoding="iso-8859-1"?>
<!-- Generator: Adobe Illustrator 17.1.0, SVG Export Plug-In . SVG Version: 6.00 Build 0)  -->
<!DOCTYPE svg PUBLIC "-//W3C//DTD SVG 1.1//EN" "http://www.w3.org/Graphics/SVG/1.1/DTD/svg11.dtd">
<svg version="1.1" id="Capa_1" xmlns="http://www.w3.org/2000/svg" xmlns:xlink="http://www.w3.org/1999/xlink" x="0px" y="0px"
	 viewBox="0 0 397.545 397.545" style="enable-background:new 0 0 397.545 397.545;" xml:space="preserve">
<path id="XMLID_1680_" d="M271.856,211.582l-34.791-20.086c-2.166-1.252-4.834-1.251-7-0.001l-31.293,18.066l-31.293-18.066
	c-2.166-1.25-4.834-1.25-7,0l-34.793,20.087c-2.166,1.25-3.5,3.562-3.5,6.063v40.176c0,2.501,1.334,4.812,3.5,6.063l31.291,18.064
	v36.136c0,2.501,1.334,4.812,3.5,6.063l34.794,20.088c1.083,0.626,2.291,0.938,3.5,0.938c1.208,0,2.417-0.313,3.5-0.938
	l34.792-20.089c2.166-1.251,3.5-3.562,3.5-6.063v-36.134l31.294-18.066c2.166-1.251,3.5-3.562,3.5-6.063v-40.176
	C275.357,215.144,274.023,212.832,271.856,211.582z M136.187,253.779v-32.093l27.793-16.046l27.793,16.046v32.092l-13.869,8.008
	c-0.009,0.005-0.018,0.011-0.027,0.016l-13.897,8.022L136.187,253.779z M226.563,314.042l-27.792,16.047l-27.794-16.048v-32.092
	l13.876-8.01c0.008-0.004,0.015-0.009,0.022-0.013l13.896-8.023l27.791,16.044V314.042z M261.357,253.778l-27.792,16.046
	l-27.793-16.046v-32.092l27.793-16.046l27.792,16.046V253.778z M355.738,72.672l-54.521-24.023
	c-0.358-0.158-0.728-0.285-1.105-0.381V7c0-3.866-3.134-7-7-7H104.434c-3.866,0-7,3.134-7,7v41.267
	c-0.378,0.096-0.749,0.224-1.107,0.382l-54.52,24.023c-2.539,1.118-4.178,3.631-4.178,6.405v24.03c0,3.866,3.134,7,7,7h8.676v236.31
	c0,28.192,22.937,51.128,51.129,51.128h188.679c28.191,0,51.126-22.936,51.126-51.128v-236.31h8.678c3.866,0,7-3.134,7-7v-24.03
	C359.916,76.303,358.277,73.79,355.738,72.672z M111.434,14h174.679v34.054H111.434V14z M330.238,346.417
	c0,20.473-16.654,37.128-37.126,37.128H104.434c-20.473,0-37.129-16.655-37.129-37.128v-236.31h177.581v23.239
	c0,10.943,8.903,19.846,19.847,19.846c1.184,0,2.355-0.106,3.502-0.314v8.952c0,10.943,8.902,19.846,19.846,19.846
	s19.846-8.902,19.846-19.846v-51.723h22.313V346.417z M277.351,134.047c-0.698-0.221-1.41-0.328-2.115-0.328
	c-2.232,0-4.385,1.071-5.722,2.967c-1.107,1.569-2.895,2.507-4.781,2.507c-3.224,0-5.847-2.622-5.847-5.846v-23.239h35.04v51.723
	c0,3.224-2.622,5.846-5.846,5.846s-5.846-2.622-5.846-5.846v-21.11C282.234,137.669,280.259,134.97,277.351,134.047z
	 M345.916,96.107H51.629V83.642l48.993-21.588h196.3l48.994,21.589V96.107z"/>
<g>
</g>
<g>
</g>
<g>
</g>
<g>
</g>
<g>
</g>
<g>
</g>
<g>
</g>
<g>
</g>
<g>
</g>
<g>
</g>
<g>
</g>
<g>
</g>
<g>
</g>
<g>
</g>
<g>
</g>
</svg>
