<?xml version="1.0" encoding="iso-8859-1"?>
<!-- Generator: Adobe Illustrator 17.1.0, SVG Export Plug-In . SVG Version: 6.00 Build 0)  -->
<!DOCTYPE svg PUBLIC "-//W3C//DTD SVG 1.1//EN" "http://www.w3.org/Graphics/SVG/1.1/DTD/svg11.dtd">
<svg version="1.1" id="Capa_1" xmlns="http://www.w3.org/2000/svg" xmlns:xlink="http://www.w3.org/1999/xlink" x="0px" y="0px"
	 viewBox="0 0 431.959 431.959" style="enable-background:new 0 0 431.959 431.959;" xml:space="preserve">
<path id="XMLID_1635_" d="M283.515,144.99v-36.877c0-4.617-3.756-8.373-8.373-8.373c-3.866,0-7-3.134-7-7s3.134-7,7-7
	c12.337,0,22.373,10.036,22.373,22.373v36.877c0,3.866-3.134,7-7,7S283.515,148.856,283.515,144.99z M424.118,1.094
	c-2.018-1.284-4.554-1.45-6.724-0.435l-35.424,16.567c-0.013,0.006-0.025,0.012-0.037,0.018l-31.941,14.938
	c-0.037,0.017-0.075,0.034-0.112,0.053l-19.976,9.342c-3.502,1.638-5.013,5.805-3.375,9.307s5.804,5.012,9.307,3.375l10.063-4.706
	v4.518c0,3.866,3.134,7,7,7s7-3.134,7-7V43.005l18.016-8.425v14.262c0,3.866,3.134,7,7,7s7-3.134,7-7v-20.81l21.446-10.03v40.32
	l-63.043,29.482c-3.502,1.638-5.013,5.805-3.375,9.306c1.189,2.544,3.712,4.037,6.346,4.037c0.993,0,2.002-0.213,2.961-0.661
	l67.076-31.369c2.462-1.151,4.035-3.623,4.035-6.341V7.001C427.36,4.607,426.138,2.38,424.118,1.094z M414.795,329.422v95.522
	c0,2.184-1.524,8.362-8.854,6.75l-35.016-9.618H239.897l-35.017,9.618c-2.106,0.579-4.361,0.142-6.099-1.184
	c-1.736-1.323-2.756-3.383-2.756-5.566v-95.522c0-2.184,1.02-4.243,2.756-5.566c1.737-1.325,3.992-1.763,6.099-1.184l35.017,9.618
	h131.027l35.016-9.618c2.105-0.579,4.36-0.142,6.099,1.184C413.775,325.178,414.795,327.238,414.795,329.422z M400.795,338.603
	l-21.926,6.023v38.039c0,3.866-3.134,7-7,7s-7-3.134-7-7V346.29H245.953v36.376c0,3.866-3.134,7-7,7s-7-3.134-7-7v-38.039
	l-21.927-6.023v77.159l27.072-7.437c0.604-0.166,1.229-0.25,1.854-0.25h132.916c0.626,0,1.25,0.084,1.854,0.25l27.071,7.437V338.603
	z M94.362,128.332V97.957c0-18.149,11.16-33.741,26.98-40.271v-31.4c0-3.866,3.134-7,7-7H299.04c3.866,0,7,3.134,7,7v31.4
	c15.82,6.529,26.98,22.121,26.98,40.271v47.033c0,3.866-3.134,7-7,7s-7-3.134-7-7V97.957c0-16.291-13.254-29.544-29.545-29.544
	H137.907c-16.291,0-29.545,13.253-29.545,29.544v30.375c0,3.866-3.134,7-7,7S94.362,132.198,94.362,128.332z M135.343,54.487
	c0.848-0.049,155.85-0.049,156.697,0V33.286H135.343V54.487z M66.629,223.776v-50.377c0-4.177,3.529-6.235,3.805-6.376
	l29.387-15.841c3.402-1.833,7.648-0.562,9.483,2.841c1.834,3.403,0.563,7.648-2.841,9.483l-5.095,2.746h252.386c3.866,0,7,3.134,7,7
	v50.368c0.008,0.365,0,4.643-4.176,6.563l-34.243,16.015c-0.959,0.448-1.969,0.661-2.961,0.661c-2.634,0-5.156-1.493-6.346-4.036
	c-1.638-3.502-0.127-7.669,3.375-9.307l5.859-2.74H73.629C69.763,230.776,66.629,227.642,66.629,223.776z M80.629,216.776h266.125
	v-36.523h-34.461v18.263c0,3.866-3.134,7-7,7s-7-3.134-7-7v-18.263h-31.799v8.518c0,3.866-3.134,7-7,7c-3.866,0-7-3.134-7-7v-8.518
	h-31.801v18.263c0,3.866-3.134,7-7,7s-7-3.134-7-7v-18.263h-31.803v8.518c0,3.866-3.134,7-7,7s-7-3.134-7-7v-8.518h-31.799v18.263
	c0,3.866-3.134,7-7,7s-7-3.134-7-7v-18.263H80.629V216.776z M170.545,408.076h-32.638c-16.291,0-29.545-13.254-29.545-29.545V260.81
	c0-3.289,0.544-6.523,1.617-9.613c1.268-3.652-0.665-7.641-4.317-8.909c-3.651-1.269-7.641,0.665-8.909,4.317
	c-1.586,4.57-2.391,9.35-2.391,14.205v117.721c0,24.011,19.534,43.545,43.545,43.545h32.638c3.866,0,7-3.134,7-7
	S174.411,408.076,170.545,408.076z M73.97,291.121L8.633,321.676c-2.461,1.151-4.034,3.623-4.034,6.341v55.776
	c0,2.394,1.223,4.621,3.242,5.906c1.141,0.726,2.447,1.094,3.758,1.094c1.01,0,2.022-0.218,2.966-0.659l30.667-14.343
	c0.104-0.045,0.206-0.093,0.308-0.144l31.725-14.837c4.299-1.964,4.184-6.199,4.176-6.561v-15.364c0-3.866-3.134-7-7-7s-7,3.134-7,7
	v11.063l-18.016,8.426v-14.261c0-3.866-3.134-7-7-7s-7,3.134-7,7v20.809l-16.825,7.868v-40.32l61.303-28.669
	c3.502-1.638,5.013-5.805,3.375-9.307C81.638,290.995,77.471,289.484,73.97,291.121z M319.021,265.82v42.437c0,3.866,3.134,7,7,7
	s7-3.134,7-7V265.82c0-3.866-3.134-7-7-7S319.021,261.954,319.021,265.82z"/>
<g>
</g>
<g>
</g>
<g>
</g>
<g>
</g>
<g>
</g>
<g>
</g>
<g>
</g>
<g>
</g>
<g>
</g>
<g>
</g>
<g>
</g>
<g>
</g>
<g>
</g>
<g>
</g>
<g>
</g>
</svg>
