<?xml version="1.0" encoding="iso-8859-1"?>
<!-- Generator: Adobe Illustrator 17.1.0, SVG Export Plug-In . SVG Version: 6.00 Build 0)  -->
<!DOCTYPE svg PUBLIC "-//W3C//DTD SVG 1.1//EN" "http://www.w3.org/Graphics/SVG/1.1/DTD/svg11.dtd">
<svg version="1.1" id="Capa_1" xmlns="http://www.w3.org/2000/svg" xmlns:xlink="http://www.w3.org/1999/xlink" x="0px" y="0px"
	 viewBox="0 0 427.386 427.386" style="enable-background:new 0 0 427.386 427.386;" xml:space="preserve">
<path id="XMLID_1_" d="M160.671,412.239c0,3.866-3.134,7-7,7H37.324c-3.866,0-7-3.134-7-7L30.322,245.09
	c0-0.129,0.004-0.259,0.011-0.388L40.834,55.47V7c0-3.866,3.134-7,7-7h213.698c3.866,0,7,3.134,7,7v48.456l6.095,103.095
	c0.228,3.859-2.716,7.173-6.575,7.401c-3.84,0.214-7.173-2.716-7.401-6.575l-6.106-103.301c-0.008-0.138-0.012-0.275-0.012-0.413V14
	h-16.974v12.762c0,3.866-3.134,7-7,7s-7-3.134-7-7V14h-15.833v12.762c0,3.866-3.134,7-7,7s-7-3.134-7-7V14h-15.835v12.762
	c0,3.866-3.134,7-7,7s-7-3.134-7-7V14h-15.832v12.762c0,3.866-3.134,7-7,7s-7-3.134-7-7V14h-15.835v12.762c0,3.866-3.134,7-7,7
	s-7-3.134-7-7V14H88.391v12.762c0,3.866-3.134,7-7,7s-7-3.134-7-7V14H54.834v36.654h166.233c3.866,0,7,3.134,7,7s-3.134,7-7,7
	H54.346L44.322,245.283l0.002,159.956h109.348C157.538,405.239,160.671,408.373,160.671,412.239z M392.742,330.384
	c2.733,2.734,2.733,7.166,0,9.9c-1.367,1.366-3.159,2.05-4.95,2.05s-3.583-0.684-4.95-2.05l-7.692-7.692
	c-6.798-6.799-17.32-9.745-27.169-8.508l11.075,11.074c12.322,12.322,16.01,27.331,10.897,42.037
	c-0.087,0.313-0.194,0.616-0.321,0.91c-1.599,4.288-3.943,8.546-7.048,12.698c-15.881,21.235-48.763,36.58-81.014,36.583
	c-14.246,0.001-28.363-2.992-40.848-9.793c-1.183-0.645-2.154-1.616-2.798-2.799c-22.199-40.746-3.828-98.966,26.788-121.861
	c4.155-3.107,8.415-5.453,12.706-7.051c0.282-0.123,0.575-0.224,0.875-0.309c14.715-5.127,29.734-1.442,42.065,10.889
	c2.733,2.733,2.733,7.165-0.001,9.899c-2.732,2.733-7.165,2.733-9.899-0.001c-8.052-8.052-15.998-9.902-23.042-8.753
	c1.321,17.074,9.475,34.166,22.903,47.592c13.425,13.428,30.517,21.583,47.593,22.904c1.149-7.045-0.7-14.992-8.754-23.045
	l-15.515-15.513c-3.136,2.139-7.419,1.397-9.637-1.708c-2.248-3.146-1.52-7.518,1.626-9.765c17.624-12.594,44.279-10.52,59.419,4.62
	L392.742,330.384z M351.371,382.418c0.212-0.284,0.422-0.572,0.631-0.864c-18.729-2.618-37.056-11.924-51.586-26.456
	c-14.531-14.53-23.835-32.86-26.453-51.587c-0.294,0.209-0.583,0.42-0.868,0.633c-25.135,18.797-40.933,67.982-23.84,102.115
	C283.386,423.351,332.575,407.552,351.371,382.418z M214.985,405.408c-14.185-3.225-27.131-11.917-36.452-24.476
	c-9.267-12.484-13.897-27.418-13.04-42.05c0.543-9.282,8.518-16.393,17.817-15.849c9.283,0.543,16.394,8.537,15.851,17.816
	c-0.398,6.771,1.875,13.86,6.402,19.962c2.304,3.105,6.688,3.754,9.793,1.451c3.104-2.304,3.754-6.688,1.451-9.793
	c-2.535-3.417-3.873-7.353-3.67-10.8c0.993-16.988-12.02-31.618-29.009-32.613c-16.986-0.984-31.617,12.019-32.612,29.007
	c-1.049,17.905,4.553,36.093,15.774,51.212c11.313,15.241,27.148,25.818,44.591,29.784c0.522,0.118,1.044,0.176,1.558,0.176
	c3.195-0.001,6.082-2.203,6.82-5.45C221.116,410.017,218.754,406.266,214.985,405.408z M263.193,182.108
	c17.046,0,30.913,13.867,30.913,30.913c0,17.045-13.867,30.912-30.913,30.912c-3.217,0-6.847,1.531-9.96,4.2
	c-3.23,2.77-5.407,6.31-5.973,9.713c0,0.001,0,0.001,0,0.002c-1.355,8.132-5.796,15.249-12.505,20.041
	c-5.293,3.781-11.497,5.757-17.874,5.757c-1.706,0-3.424-0.142-5.141-0.428c-16.784-2.797-28.164-18.729-25.367-35.517
	c2.946-17.691,12.441-34.184,26.737-46.438C227.519,188.911,245.305,182.108,263.193,182.108z M263.193,196.108
	c-14.547,0-29.098,5.605-40.971,15.785c-11.805,10.119-19.631,23.652-22.038,38.108c-1.528,9.174,4.688,17.88,13.858,19.407
	c4.442,0.747,8.91-0.292,12.575-2.911c3.666-2.618,6.092-6.507,6.832-10.95c1.113-6.69,4.903-13.098,10.671-18.042
	c5.694-4.883,12.468-7.572,19.072-7.572c9.326,0,16.913-7.587,16.913-16.912C280.106,203.695,272.519,196.108,263.193,196.108z
	 M339.01,217.287c2.106-0.418,4.302-1.883,6.022-4.021c1.646-2.045,2.556-4.346,2.495-6.312
	c-0.422-13.647,10.339-25.097,23.988-25.52c13.646-0.402,25.1,10.341,25.522,23.99c0.421,13.716-4.363,27.5-13.475,38.816
	c-9.039,11.227-21.441,18.883-34.924,21.558c-1.621,0.322-3.251,0.481-4.867,0.481c-4.843,0-9.577-1.427-13.694-4.179
	c-5.492-3.672-9.225-9.262-10.512-15.741c-1.286-6.479,0.027-13.072,3.698-18.563c3.672-5.491,9.263-9.224,15.742-10.511
	C339.008,217.287,339.009,217.287,339.01,217.287z M341.734,231.02c-5.804,1.152-9.587,6.812-8.435,12.615
	c0.558,2.811,2.178,5.235,4.56,6.828c2.383,1.594,5.244,2.161,8.056,1.604c10.266-2.036,19.764-7.934,26.745-16.604
	c7.016-8.715,10.704-19.229,10.385-29.605c-0.18-5.819-4.974-10.434-10.759-10.434c-0.112,0-0.225,0.002-0.337,0.006
	c-5.933,0.184-10.611,5.16-10.427,11.094c0.163,5.335-1.819,10.847-5.584,15.521C352.135,226.77,347.091,229.957,341.734,231.02z
	 M325.498,153.043c1.366,1.367,3.158,2.051,4.95,2.051c1.791,0,3.582-0.684,4.949-2.05l3.056-3.055
	c2.733-2.732,2.734-7.165,0.001-9.899c-2.731-2.733-7.164-2.733-9.899-0.001l-3.056,3.055
	C322.766,145.876,322.765,150.309,325.498,153.043z M315.413,108.099c1.792,0,3.584-0.684,4.95-2.051l3.054-3.055
	c2.733-2.734,2.732-7.167-0.001-9.899c-2.735-2.735-7.168-2.732-9.899,0.001l-3.054,3.055c-2.733,2.734-2.732,7.167,0.001,9.899
	C311.83,107.416,313.621,108.099,315.413,108.099z M374.772,71.617c1.791,0,3.582-0.684,4.949-2.05l3.056-3.055
	c2.733-2.732,2.734-7.165,0.001-9.899c-2.731-2.732-7.164-2.733-9.899-0.001l-3.056,3.055c-2.733,2.732-2.734,7.165-0.001,9.899
	C371.188,70.934,372.98,71.617,374.772,71.617z M146.896,275.839c-2.735-2.735-7.168-2.732-9.899,0.001
	c-2.733,2.734-2.732,7.167,0.001,9.899l3.056,3.055c1.367,1.367,3.158,2.05,4.949,2.05c1.792,0,3.584-0.684,4.95-2.051
	c2.733-2.734,2.732-7.167-0.001-9.899L146.896,275.839z M158.643,233.955c1.791,0,3.583-0.684,4.95-2.05
	c2.733-2.734,2.733-7.166,0-9.9l-3.055-3.055c-2.734-2.732-7.166-2.732-9.9,0c-2.733,2.734-2.733,7.166,0,9.9l3.055,3.055
	C155.06,233.271,156.852,233.955,158.643,233.955z M94.678,217.405c-2.733,2.732-2.734,7.165-0.001,9.899l3.054,3.055
	c1.366,1.367,3.158,2.051,4.95,2.051c1.791,0,3.582-0.684,4.949-2.05c2.733-2.732,2.734-7.165,0.001-9.899l-3.054-3.055
	C101.847,214.673,97.414,214.673,94.678,217.405z M181.496,202.819c0.691,0.215,1.39,0.316,2.076,0.316
	c2.986,0,5.753-1.927,6.684-4.928c1.146-3.692-0.919-7.614-4.611-8.76c-2.864-0.889-5.021-3.147-5.769-6.041
	c-1.249-4.836-4.411-9.271-8.904-12.484c-4.45-3.184-9.583-4.703-14.455-4.271c-4.721,0.426-8.903-3.089-9.319-7.811
	c-0.415-4.723,3.089-8.903,7.811-9.319c8.867-0.777,18.07,1.871,25.895,7.469c7.843,5.609,13.544,13.8,15.641,22.472
	c0.908,3.76,4.698,6.067,8.448,5.159c3.758-0.908,6.068-4.691,5.159-8.448c-2.875-11.892-10.566-23.034-21.103-30.569
	c-10.542-7.541-23.061-11.107-35.269-10.027c-12.411,1.093-21.62,12.08-20.527,24.492c1.094,12.412,12.081,21.627,24.492,20.528
	c1.503-0.123,3.399,0.509,5.082,1.713c1.798,1.286,3.072,2.963,3.495,4.601C168.293,194.536,173.966,200.483,181.496,202.819z"/>
<g>
</g>
<g>
</g>
<g>
</g>
<g>
</g>
<g>
</g>
<g>
</g>
<g>
</g>
<g>
</g>
<g>
</g>
<g>
</g>
<g>
</g>
<g>
</g>
<g>
</g>
<g>
</g>
<g>
</g>
</svg>
