<?xml version="1.0" encoding="iso-8859-1"?>
<!-- Generator: Adobe Illustrator 17.1.0, SVG Export Plug-In . SVG Version: 6.00 Build 0)  -->
<!DOCTYPE svg PUBLIC "-//W3C//DTD SVG 1.1//EN" "http://www.w3.org/Graphics/SVG/1.1/DTD/svg11.dtd">
<svg version="1.1" id="Capa_1" xmlns="http://www.w3.org/2000/svg" xmlns:xlink="http://www.w3.org/1999/xlink" x="0px" y="0px"
	 viewBox="0 0 413.312 413.312" style="enable-background:new 0 0 413.312 413.312;" xml:space="preserve">
<path id="XMLID_143_" d="M302.848,190.569c-12.123-2.38-24.891-2.159-36.926,0.64c-3.766,0.876-6.107,4.639-5.232,8.404
	c0.876,3.765,4.637,6.109,8.404,5.232c8.562-1.992,17.568-2.432,26.31-1.309c2.945,22.652-4.717,45.402-20.982,61.668
	c-13.976,13.977-32.74,21.601-52.118,21.601c-0.09,0-0.182,0-0.271-0.001l39.968-39.969c2.733-2.733,2.733-7.165-0.001-9.899
	c-2.732-2.732-7.165-2.733-9.899,0.001l-8.098,8.099c3.543-12.009,5.426-24.863,5.426-38.035c0-36.289-14.289-70.158-38.224-90.602
	c-2.617-2.238-6.474-2.236-9.093,0c-21.72,18.554-35.498,48.165-37.861,80.602c-16.555-7.653-35.333-10.056-53.784-6.432
	c-2.791,0.548-4.973,2.729-5.521,5.521c-5.649,28.771,3.339,58.31,24.046,79.014c20.38,20.383,49.321,29.41,77.665,24.301
	c5.218,0.94,10.455,1.402,15.656,1.402c23.053,0,45.381-9.072,62.01-25.702c20.705-20.706,29.694-50.244,24.046-79.015
	C307.82,193.299,305.638,191.118,302.848,190.569z M151.314,246.836l39.967,39.968c-0.09,0.001-0.182,0.001-0.271,0.001
	c-19.376-0.001-38.144-7.625-52.119-21.602c-16.267-16.265-23.929-39.018-20.981-61.671c22.65-2.939,45.402,4.719,61.669,20.982
	c10.463,10.464,17.366,23.609,20.176,37.686c0.021,0.127,0.046,0.252,0.074,0.376c0.912,4.695,1.369,9.494,1.352,14.328
	l-39.965-39.967c-2.732-2.733-7.165-2.733-9.899-0.001C148.581,239.671,148.581,244.103,151.314,246.836z M213.656,260.337v-70.573
	c0-3.866-3.134-7-7-7s-7,3.134-7,7v37.057c-2.988-4.324-6.387-8.413-10.179-12.205c-3.607-3.606-7.48-6.857-11.573-9.737
	c0.493-29.022,11.072-55.951,28.754-73.63c18.111,18.107,28.77,45.921,28.77,75.752c0,24.843-7.393,48.289-20.325,65.892
	C214.921,268.664,214.437,264.468,213.656,260.337z M374.447,223.189c-0.144-7.899-0.246-13.607-0.246-16.474
	c0-23.786-6.072-159.852-6.765-175.288c-0.485-10.831-0.904-20.185-7.519-26.113c-4.813-4.315-11.625-5.849-22.777-5.13
	c-18.102,1.17-50.299,5.316-78.706,8.975c-9.384,1.209-18.558,2.39-26.489,3.365c-0.082,0.009-0.165,0.019-0.247,0.03
	c-11.407,1.401-20.208,2.37-23.314,2.37h-3.455c-5.279,0-27.016-2.8-50.028-5.764c-28.212-3.634-60.188-7.752-78.361-8.953
	C68.12-0.349,59.497-0.124,53.506,5.236c-5.579,4.992-7.02,12.617-7.466,22.53c-0.282,6.282-6.929,154.164-6.929,178.949
	c0,2.867-0.104,8.575-0.246,16.476c-0.719,39.844-2.216,122.753,3.073,159.19c3.182,21.901,12.024,30.932,31.029,30.931
	c1.583,0,3.238-0.063,4.965-0.186c14.66-1.046,37.423-3.808,59.97-6.677c0.045-0.005,0.09-0.011,0.135-0.018
	c5.679-0.723,11.344-1.452,16.859-2.162c23.014-2.964,44.751-5.764,50.031-5.764h3.455c5.28,0,27.019,2.8,50.034,5.764
	c26.635,3.43,56.824,7.318,75.374,8.738c23.9,1.832,34.08-6.478,37.585-30.651C376.661,345.908,375.165,263.022,374.447,223.189z
	 M357.521,380.348c-2.465,17.002-6.066,19.971-22.661,18.701c-18.189-1.393-48.188-5.256-74.654-8.665
	c-28.3-3.645-45.942-5.878-51.822-5.878c0,0-6.354,0.094-8.533,0.273c5.27-2.255,10.071-4.383,14.339-6.274
	c8.012-3.551,16.293-7.221,18.602-7.507c3.809-0.066,6.876-3.175,6.876-6.999c0-3.866-3.134-7-7-7
	c-4.333,0-10.176,2.514-24.15,8.707c-17.05,7.557-42.773,18.958-72.767,26.904c-22.227,2.827-44.572,5.535-58.813,6.551
	c-14.987,1.066-18.743-2.268-21.143-18.792c-5.126-35.311-3.588-120.534-2.931-156.926c0.145-7.974,0.248-13.735,0.248-16.729
	c0-24.474,6.633-172.05,6.915-178.32c0.205-4.565,0.721-10.853,2.814-12.727c1.23-1.101,4.02-1.653,8.317-1.653
	c1.34,0,2.826,0.054,4.457,0.161c17.739,1.173,49.486,5.262,77.496,8.87c13.837,1.782,25.127,3.227,33.738,4.238
	c-12.419,4.868-23.22,9.673-31.867,13.519c-8.106,3.605-16.485,7.333-18.815,7.629c-3.805,0.071-6.867,3.178-6.867,6.999
	c0,3.866,3.134,7,7,7c4.333,0,10.24-2.551,24.372-8.836c17.266-7.68,43.315-19.266,73.33-27.221
	c7.345-0.904,16.102-2.027,26.22-3.33c28.2-3.632,60.163-7.748,77.82-8.89c8.292-0.536,11.394,0.565,12.53,1.584
	c2.236,2.004,2.562,9.279,2.877,16.315c2.508,55.899,6.751,155.59,6.751,174.661c0,2.992,0.104,8.753,0.248,16.727
	C361.105,259.824,362.643,345.024,357.521,380.348z"/>
<g>
</g>
<g>
</g>
<g>
</g>
<g>
</g>
<g>
</g>
<g>
</g>
<g>
</g>
<g>
</g>
<g>
</g>
<g>
</g>
<g>
</g>
<g>
</g>
<g>
</g>
<g>
</g>
<g>
</g>
</svg>
