<?xml version="1.0" encoding="iso-8859-1"?>
<!-- Generator: Adobe Illustrator 17.1.0, SVG Export Plug-In . SVG Version: 6.00 Build 0)  -->
<!DOCTYPE svg PUBLIC "-//W3C//DTD SVG 1.1//EN" "http://www.w3.org/Graphics/SVG/1.1/DTD/svg11.dtd">
<svg version="1.1" id="Capa_1" xmlns="http://www.w3.org/2000/svg" xmlns:xlink="http://www.w3.org/1999/xlink" x="0px" y="0px"
	 viewBox="0 0 421.588 421.588" style="enable-background:new 0 0 421.588 421.588;" xml:space="preserve">
<path id="XMLID_154_" d="M196.061,351.282c2.09,3.253,1.147,7.583-2.105,9.673c-1.171,0.753-2.482,1.112-3.777,1.112
	c-2.303,0-4.558-1.136-5.896-3.217l-1.063-1.654c-2.09-3.253-1.147-7.583,2.105-9.673c3.252-2.091,7.583-1.147,9.673,2.104
	L196.061,351.282z M177.523,328.987c1.338,2.079,3.591,3.212,5.892,3.212c1.298,0,2.611-0.36,3.783-1.115
	c3.25-2.093,4.189-6.424,2.097-9.675l-1.065-1.654c-2.092-3.249-6.425-4.191-9.675-2.097c-3.25,2.093-4.189,6.424-2.097,9.675
	L177.523,328.987z M186.397,374.681c-2.091-3.253-6.424-4.193-9.673-2.104c-3.252,2.091-4.194,6.422-2.103,9.674l1.063,1.654
	c1.337,2.081,3.592,3.216,5.895,3.216c1.296,0,2.607-0.359,3.778-1.112c3.252-2.091,4.194-6.422,2.103-9.674L186.397,374.681z
	 M160.029,372.105c-2.092-3.251-6.425-4.19-9.675-2.097c-3.25,2.093-4.189,6.424-2.097,9.675l1.065,1.654
	c1.338,2.079,3.591,3.212,5.892,3.212c1.298,0,2.611-0.36,3.783-1.115c3.25-2.093,4.189-6.424,2.097-9.675L160.029,372.105z
	 M166.541,343.801c-2.09-3.253-6.421-4.195-9.673-2.106c-3.252,2.09-4.195,6.421-2.105,9.673l1.063,1.655
	c1.337,2.082,3.593,3.218,5.896,3.218c1.295,0,2.606-0.359,3.777-1.111c3.252-2.09,4.195-6.421,2.105-9.673L166.541,343.801z
	 M135.665,353.563c-2.089-3.254-6.418-4.196-9.673-2.107c-3.253,2.089-4.196,6.419-2.107,9.672l1.063,1.655
	c1.337,2.083,3.593,3.219,5.896,3.219c1.295,0,2.605-0.359,3.776-1.111c3.253-2.089,4.196-6.419,2.107-9.672L135.665,353.563z
	 M258.959,369.776c3.866,0,7-3.134,7-7s-3.134-7-7-7h-2.005c-3.866,0-7,3.134-7,7s3.134,7,7,7H258.959z M284.763,204.241
	c0.233,0,0.469-0.012,0.705-0.036c3.847-0.385,6.653-3.814,6.269-7.661l-10.132-101.31c-0.384-3.847-3.821-6.656-7.661-6.269
	c-3.847,0.385-6.653,3.814-6.269,7.661l10.132,101.31C278.167,201.547,281.21,204.241,284.763,204.241z M307.96,369.776h2.007
	c3.866,0,7-3.134,7-7s-3.134-7-7-7h-2.007c-3.866,0-7,3.134-7,7S304.094,369.776,307.96,369.776z M307.96,328.095h2.007
	c3.866,0,7-3.134,7-7s-3.134-7-7-7h-2.007c-3.866,0-7,3.134-7,7S304.094,328.095,307.96,328.095z M354.733,365.015v18.538
	c0,12.852-10.455,23.308-23.307,23.308H244.82c-3.866,0-7-3.134-7-7s3.134-7,7-7h86.606c5.132,0,9.307-4.176,9.307-9.308v-18.861
	c0-0.231,0.012-0.463,0.034-0.693c0.1-0.999,0.1-2.008,0.001-2.999c-0.023-0.231-0.035-0.465-0.035-0.697V213.547
	c0-5.132-4.175-9.307-9.306-9.307c-3.597,0-6.607-2.725-6.965-6.304L313.592,89.229c-1.036-10.373-8.312-20.874-20.212-20.874
	H184.671c-11.898,0-19.174,10.501-20.212,20.875l-10.872,108.707c-0.358,3.579-3.369,6.304-6.965,6.304
	c-5.131,0-9.305,4.175-9.305,9.307c0,3.866-3.134,7-7,7c-3.866,0-7-3.134-7-7c0-10.624,7.144-19.61,16.88-22.406l10.331-103.305
	c1.68-16.787,12.656-29.591,27.143-32.736V7c0-3.866,3.134-7,7-7H293.38c3.866,0,7,3.134,7,7v48.1
	c14.489,3.145,25.466,15.949,27.143,32.737l10.33,103.304c9.736,2.796,16.881,11.782,16.881,22.406v146.431
	C354.879,361.648,354.879,363.339,354.733,365.015z M286.38,14h-94.709v40.354h94.709V14z M194.895,204.241
	c3.553,0,6.596-2.694,6.957-6.305l10.131-101.31c0.385-3.847-2.422-7.276-6.269-7.661c-3.848-0.387-7.277,2.422-7.662,6.269
	l-10.131,101.31c-0.385,3.847,2.422,7.276,6.269,7.661C194.427,204.229,194.662,204.241,194.895,204.241z M246.023,210.922V95.931
	c0-3.866-3.134-7-7-7s-7,3.134-7,7v114.991c0,3.866,3.134,7,7,7S246.023,214.788,246.023,210.922z M214.89,282.853
	c10.733,18.052,16.56,41.995,15.984,65.691c-0.638,26.275-9.147,50.185-23.962,67.324c-0.88,1.02-2.037,1.763-3.329,2.141
	c-8.171,2.393-16.844,3.578-25.769,3.579c-14.824,0-30.343-3.271-45.431-9.715c-21.799-9.31-41.166-24.546-53.137-41.803
	c-13.328-19.214-16.053-38.68-7.918-54.514c-0.507-0.982-0.785-2.091-0.779-3.242c0.04-8.512,3.578-16.994,9.603-23.665
	c-5.803-5.655-9.014-13.542-8.722-22.177c0.077-2.268,1.248-4.357,3.141-5.606c7.98-5.265,17.467-7.473,26.238-6.347
	c2.616-8.446,8.561-16.163,16.663-21.239c1.922-1.203,4.309-1.401,6.403-0.531c7.979,3.317,13.823,9.511,16.561,17.138
	c8.569-2.713,17.754-2.411,25.514,1.086c1.049,0.473,1.941,1.184,2.625,2.053C186.368,252.201,202.938,262.751,214.89,282.853z
	 M95.38,293.859c-5.062,3.374-8.675,8.293-10.125,13.534c5.371,0.859,11.344-0.39,16.514-3.594c1.127-0.699,2.407-1.051,3.688-1.051
	c1.17,0,2.341,0.293,3.4,0.881c2.219,1.233,3.596,3.57,3.6,6.108c0.008,5.179,2.353,9.649,6.423,12.508
	c5.031-4.27,8.169-10.124,8.402-15.962c0.091-2.281,1.289-4.374,3.209-5.608c1.919-1.236,4.321-1.457,6.435-0.592
	c5.406,2.212,12.033,1.786,18.008-1.02c-0.914-4.89-4.008-8.879-8.715-11.034c-2.308-1.057-3.862-3.279-4.063-5.81
	s0.983-4.971,3.095-6.379c5.06-3.374,8.672-8.293,10.122-13.533c-5.368-0.857-11.343,0.389-16.512,3.593
	c-2.158,1.338-4.869,1.401-7.088,0.17c-2.218-1.232-3.596-3.57-3.6-6.108c-0.008-5.18-2.354-9.652-6.422-12.509
	c-5.033,4.271-8.17,10.123-8.402,15.96c-0.09,2.281-1.288,4.375-3.208,5.61c-1.919,1.234-4.321,1.456-6.436,0.592
	c-5.407-2.21-12.034-1.784-18.009,1.021c0.912,4.888,4.008,8.877,8.718,11.033c2.308,1.057,3.863,3.279,4.064,5.81
	S97.492,292.452,95.38,293.859z M202.857,290.008c-5.595-9.409-17.195-24.168-34.308-22.958c-1.586,5.078-4.356,9.886-8.074,14.002
	c5.8,5.654,9.01,13.539,8.722,22.174c-0.076,2.269-1.247,4.359-3.141,5.609c-7.981,5.266-17.471,7.471-26.24,6.346
	c-2.617,8.448-8.562,16.165-16.663,21.239c-1.922,1.204-4.308,1.402-6.404,0.53c-7.978-3.318-13.821-9.512-16.559-17.136
	c-5.288,1.674-10.813,2.201-16.089,1.537c-8.212,15.071,0.412,31.746,6.65,40.739c20.286,29.243,66.581,53.615,106.902,43.036
	C224.011,372.832,221.046,320.599,202.857,290.008z"/>
<g>
</g>
<g>
</g>
<g>
</g>
<g>
</g>
<g>
</g>
<g>
</g>
<g>
</g>
<g>
</g>
<g>
</g>
<g>
</g>
<g>
</g>
<g>
</g>
<g>
</g>
<g>
</g>
<g>
</g>
</svg>
