<?xml version="1.0" encoding="iso-8859-1"?>
<!-- Generator: Adobe Illustrator 17.1.0, SVG Export Plug-In . SVG Version: 6.00 Build 0)  -->
<!DOCTYPE svg PUBLIC "-//W3C//DTD SVG 1.1//EN" "http://www.w3.org/Graphics/SVG/1.1/DTD/svg11.dtd">
<svg version="1.1" id="Capa_1" xmlns="http://www.w3.org/2000/svg" xmlns:xlink="http://www.w3.org/1999/xlink" x="0px" y="0px"
	 viewBox="0 0 423.873 423.873" style="enable-background:new 0 0 423.873 423.873;" xml:space="preserve">
<path id="XMLID_1199_" d="M213.788,115.826l-30.577,41.057c-2.309,3.101-1.667,7.486,1.434,9.795
	c3.102,2.311,7.487,1.667,9.795-1.433l30.577-41.058c9.534-12.804,23.554-21.138,39.476-23.467
	c10.016-1.466,19.986-0.439,29.196,2.898c0.3,0.136,0.606,0.25,0.917,0.34c5.049,1.924,9.859,4.549,14.307,7.844
	c0.041,0.032,0.083,0.064,0.125,0.095c15.617,11.631,24.621,30.301,24.085,49.941c-0.105,3.864,2.941,7.083,6.806,7.188
	c0.065,0.001,0.13,0.002,0.195,0.002c3.777,0,6.89-3.009,6.993-6.809c0.466-17.039-4.909-33.494-14.86-46.747l12.229-16.421
	c5.172,2.256,10.882,3.03,16.602,2.193c8.083-1.183,15.221-5.442,20.101-11.994c10.07-13.524,7.262-32.721-6.261-42.792
	c-4.666-3.475-10.134-5.514-15.825-5.962c-2.06-5.325-5.579-9.98-10.245-13.455c-13.528-10.071-32.724-7.261-42.792,6.26
	c-4.881,6.552-6.917,14.611-5.734,22.695c0.837,5.721,3.216,10.969,6.857,15.277l-13.194,17.716
	c-10.082-2.937-20.788-3.692-31.528-2.123C242.844,89.739,225.557,100.023,213.788,115.826z M322.119,74.665
	c1.108-1.489,1.581-3.358,1.312-5.195c-0.269-1.837-1.256-3.492-2.745-4.601c-3.553-2.645-5.862-6.515-6.503-10.898
	c-0.642-4.383,0.463-8.753,3.109-12.306c5.46-7.332,15.868-8.854,23.203-3.394c3.426,2.551,5.711,6.277,6.436,10.491
	c0.632,3.677,4.038,6.213,7.739,5.764c4.244-0.513,8.469,0.61,11.895,3.162c7.332,5.461,8.854,15.87,3.395,23.203
	c-2.646,3.552-6.517,5.862-10.899,6.503c-4.374,0.642-8.75-0.461-12.303-3.108c-1.488-1.109-3.359-1.582-5.194-1.313
	c-1.837,0.269-3.492,1.256-4.602,2.745l-14.328,19.239c-1.628-1.464-3.328-2.861-5.097-4.185c-0.046-0.036-0.091-0.07-0.138-0.105
	c-3.185-2.372-6.519-4.464-9.975-6.271L322.119,74.665z M55.268,45.799c0-3.866,3.134-7,7-7h27.685c3.866,0,7,3.134,7,7
	s-3.134,7-7,7H62.268C58.401,52.799,55.268,49.665,55.268,45.799z M335.925,205.7H196.752c-32.305,0-58.587,24.704-58.587,55.069
	c0,30.366,26.282,55.07,58.587,55.07h139.173c32.307,0,58.59-24.705,58.59-55.071C394.515,230.403,368.231,205.7,335.925,205.7z
	 M335.925,301.839H196.752c-24.585,0-44.587-18.424-44.587-41.071c0-22.645,20.002-41.068,44.587-41.068h139.173
	c24.587,0,44.59,18.423,44.59,41.069C380.515,283.415,360.512,301.839,335.925,301.839z M423.873,260.769
	c0-45.362-36.904-82.267-82.266-82.267H191.073c-45.362,0-82.267,36.905-82.267,82.267c0,1.988,0.07,3.956,0.21,5.909l-0.21,63.355
	c0,45.362,36.904,82.266,82.267,82.266h150.534c45.361,0,82.266-36.904,82.266-82.266v-63.638c0-0.432-0.039-0.855-0.114-1.266
	C423.835,263.687,423.873,262.231,423.873,260.769z M409.873,330.033c0,37.642-30.624,68.266-68.266,68.266H191.073
	c-37.643,0-68.267-30.624-68.267-68.243l0.077-23.311c14.8,21.879,39.844,36.291,68.189,36.291h150.534
	c28.396,0,53.476-14.46,68.266-36.405V330.033z M409.7,265.649c-0.016,0.146-0.026,0.293-0.032,0.442
	c-2.727,35.163-32.211,62.944-68.061,62.944H191.073c-35.861,0-65.354-27.794-68.063-62.973c-0.006-0.129-0.203-3.645-0.203-5.294
	c0-37.643,30.624-68.267,68.267-68.267h150.534c37.642,0,68.266,30.624,68.266,68.267C409.873,262.41,409.814,264.038,409.7,265.649
	z M317.9,231.289l-22.385-1.166c-15.503-0.81-28.094,4.918-34.576,15.711c-5.534,9.212-5.535,20.657-0.001,29.869
	c6.081,10.122,17.54,15.788,31.719,15.788c0.939,0,1.895-0.025,2.857-0.075l22.386-1.166c24.602-1.282,35.808-16.18,35.808-29.48
	S342.502,232.57,317.9,231.289z M317.172,276.268l-22.386,1.166v0c-10.165,0.53-18.115-2.729-21.847-8.941
	c-2.862-4.765-2.862-10.685,0-15.45c3.469-5.773,10.593-8.996,19.733-8.996c0.693,0,1.398,0.019,2.113,0.056l22.386,1.166
	c15.483,0.807,22.536,8.6,22.536,15.499S332.655,275.461,317.172,276.268z M302.049,260.769c0,3.866-3.134,7-7,7h-2.128
	c-3.866,0-7-3.134-7-7s3.134-7,7-7h2.128C298.915,253.769,302.049,256.903,302.049,260.769z M102.392,185.889
	c-3.564,0.116-7.189,0.174-10.773,0.174c-20.361,0-39.858-1.854-54.897-5.221c-5.137-1.15-9.137-2.327-12.247-3.443v-15.132
	c30.882,8.811,85.592,9.756,121.334,6.163c3.847-0.387,6.651-3.818,6.265-7.665c-0.387-3.847-3.814-6.652-7.665-6.265
	c-26.449,2.659-59.112,2.592-85.242-0.171c-16.779-1.775-27.757-4.289-34.691-6.638V66.977c4.504,1.767,9.708,3.39,15.605,4.864
	c21.109,5.277,49.06,8.184,78.704,8.184s57.596-2.906,78.705-8.184c5.898-1.475,11.102-3.097,15.605-4.864v12.537
	c0,3.866,3.134,7,7,7s7-3.134,7-7V59.366c5.053-4.031,7.594-8.561,7.594-13.567c0-11.109-12.516-19.871-37.199-26.042
	c-21.108-5.277-49.06-8.183-78.705-8.183c-29.645,0-57.595,2.906-78.703,8.183c-24.685,6.171-37.2,14.933-37.2,26.042
	c0,5.007,2.541,9.536,7.594,13.567v76.647c-1.023-0.586-2.21-0.921-3.474-0.921c-3.866,0-7,3.134-7,7
	c0,2.858,0.94,7.116,5.421,11.168c1.384,1.252,3.079,2.426,5.053,3.526v9.043c-1.023-0.586-2.21-0.921-3.474-0.921
	c-3.866,0-7,3.134-7,7c0,5.67,3.452,10.478,10.474,14.508v9.231c-1.023-0.586-2.21-0.921-3.474-0.921c-3.866,0-7,3.134-7,7
	c0,5.67,3.452,10.478,10.474,14.507V324.4c0,22.53,53.748,29.259,76.856,31.106c0.189,0.015,0.378,0.023,0.565,0.023
	c3.612,0,6.677-2.779,6.97-6.443c0.309-3.854-2.566-7.228-6.42-7.535c-46.369-3.707-63.124-13.937-63.972-17.151V221.939
	c1.773,0.531,3.643,1.043,5.612,1.535c16.521,4.13,38.374,6.405,61.532,6.405c3.866,0,7-3.134,7-7c0-3.866-3.134-7-7-7
	c-20.361,0-39.857-1.854-54.896-5.221c-5.137-1.15-9.138-2.328-12.248-3.444v-15.093c1.773,0.532,3.643,1.043,5.612,1.536
	c16.521,4.13,38.374,6.405,61.532,6.405c3.734,0,7.512-0.061,11.227-0.181c3.864-0.125,6.895-3.359,6.77-7.223
	S106.271,185.762,102.392,185.889z M16.88,45.802c0.108-1.208,5.324-7.259,27.387-12.659c19.943-4.881,46.407-7.569,74.517-7.569
	c28.111,0,54.575,2.688,74.519,7.57c22.063,5.4,27.277,11.45,27.386,12.652c-0.108,1.208-5.323,7.259-27.385,12.659
	c-19.944,4.882-46.409,7.57-74.52,7.57c-28.109,0-54.573-2.688-74.518-7.57C22.203,53.055,16.988,47.004,16.88,45.802z"/>
<g>
</g>
<g>
</g>
<g>
</g>
<g>
</g>
<g>
</g>
<g>
</g>
<g>
</g>
<g>
</g>
<g>
</g>
<g>
</g>
<g>
</g>
<g>
</g>
<g>
</g>
<g>
</g>
<g>
</g>
</svg>
