<?xml version="1.0" encoding="iso-8859-1"?>
<!-- Generator: Adobe Illustrator 17.1.0, SVG Export Plug-In . SVG Version: 6.00 Build 0)  -->
<!DOCTYPE svg PUBLIC "-//W3C//DTD SVG 1.1//EN" "http://www.w3.org/Graphics/SVG/1.1/DTD/svg11.dtd">
<svg version="1.1" id="Capa_1" xmlns="http://www.w3.org/2000/svg" xmlns:xlink="http://www.w3.org/1999/xlink" x="0px" y="0px"
	 viewBox="0 0 425.531 425.531" style="enable-background:new 0 0 425.531 425.531;" xml:space="preserve">
<path id="XMLID_434_" d="M370.127,193.515c2.217,3.167,1.447,7.532-1.719,9.75l-24.162,16.919c-1.223,0.856-2.623,1.268-4.01,1.268
	c-2.206,0-4.378-1.041-5.74-2.985c-2.217-3.167-1.447-7.532,1.719-9.75l24.162-16.92
	C363.545,189.579,367.91,190.349,370.127,193.515z M234.178,135.031l-117.287,82.126c-3.167,2.218-3.937,6.583-1.72,9.749
	c1.362,1.945,3.534,2.986,5.74,2.986c1.387,0,2.787-0.411,4.009-1.267L242.208,146.5c3.167-2.218,3.937-6.583,1.72-9.749
	C241.709,133.583,237.343,132.814,234.178,135.031z M218.807,226.906c1.362,1.945,3.534,2.986,5.74,2.986
	c1.387,0,2.787-0.411,4.009-1.267l48.387-33.881c3.167-2.218,3.937-6.583,1.72-9.749c-2.219-3.168-6.583-3.936-9.749-1.72
	l-48.387,33.881C217.36,219.375,216.59,223.74,218.807,226.906z M55.405,196.189c1.362,1.945,3.534,2.986,5.74,2.986
	c1.387,0,2.787-0.411,4.009-1.267l139.854-97.927c3.167-2.218,3.937-6.583,1.72-9.749c-2.218-3.167-6.583-3.938-9.749-1.72
	L57.125,186.44C53.958,188.658,53.188,193.023,55.405,196.189z M320.812,172.878v245.653c0,3.866-3.134,7-7,7s-7-3.134-7-7V172.878
	c-26.628-3.443-47.264-26.263-47.264-53.813V54.264C259.548,24.343,283.89,0,313.811,0c29.922,0,54.266,24.343,54.266,54.264v64.802
	C368.077,146.615,347.44,169.435,320.812,172.878z M354.077,119.065V54.264c0-22.201-18.063-40.264-40.264-40.264
	c-22.202,0-40.265,18.063-40.265,40.264v64.802c0,22.2,18.062,40.262,40.263,40.262
	C336.013,159.327,354.077,141.266,354.077,119.065z M313.812,129.47c-8.271,0-15.001-6.729-15.001-15.001c0-3.866-3.134-7-7-7
	s-7,3.134-7,7c0,15.991,13.01,29.001,29.001,29.001c3.866,0,7-3.134,7-7S317.678,129.47,313.812,129.47z M61.145,126.61
	c1.387,0,2.787-0.411,4.009-1.267l36.221-25.361c3.167-2.218,3.937-6.582,1.72-9.749c-2.219-3.167-6.582-3.938-9.749-1.72
	l-36.221,25.361c-3.167,2.218-3.937,6.582-1.72,9.749C56.767,125.569,58.938,126.61,61.145,126.61z M394.318,56.426
	c-3.422-1.805-7.653-0.493-9.457,2.926c-1.804,3.42-0.493,7.654,2.926,9.457c12.381,6.529,20.072,19.211,20.072,33.096v113.331
	c0,20.612-16.769,37.381-37.381,37.381h-31.403c-3.866,0-7,3.134-7,7s3.134,7,7,7h31.403c14.716,0,28.005-6.217,37.381-16.164v2.537
	c0,11.829-6.187,22.242-15.492,28.172c-0.338,0.172-0.662,0.37-0.969,0.595c-4.964,2.931-10.748,4.613-16.919,4.613h-35.404
	c-3.866,0-7,3.134-7,7s3.134,7,7,7h35.404c3.532,0,6.974-0.388,10.287-1.125c-7.355,22.862-25.547,44.029-49.063,56.95
	c-3.388,1.861-4.625,6.117-2.764,9.506c1.274,2.319,3.67,3.63,6.141,3.63c1.14,0,2.296-0.278,3.365-0.866
	c27.429-15.071,48.52-40.285,56.418-67.446l2.659-9.144c12.283-8.569,20.336-22.805,20.336-38.885V101.904
	C421.859,82.812,411.306,65.385,394.318,56.426z M55.053,266.616h233.499c3.866,0,7-3.134,7-7s-3.134-7-7-7H55.053
	c-20.612,0-37.381-16.769-37.381-37.381V101.904c0-20.612,16.769-37.381,37.381-37.381h181.521c3.866,0,7-3.134,7-7s-3.134-7-7-7
	H55.053c-28.331,0-51.381,23.05-51.381,51.381v151.085c0,16.114,8.085,30.375,20.413,38.938l2.643,9.09
	c12.961,44.569,60.19,80.829,105.282,80.829h156.542c3.866,0,7-3.134,7-7s-3.134-7-7-7H132.01
	c-37.907,0-79.112-31.189-91.179-68.587c3.292,0.727,6.712,1.109,10.22,1.109h237.501c3.866,0,7-3.134,7-7s-3.134-7-7-7H51.051
	c-6.146,0-11.908-1.669-16.859-4.579c-0.305-0.221-0.626-0.417-0.961-0.587c-9.343-5.923-15.559-16.356-15.559-28.214v-2.537
	C27.048,260.399,40.337,266.616,55.053,266.616z"/>
<g>
</g>
<g>
</g>
<g>
</g>
<g>
</g>
<g>
</g>
<g>
</g>
<g>
</g>
<g>
</g>
<g>
</g>
<g>
</g>
<g>
</g>
<g>
</g>
<g>
</g>
<g>
</g>
<g>
</g>
</svg>
