<?xml version="1.0" encoding="iso-8859-1"?>
<!-- Generator: Adobe Illustrator 17.1.0, SVG Export Plug-In . SVG Version: 6.00 Build 0)  -->
<!DOCTYPE svg PUBLIC "-//W3C//DTD SVG 1.1//EN" "http://www.w3.org/Graphics/SVG/1.1/DTD/svg11.dtd">
<svg version="1.1" id="Capa_1" xmlns="http://www.w3.org/2000/svg" xmlns:xlink="http://www.w3.org/1999/xlink" x="0px" y="0px"
	 viewBox="0 0 368.582 368.582" style="enable-background:new 0 0 368.582 368.582;" xml:space="preserve">
<path id="XMLID_1454_" d="M161.546,317.745c0-3.866,3.134-7,7-7h2.062c3.866,0,7,3.134,7,7s-3.134,7-7,7h-2.062
	C164.68,324.745,161.546,321.611,161.546,317.745z M114.781,310.745h-2.063c-3.866,0-7,3.134-7,7s3.134,7,7,7h2.063
	c3.866,0,7-3.134,7-7S118.648,310.745,114.781,310.745z M168.546,282.467h2.062c3.866,0,7-3.134,7-7s-3.134-7-7-7h-2.062
	c-3.866,0-7,3.134-7,7S164.68,282.467,168.546,282.467z M220.624,324.745h2.062c3.866,0,7-3.134,7-7s-3.134-7-7-7h-2.062
	c-3.866,0-7,3.134-7,7S216.758,324.745,220.624,324.745z M112.717,240.188h2.064c3.866,0,7-3.134,7-7s-3.134-7-7-7h-2.064
	c-3.866,0-7,3.134-7,7S108.851,240.188,112.717,240.188z M60.239,324.745h2.063c3.866,0,7-3.134,7-7s-3.134-7-7-7h-2.063
	c-3.866,0-7,3.134-7,7S56.373,324.745,60.239,324.745z M360.668,303.879v57.648c0.002,0.197,0.371,7.055-6.917,7.055
	c-0.009-0.001-0.035,0-0.043,0c-0.008,0-0.013-0.001-0.02,0c-0.007,0-0.014,0-0.021,0H14.91c-3.866,0-7-3.134-7-7V7
	c0-3.866,3.134-7,7-7h41.879c1.856,0,3.637,0.737,4.949,2.05l7.492,7.492c2.734,2.733,2.734,7.166,0.001,9.899
	c-2.734,2.733-7.167,2.734-9.899,0L53.89,14H21.91v5.924l324.758,324.759v-37.904l-10.965-10.965
	c-1.915,0.467-3.982,0.709-6.182,0.709c-1.856,0-3.637-0.737-4.95-2.05L75.421,45.322c-1.598-1.598-2.326-3.87-1.955-6.1
	c3.42-20.533,15.656-25.143,20.758-26.172c8.389-1.691,17.169,1.597,23.665,8.528c6.773-2.986,14.135-4.544,21.6-4.544
	c29.518,0,53.531,24.014,53.531,53.53c0,6.922-1.348,13.783-3.933,20.154c1.791,1.369,3.493,2.85,5.1,4.436
	c2.132-0.256,4.285-0.386,6.438-0.386c20.035,0,37.535,11.064,46.71,27.403c6.916-5.185,15.351-8.034,24.261-8.034
	c22.364,0,40.56,18.195,40.56,40.559c0,6.851-1.721,13.51-4.946,19.419c17.083,8.953,28.765,26.863,28.765,47.45
	c0,6.401-1.156,12.765-3.379,18.729c12.686,8.284,19.951,25.936,17.944,38.745c-0.518,3.304-1.595,6.206-3.161,8.647l11.241,11.241
	C359.931,300.242,360.668,302.022,360.668,303.879z M254.154,148.3c0,4.345-0.515,8.621-1.534,12.778
	c5.284,2.253,10.185,5.352,14.506,9.179c4.945-1.477,10.079-2.223,15.315-2.223c3.9,0,7.707,0.42,11.372,1.216
	c2.82-4.298,4.341-9.341,4.341-14.553c0-14.645-11.915-26.559-26.56-26.559c-7.184,0-13.897,2.831-18.865,7.865
	C253.661,139.953,254.154,144.07,254.154,148.3z M321.299,250.251c-1.98-0.636-3.574-2.119-4.352-4.048s-0.657-4.103,0.328-5.934
	c3.073-5.71,4.697-12.177,4.697-18.703c0-21.797-17.733-39.531-39.531-39.531c-5.019,0-9.9,0.924-14.511,2.746
	c-2.655,1.049-5.678,0.38-7.644-1.685c-4.987-5.242-11.292-9.012-18.231-10.902c-1.922-0.523-3.53-1.841-4.421-3.623
	s-0.98-3.858-0.247-5.71c1.836-4.63,2.767-9.529,2.767-14.56c0-21.797-17.733-39.53-39.53-39.53c-2.574,0-5.147,0.249-7.648,0.741
	c-2.449,0.483-4.975-0.38-6.62-2.262c-2.796-3.198-6.069-5.915-9.73-8.075c-3.27-1.929-4.406-6.112-2.562-9.43
	c3.242-5.832,4.956-12.464,4.956-19.178c0-21.797-17.733-39.53-39.531-39.53c-7.052,0-13.975,1.88-20.019,5.438
	c-3.258,1.917-7.451,0.902-9.471-2.297c-3.356-5.32-8.587-8.292-13.008-7.401c-4.091,0.825-7.277,4.891-8.986,11.332L332.169,282.27
	c2.684-0.596,4.05-2.279,4.538-5.396C338.118,267.864,330.901,253.335,321.299,250.251z M336.769,354.582L21.91,39.723v314.859
	H336.769z M60.239,282.467h2.062c3.866,0,7-3.134,7-7s-3.134-7-7-7h-2.062c-3.866,0-7,3.134-7,7S56.373,282.467,60.239,282.467z
	 M60.239,240.188h2.063c3.866,0,7-3.134,7-7s-3.134-7-7-7h-2.063c-3.866,0-7,3.134-7,7S56.373,240.188,60.239,240.188z
	 M112.717,282.467h2.064c3.866,0,7-3.134,7-7s-3.134-7-7-7h-2.064c-3.866,0-7,3.134-7,7S108.851,282.467,112.717,282.467z
	 M60.239,188.981h2.063c3.866,0,7-3.134,7-7s-3.134-7-7-7h-2.063c-3.866,0-7,3.134-7,7S56.373,188.981,60.239,188.981z"/>
<g>
</g>
<g>
</g>
<g>
</g>
<g>
</g>
<g>
</g>
<g>
</g>
<g>
</g>
<g>
</g>
<g>
</g>
<g>
</g>
<g>
</g>
<g>
</g>
<g>
</g>
<g>
</g>
<g>
</g>
</svg>
