<?xml version="1.0" encoding="iso-8859-1"?>
<!-- Generator: Adobe Illustrator 17.1.0, SVG Export Plug-In . SVG Version: 6.00 Build 0)  -->
<!DOCTYPE svg PUBLIC "-//W3C//DTD SVG 1.1//EN" "http://www.w3.org/Graphics/SVG/1.1/DTD/svg11.dtd">
<svg version="1.1" id="Capa_1" xmlns="http://www.w3.org/2000/svg" xmlns:xlink="http://www.w3.org/1999/xlink" x="0px" y="0px"
	 viewBox="0 0 410.668 410.668" style="enable-background:new 0 0 410.668 410.668;" xml:space="preserve">
<path id="XMLID_751_" d="M47.745,172.254c3.866,0,7,3.134,7,7c0,35.317,13.755,68.521,38.73,93.497
	c18.166,18.166,40.973,30.564,65.955,35.856c3.782,0.801,6.199,4.517,5.397,8.299c-0.698,3.293-3.604,5.551-6.841,5.551
	c-0.48,0-0.968-0.05-1.458-0.153c-27.64-5.855-52.866-19.567-72.953-39.653c-27.62-27.62-42.831-64.339-42.831-103.396
	C40.745,175.389,43.879,172.254,47.745,172.254z M51.628,153.502c3.159,0,6.025-2.153,6.799-5.359c0.189-0.785,0.386-1.57,0.59-2.35
	c0.978-3.74-1.263-7.565-5.003-8.542c-3.74-0.977-7.564,1.263-8.542,5.003c-0.226,0.865-0.444,1.734-0.654,2.604
	c-0.907,3.758,1.405,7.54,5.163,8.447C50.532,153.438,51.084,153.502,51.628,153.502z M280.302,166.41
	c4.027-13.184,13.691-23.3,25.908-28.068c-6.124-6.726-10.485-15.035-12.174-23.69c-0.4-2.053,0.138-4.177,1.468-5.791
	s3.312-2.549,5.403-2.549h40.545c2.091,0,4.073,0.935,5.402,2.549c1.33,1.614,1.868,3.738,1.468,5.791
	c-1.594,8.18-5.512,16.111-11.341,23.165c12.887,4.52,23.147,14.902,27.329,28.594c1.129,3.698-0.953,7.61-4.65,8.74
	c-0.682,0.208-1.37,0.307-2.047,0.307c-2.998,0-5.771-1.941-6.692-4.957c-3.866-12.659-15.364-21.165-28.611-21.167
	c-0.004,0-0.007,0-0.011,0c-13.245,0.003-24.742,8.508-28.607,21.167c-1.129,3.697-5.041,5.779-8.74,4.65
	C281.255,174.021,279.173,170.108,280.302,166.41z M310.662,120.312c2.57,5.143,6.443,9.829,11.07,13.316
	c4.34-4.053,7.742-8.578,10.032-13.316H310.662z M285.234,253.1h-2.1c-3.866,0-7,3.134-7,7s3.134,7,7,7h2.1c3.866,0,7-3.134,7-7
	S289.1,253.1,285.234,253.1z M402.949,245.07v108.075c0,31.718-25.805,57.523-57.524,57.523H244.379
	c-31.719,0-57.524-25.805-57.524-57.523V245.07c0-31.719,25.805-57.523,57.524-57.523h101.046
	C377.144,187.546,402.949,213.351,402.949,245.07z M388.897,355.297c-10.556,12.177-26.129,19.89-43.472,19.89H244.379
	c-17.342,0-32.916-7.713-43.471-19.89c1.126,23.002,20.194,41.371,43.471,41.371h101.046
	C368.702,396.668,387.77,378.299,388.897,355.297z M388.897,319.815c-10.556,12.177-26.129,19.89-43.472,19.89H244.379
	c-17.342,0-32.916-7.713-43.471-19.89c1.126,23.002,20.194,41.371,43.471,41.371h101.046
	C368.702,361.187,387.77,342.817,388.897,319.815z M388.947,282.646c-10.556,12.21-26.152,19.948-43.521,19.948H244.379
	c-17.37,0-32.965-7.738-43.521-19.948c0.25,23.785,19.678,43.06,43.521,43.06h101.046
	C369.269,325.705,388.696,306.431,388.947,282.646z M388.949,245.07c0-23.999-19.525-43.523-43.524-43.523H244.379
	c-23.999,0-43.524,19.524-43.524,43.523s19.525,43.523,43.524,43.523h101.046C369.424,288.593,388.949,269.069,388.949,245.07z
	 M306.671,223.04h-2.102c-3.866,0-7,3.134-7,7c0,3.866,3.134,7,7,7h2.102c3.866,0,7-3.134,7-7
	C313.671,226.174,310.537,223.04,306.671,223.04z M346.332,253.1h-2.102c-3.866,0-7,3.134-7,7s3.134,7,7,7h2.102
	c3.866,0,7-3.134,7-7S350.198,253.1,346.332,253.1z M245.573,223.04h-2.101c-3.866,0-7,3.134-7,7c0,3.866,3.134,7,7,7h2.101
	c3.866,0,7-3.134,7-7C252.573,226.174,249.44,223.04,245.573,223.04z M158.113,280.664c-17.188-4.88-32.984-14.171-45.682-26.869
	c-19.908-19.908-30.872-46.38-30.872-74.541s10.964-54.634,30.872-74.542c19.908-19.908,46.38-30.872,74.542-30.872
	c16.498,0,29.919-13.422,29.919-29.919c0-0.235-0.003-0.468-0.008-0.702c-0.001-0.043-0.002-0.086-0.003-0.129
	C216.44,26.975,203.193,14,186.973,14c-44.138,0-85.636,17.19-116.85,48.405c-31.214,31.213-48.404,72.711-48.404,116.85
	c0,44.137,17.19,85.635,48.404,116.849c24.906,24.906,56.369,40.946,90.988,46.386c3.819,0.6,6.429,4.183,5.829,8.001
	c-0.542,3.451-3.52,5.915-6.906,5.915c-0.362,0-0.727-0.028-1.095-0.086c-37.565-5.903-71.7-23.302-98.715-50.316
	C26.365,272.145,7.719,227.131,7.719,179.254c0-47.877,18.646-92.891,52.505-126.749C94.082,18.647,139.096,0,186.973,0
	c18.808,0,34.892,11.884,41.14,28.537c7.124-5.958,15.158-9.96,23.448-11.577c2.049-0.399,4.176,0.138,5.791,1.468
	c1.614,1.33,2.549,3.312,2.549,5.403v40.546c0,2.091-0.935,4.073-2.549,5.403c-1.614,1.329-3.74,1.868-5.791,1.468
	c-8.551-1.668-16.763-5.944-23.444-11.952c-6.245,16.658-22.331,28.545-41.143,28.545c-24.422,0-47.379,9.508-64.643,26.771
	s-26.771,40.221-26.771,64.643s9.508,47.378,26.771,64.642c11.013,11.013,24.709,19.07,39.606,23.3
	c3.719,1.056,5.877,4.927,4.822,8.646C165.703,279.561,161.834,281.722,158.113,280.664z M232.586,43.55
	c3.486,4.627,8.172,8.5,13.315,11.07V33.518C241.163,35.809,236.638,39.21,232.586,43.55z"/>
<g>
</g>
<g>
</g>
<g>
</g>
<g>
</g>
<g>
</g>
<g>
</g>
<g>
</g>
<g>
</g>
<g>
</g>
<g>
</g>
<g>
</g>
<g>
</g>
<g>
</g>
<g>
</g>
<g>
</g>
</svg>
