<?xml version="1.0" encoding="iso-8859-1"?>
<!-- Generator: Adobe Illustrator 17.1.0, SVG Export Plug-In . SVG Version: 6.00 Build 0)  -->
<!DOCTYPE svg PUBLIC "-//W3C//DTD SVG 1.1//EN" "http://www.w3.org/Graphics/SVG/1.1/DTD/svg11.dtd">
<svg version="1.1" id="Capa_1" xmlns="http://www.w3.org/2000/svg" xmlns:xlink="http://www.w3.org/1999/xlink" x="0px" y="0px"
	 viewBox="0 0 447.738 447.738" style="enable-background:new 0 0 447.738 447.738;" xml:space="preserve">
<path id="XMLID_168_" d="M208.776,248.205c1.18,0.793,2.542,1.189,3.903,1.189s2.723-0.396,3.903-1.189
	c12.754-8.566,20.369-22.845,20.369-38.195c0-15.35-7.614-29.628-20.369-38.194c-2.36-1.586-5.445-1.586-7.806,0
	c-12.755,8.567-20.371,22.846-20.371,38.194C188.406,225.359,196.021,239.637,208.776,248.205z M212.679,186.52
	c6.503,6.01,10.271,14.485,10.271,23.489c0,9.005-3.768,17.48-10.271,23.49c-6.504-6.011-10.273-14.486-10.273-23.49
	C202.406,201.006,206.175,192.531,212.679,186.52z M319.596,425.962c0,3.866-3.134,7-7,7H204.293c-2.299,0-4.452-1.129-5.759-3.021
	c-1.307-1.893-1.602-4.306-0.788-6.456l45.644-120.68c17.797-47.064,41.806-72.985,67.604-72.985
	c25.799,0,49.809,25.92,67.606,72.986l1.007,2.669c1.365,3.617-0.46,7.655-4.077,9.021c-3.619,1.367-7.656-0.461-9.021-4.077
	l-1.006-2.665c-15.364-40.629-35.232-63.934-54.509-63.934c-19.277,0-39.146,23.305-54.51,63.938l-42.06,111.204h98.171
	C316.462,418.962,319.596,422.096,319.596,425.962z M72.203,298.187c-8.958-24.379-5.195-51.503,10.064-72.557
	c1.668-2.303,4.563-3.366,7.328-2.693c22.761,5.556,41.611,20.808,51.717,41.847c1.674,3.485,0.206,7.667-3.279,9.341
	s-7.667,0.205-9.34-3.278c-7.587-15.795-21.193-27.612-37.773-32.99c-10.242,16.621-12.365,37.024-5.576,55.502
	c5.385,14.653,15.827,26.6,29.181,33.927c-4.997-10.812-8.631-22.229-10.865-34.162c-0.019-0.099-0.035-0.198-0.049-0.298
	c-0.547-3.827,2.112-7.377,5.939-7.923c3.755-0.539,7.229,2.003,7.882,5.705c3.662,19.512,11.47,37.5,23.209,53.464
	c2.291,3.114,1.623,7.495-1.492,9.786c-1.249,0.918-2.702,1.36-4.141,1.36c-2.151,0-4.273-0.987-5.646-2.854
	c-1.402-1.906-2.753-3.839-4.054-5.797C100.76,340.046,80.978,322.063,72.203,298.187z M175.834,418.962h-6.679V163.531
	c0-15.444,10.484-28.886,25.496-32.687c3.106-0.787,5.282-3.582,5.282-6.786V79.299h25.491v44.759c0,3.204,2.176,6,5.283,6.786
	c15.011,3.799,25.494,17.24,25.494,32.687v65.395c0,3.866,3.134,7,7,7s7-3.134,7-7v-65.395c0-20-12.409-37.623-30.777-44.595V77.867
	c1.675-1.279,2.756-3.297,2.756-5.567V21.776c0-3.866-3.134-7-7-7h-45.005c-3.866,0-7,3.134-7,7v50.523
	c0,2.271,1.082,4.289,2.757,5.568v41.069c-18.368,6.973-30.778,24.596-30.778,44.594v262.432c0,3.866,3.134,7,7,7h13.679
	c3.866,0,7-3.134,7-7S179.7,418.962,175.834,418.962z M197.176,28.776h31.005v36.523h-31.005V28.776z M343.602,297.232
	c3.866,0,7,3.134,7,7s-3.134,7-7,7h-2.101c-3.866,0-7-3.134-7-7s3.134-7,7-7H343.602z M135.672,368.33
	c-4.753-0.457-9.503-0.641-14.236-0.67c-20.201-14.955-46.295-19.271-70.276-11.515C26.448,364.136,7.424,383.832,0.27,408.83
	c-0.782,2.734,0.167,5.67,2.402,7.428c13.943,10.966,30.914,16.697,48.139,16.697c8.026,0,16.111-1.246,23.965-3.786
	c22.971-7.43,41.027-24.975,49.201-47.489c3.446,0.059,6.899,0.254,10.354,0.586c3.846,0.36,7.268-2.45,7.638-6.298
	S139.52,368.7,135.672,368.33z M70.469,415.848c-18.727,6.057-39.03,3.134-55.238-7.755c6.761-18.314,21.507-32.57,40.237-38.628
	c13.463-4.356,27.74-4.07,40.724,0.481c-5.565,1.005-11.091,2.339-16.564,4.002c-0.06,0.018-0.119,0.037-0.178,0.057l-0.006,0.002
	c-3.668,1.223-5.647,5.186-4.424,8.854c1.204,3.612,5.071,5.589,8.693,4.479c8.17-2.481,16.472-4.153,24.847-5.008
	C101.101,398.171,87.416,410.367,70.469,415.848z M332.153,382.669c0,3.866-3.134,7-7,7h-2.102c-3.866,0-7-3.134-7-7s3.134-7,7-7
	h2.102C329.019,375.669,332.153,378.803,332.153,382.669z M412.504,400.702c0,3.866-3.134,7-7,7h-2.101c-3.866,0-7-3.134-7-7
	s3.134-7,7-7h2.101C409.37,393.702,412.504,396.835,412.504,400.702z M287.487,304.232c0,3.866-3.134,7-7,7h-2.102
	c-3.866,0-7-3.134-7-7s3.134-7,7-7h2.102C284.353,297.232,287.487,300.366,287.487,304.232z M447.286,423.486l-21.888-57.873
	c-11.675-30.874-25.928-37.355-35.828-37.355c-9.901,0-24.154,6.481-35.829,37.354l-21.888,57.874
	c-0.813,2.151-0.519,4.563,0.788,6.456c1.307,1.892,3.46,3.021,5.759,3.021h102.338c2.299,0,4.452-1.129,5.759-3.021
	C447.804,428.049,448.099,425.637,447.286,423.486z M348.531,418.962l18.304-48.398c6.703-17.725,15.201-28.307,22.734-28.307
	c7.532,0,16.031,10.582,22.733,28.308l18.304,48.397H348.531z M289.837,333.718c0-3.866,3.134-7,7-7h2.101c3.866,0,7,3.134,7,7
	s-3.134,7-7,7h-2.101C292.971,340.718,289.837,337.584,289.837,333.718z M289.837,277.827c0-3.866,3.134-7,7-7h2.101
	c3.866,0,7,3.134,7,7s-3.134,7-7,7h-2.101C292.971,284.827,289.837,281.693,289.837,277.827z M309.945,311.232c-3.866,0-7-3.134-7-7
	s3.134-7,7-7h2.1c3.866,0,7,3.134,7,7s-3.134,7-7,7H309.945z M323.051,284.827c-3.866,0-7-3.134-7-7s3.134-7,7-7h2.102
	c3.866,0,7,3.134,7,7s-3.134,7-7,7H323.051z"/>
<g>
</g>
<g>
</g>
<g>
</g>
<g>
</g>
<g>
</g>
<g>
</g>
<g>
</g>
<g>
</g>
<g>
</g>
<g>
</g>
<g>
</g>
<g>
</g>
<g>
</g>
<g>
</g>
<g>
</g>
</svg>
