<?xml version="1.0" encoding="iso-8859-1"?>
<!-- Generator: Adobe Illustrator 17.1.0, SVG Export Plug-In . SVG Version: 6.00 Build 0)  -->
<!DOCTYPE svg PUBLIC "-//W3C//DTD SVG 1.1//EN" "http://www.w3.org/Graphics/SVG/1.1/DTD/svg11.dtd">
<svg version="1.1" id="Capa_1" xmlns="http://www.w3.org/2000/svg" xmlns:xlink="http://www.w3.org/1999/xlink" x="0px" y="0px"
	 viewBox="0 0 413.937 413.937" style="enable-background:new 0 0 413.937 413.937;" xml:space="preserve">
<path id="XMLID_1575_" d="M126.451,62.595c13.848-20.289,21.741-33.646,10.041-51.802c-2.095-3.25-1.157-7.582,2.092-9.676
	c3.251-2.095,7.583-1.157,9.676,2.092c17.324,26.885,2.678,48.345-10.246,67.278c-13.848,20.289-21.741,33.646-10.041,51.802
	c2.095,3.25,1.157,7.582-2.092,9.676c-1.173,0.756-2.487,1.117-3.785,1.117c-2.3,0-4.553-1.132-5.891-3.209
	C98.881,102.988,113.528,81.528,126.451,62.595z M215.263,155.467h2.101c3.866,0,7-3.134,7-7s-3.134-7-7-7h-2.101
	c-3.866,0-7,3.134-7,7S211.396,155.467,215.263,155.467z M86.956,133.082c1.298,0,2.612-0.361,3.784-1.116
	c3.25-2.095,4.188-6.427,2.094-9.676c-11.699-18.157-3.806-31.514,10.042-51.802c12.923-18.935,27.569-40.395,10.245-67.279
	c-2.093-3.249-6.425-4.187-9.676-2.092c-3.249,2.094-4.187,6.426-2.092,9.676c11.7,18.157,3.807,31.514-10.041,51.803
	c-12.923,18.934-27.569,40.393-10.248,67.276C82.403,131.949,84.656,133.082,86.956,133.082z M382.588,267.873V303
	c0,3.866-3.134,7-7,7h-10.204c-1.671,37.932-16.889,73.832-43.276,101.745c-1.322,1.398-3.162,2.191-5.087,2.191h-49.883
	c-0.037,0.001-0.075,0.001-0.112,0.001c-0.038,0-0.075,0-0.113-0.001H96.916c-1.925,0-3.765-0.793-5.087-2.191
	C65.44,383.833,50.223,347.932,48.552,310H38.35c-3.866,0-7-3.134-7-7v-35.127c0-3.866,3.134-7,7-7h12.188
	c3.706-20.93,12.191-41.299,25.288-60.705l-2.576-2.576c-9.313-9.315-9.313-24.472,0-33.787l0.001-0.001
	c4.5-4.499,10.499-6.977,16.894-6.977c6.396,0,12.395,2.478,16.894,6.978l1.444,1.444c0.043,0,0.085,0,0.128,0.001
	c1.695,0.031,3.396,0.055,5.106,0.055c22.423,0,41.749-17.014,60.438-33.468c13.731-12.089,26.702-23.508,40.996-28.593
	c17.095-6.082,32.941-1.929,48.44,12.69c1.396,1.156,2.795,2.336,4.186,3.531c3.089-1.417,6.479-2.163,9.988-2.163
	c6.396,0,12.395,2.478,16.894,6.978c7.197,7.197,8.834,17.882,4.909,26.665c13.937,15.785,26.834,33.26,38.384,52.012
	c0.063,0.103,0.124,0.206,0.181,0.311c14.997,12.657,24.536,31.583,24.536,52.697c0,1.637-0.059,3.274-0.175,4.908h13.095
	C379.454,260.873,382.588,264.007,382.588,267.873z M293.725,201.022c-12.468,0-24.381,4.166-34.051,11.823
	c4.414,5.492,8.004,11.669,10.584,18.349c6.188-5.852,14.513-9.354,23.467-9.354c18.816,0,34.125,15.309,34.125,34.125
	c0,1.658-0.116,3.296-0.348,4.908h20.946c0.146-1.631,0.219-3.271,0.219-4.908C348.668,225.67,324.02,201.022,293.725,201.022z
	 M274.859,255.965c0,1.636-0.059,3.273-0.175,4.908h38.567c0.398-1.589,0.599-3.229,0.599-4.908
	c0-11.097-9.028-20.125-20.125-20.125c-8.745,0-16.473,5.661-19.146,13.892C274.765,251.784,274.859,253.865,274.859,255.965z
	 M240.042,255.965c0,1.658-0.116,3.296-0.347,4.908h20.945c0.146-1.633,0.219-3.271,0.219-4.908
	c0-30.295-24.647-54.942-54.943-54.942c-30.295,0-54.942,24.647-54.942,54.942c0,1.638,0.073,3.277,0.219,4.908h20.945
	c-0.23-1.612-0.347-3.25-0.347-4.908c0-18.816,15.309-34.125,34.125-34.125C224.733,221.84,240.042,237.148,240.042,255.965z
	 M205.916,235.84c-11.097,0-20.125,9.028-20.125,20.125c0,1.679,0.2,3.318,0.599,4.908h39.054c0.398-1.589,0.599-3.229,0.599-4.908
	C226.042,244.868,217.014,235.84,205.916,235.84z M258.932,146.016c-3.854,3.856-3.854,10.133,0.002,13.991
	c1.854,1.854,4.339,2.876,6.994,2.876s5.14-1.021,6.994-2.877l11.836-11.838c0.229-0.229,0.444-0.466,0.646-0.712
	c0.037-0.048,0.074-0.094,0.113-0.141c1.373-1.733,2.118-3.876,2.118-6.143c0-2.655-1.021-5.139-2.878-6.994
	c0-0.001,0-0.001,0-0.001c-1.854-1.854-4.338-2.876-6.993-2.876c-2.299,0-4.47,0.766-6.216,2.177
	c-0.044,0.037-0.088,0.073-0.132,0.108c-0.223,0.187-0.438,0.384-0.646,0.592L258.932,146.016z M83.149,187.693l6.626,6.627
	c0.069,0.065,0.137,0.133,0.202,0.202l5.009,5.009c3.856,3.856,10.132,3.857,13.988-0.001c3.857-3.856,3.857-10.133,0-13.989
	l-6.823-6.823c-0.041-0.04-0.081-0.08-0.121-0.12c-0.017-0.017-0.033-0.033-0.049-0.051l-4.844-4.843
	c-1.855-1.855-4.339-2.877-6.994-2.877s-5.139,1.021-6.994,2.876C79.293,177.56,79.293,183.836,83.149,187.693z M64.78,260.873
	h72.368c-0.116-1.634-0.175-3.271-0.175-4.908c0-38.015,30.928-68.942,68.942-68.942c16.657,0,31.952,5.937,43.883,15.807
	c12.342-10.226,27.764-15.807,43.927-15.807c6.437,0,12.671,0.887,18.585,2.545c-6.853-9.647-14.081-18.846-21.63-27.521
	l-7.858,7.859c-4.5,4.5-10.499,6.979-16.895,6.979c-6.395,0-12.395-2.479-16.895-6.978c-9.313-9.317-9.313-24.475-0.001-33.789
	l7.684-7.683c-0.742-0.626-1.484-1.246-2.227-1.859c-0.122-0.102-0.242-0.207-0.357-0.316c-24.076-22.84-41.682-9.483-70.727,16.086
	c-17.796,15.668-37.737,33.225-61.884,36.44c6.563,9.317,5.682,22.315-2.646,30.645c-4.5,4.5-10.5,6.979-16.895,6.979
	c-5.998,0-11.648-2.181-16.04-6.164C75.296,226.562,68.203,243.532,64.78,260.873z M351.369,310H62.566
	c1.613,33.358,14.731,64.964,37.406,89.937h165.026c22.583-14.471,40.247-36.279,48.622-60.112c1.283-3.646,5.276-5.563,8.926-4.283
	c3.646,1.282,5.564,5.278,4.282,8.926c-7.325,20.845-20.932,40.274-38.506,55.47h25.641
	C336.638,374.964,349.756,343.358,351.369,310z M368.588,274.873H266.854c-0.09,0.002-0.182,0.002-0.271,0h-36.146
	c-0.098,0.003-0.196,0.003-0.296,0h-48.448c-0.102,0.002-0.2,0.002-0.3,0h-36.141c-0.092,0.002-0.182,0.002-0.273,0H56.652
	c-0.072,0.002-0.143,0.002-0.215,0H45.35V296h323.238V274.873z M102.278,232.437h-2.103c-3.866,0-7,3.134-7,7s3.134,7,7,7h2.103
	c3.866,0,7-3.134,7-7S106.144,232.437,102.278,232.437z M178.258,178.595h2.101c3.866,0,7-3.134,7-7s-3.134-7-7-7h-2.101
	c-3.866,0-7,3.134-7,7S174.392,178.595,178.258,178.595z"/>
<g>
</g>
<g>
</g>
<g>
</g>
<g>
</g>
<g>
</g>
<g>
</g>
<g>
</g>
<g>
</g>
<g>
</g>
<g>
</g>
<g>
</g>
<g>
</g>
<g>
</g>
<g>
</g>
<g>
</g>
</svg>
