<?xml version="1.0" encoding="iso-8859-1"?>
<!-- Generator: Adobe Illustrator 17.1.0, SVG Export Plug-In . SVG Version: 6.00 Build 0)  -->
<!DOCTYPE svg PUBLIC "-//W3C//DTD SVG 1.1//EN" "http://www.w3.org/Graphics/SVG/1.1/DTD/svg11.dtd">
<svg version="1.1" id="Capa_1" xmlns="http://www.w3.org/2000/svg" xmlns:xlink="http://www.w3.org/1999/xlink" x="0px" y="0px"
	 viewBox="0 0 416.52 416.52" style="enable-background:new 0 0 416.52 416.52;" xml:space="preserve">
<path id="XMLID_673_" d="M82.951,154.478c0-3.866-3.134-7-7-7h-32.82c-3.866,0-7,3.134-7,7v58.641c0,3.866,3.134,7,7,7h32.82
	c3.866,0,7-3.134,7-7V154.478z M68.951,206.119h-18.82v-44.641h18.82V206.119z M214.175,58.604c0-3.866-3.134-7-7-7h-32.82
	c-3.866,0-7,3.134-7,7v58.641c0,3.866,3.134,7,7,7h32.82c3.866,0,7-3.134,7-7V58.604z M200.175,110.246h-18.82V65.604h18.82V110.246
	z M141.562,147.478h-32.819c-3.866,0-7,3.134-7,7v58.641c0,3.866,3.134,7,7,7h32.819c3.866,0,7-3.134,7-7v-58.641
	C148.562,150.612,145.428,147.478,141.562,147.478z M134.562,206.119h-18.819v-44.641h18.819V206.119z M200.175,262.389v-5.039
	h-18.82v15.254c0,3.866-3.134,7-7,7s-7-3.134-7-7V250.35c0-3.866,3.134-7,7-7h32.82c3.866,0,7,3.134,7,7v12.039c0,3.866-3.134,7-7,7
	S200.175,266.255,200.175,262.389z M84.877,355.187c0,3.866-3.134,7-7,7H7c-3.866,0-7-3.134-7-7V12.41c0-3.866,3.134-7,7-7h236.307
	c3.866,0,7,3.134,7,7v249.979c0,3.866-3.134,7-7,7s-7-3.134-7-7V19.41H14v328.776h63.877
	C81.743,348.187,84.877,351.32,84.877,355.187z M148.562,58.604c0-3.866-3.134-7-7-7h-32.819c-3.866,0-7,3.134-7,7v58.641
	c0,3.866,3.134,7,7,7h32.819c3.866,0,7-3.134,7-7V58.604z M134.562,110.246h-18.819V65.604h18.819V110.246z M214.175,154.478
	c0-3.866-3.134-7-7-7h-32.82c-3.866,0-7,3.134-7,7v58.641c0,3.866,3.134,7,7,7h32.82c3.866,0,7-3.134,7-7V154.478z M200.175,206.119
	h-18.82v-44.641h18.82V206.119z M322.058,239.604c0-3.866,3.134-7,7-7s7,3.134,7,7v2.102c0,3.866-3.134,7-7,7s-7-3.134-7-7V239.604z
	 M322.058,276.225c0-3.866,3.134-7,7-7s7,3.134,7,7v2.102c0,3.866-3.134,7-7,7s-7-3.134-7-7V276.225z M363.224,239.604
	c0-3.866,3.134-7,7-7s7,3.134,7,7v2.102c0,3.866-3.134,7-7,7s-7-3.134-7-7V239.604z M322.058,166.529v-2.101c0-3.866,3.134-7,7-7
	s7,3.134,7,7v2.101c0,3.866-3.134,7-7,7S322.058,170.396,322.058,166.529z M363.224,203.149v-2.101c0-3.866,3.134-7,7-7s7,3.134,7,7
	v2.101c0,3.866-3.134,7-7,7S363.224,207.016,363.224,203.149z M322.058,201.048c0-3.866,3.134-7,7-7s7,3.134,7,7v2.101
	c0,3.866-3.134,7-7,7s-7-3.134-7-7V201.048z M416.52,221.377c0,24.559-8.031,47.705-23.226,66.934
	c-1.381,1.748-3.429,2.661-5.497,2.661c-1.52,0-3.05-0.493-4.335-1.508c-3.033-2.396-3.55-6.799-1.152-9.832
	c13.222-16.733,20.21-36.877,20.21-58.254c0-51.857-42.188-94.047-94.045-94.047c-11.089,0-21.944,1.911-32.265,5.679
	c-3.631,1.326-7.65-0.543-8.976-4.175c-1.326-3.632,0.543-7.65,4.175-8.977c11.863-4.331,24.334-6.527,37.065-6.527
	C368.051,113.331,416.52,161.8,416.52,221.377z M280.889,201.048c0-3.866,3.134-7,7-7s7,3.134,7,7v2.101c0,3.866-3.134,7-7,7
	s-7-3.134-7-7V201.048z M101.742,276.844V250.35c0-3.866,3.134-7,7-7h32.819c3.866,0,7,3.134,7,7v36.708c0,3.866-3.134,7-7,7
	s-7-3.134-7-7V257.35h-18.819v19.494c0,3.866-3.134,7-7,7S101.742,280.71,101.742,276.844z M82.951,58.604c0-3.866-3.134-7-7-7
	h-32.82c-3.866,0-7,3.134-7,7v58.641c0,3.866,3.134,7,7,7h32.82c3.866,0,7-3.134,7-7V58.604z M68.951,110.246h-18.82V65.604h18.82
	V110.246z M375.048,302.453c-1.563-1.33-3.628-1.909-5.652-1.583l-14.733,2.371c-10.407,1.674-19.477,7.576-25.761,15.905
	c-7.946-20.798-25.326-36.985-51.533-36.985H205.91c-23.347,0-42.433,17.738-51.243,39.053
	c-6.851-9.274-17.119-16.128-28.578-17.972l-14.733-2.371c-2.027-0.327-4.091,0.252-5.652,1.583c-1.561,1.33-2.46,3.278-2.46,5.329
	v6.127c0,0.946,0.191,1.882,0.563,2.751c4.06,9.498,6.206,19.862,6.206,29.975s-2.146,20.478-6.206,29.976
	c-0.372,0.87-0.563,1.806-0.563,2.751v6.127c0,2.051,0.899,3.999,2.461,5.329c1.561,1.33,3.629,1.906,5.651,1.583l14.733-2.372
	c11.459-1.845,21.728-8.699,28.577-17.973c8.812,21.315,27.897,39.054,51.244,39.054h71.458c22.957,0,41.796-17.154,50.796-37.993
	c6.301,8.859,15.676,15.17,26.498,16.912l14.733,2.372c2.019,0.324,4.09-0.253,5.651-1.583c1.562-1.33,2.461-3.278,2.461-5.329
	v-6.127c0-0.946-0.191-1.882-0.563-2.751c-4.062-9.501-6.208-19.867-6.208-29.976s2.146-20.474,6.208-29.975
	c0.372-0.87,0.563-1.806,0.563-2.751v-6.127C377.508,305.731,376.608,303.783,375.048,302.453z M145.784,353.635h2.641
	c-3.084,11.101-13.084,20.725-24.561,22.572l-5.195,0.836c3.506-9.794,5.344-20.203,5.344-30.408s-1.838-20.614-5.344-30.407
	l5.195,0.836c11.477,1.847,21.477,11.471,24.561,22.571h-2.641c-3.866,0-7,3.134-7,7S141.918,353.635,145.784,353.635z
	 M290.229,335.607c9.348,1.504,19.014,5.676,26.266,11.146c-8.032,6.64-18.09,11.73-26.267,13.046
	c-3.816,0.614-6.413,4.207-5.799,8.023c0.614,3.817,4.21,6.411,8.023,5.799c7.8-1.255,16.372-4.78,24.292-9.773
	c-2.209,6.2-5.519,12.169-9.708,17.314c-8.374,10.283-18.911,15.946-29.669,15.946H205.91c-10.757,0-21.293-5.663-29.668-15.947
	c-3.99-4.9-7.183-10.547-9.386-16.43c6.311,4.201,13.559,7.621,21.439,8.889c3.815,0.613,7.409-1.982,8.023-5.799
	s-1.981-7.409-5.799-8.023c-9.112-1.467-17.51-7.191-23.98-13.031c7.116-5.888,15.438-9.787,23.98-11.162
	c3.816-0.614,6.413-4.206,5.799-8.023c-0.614-3.818-4.208-6.413-8.023-5.799c-7.607,1.224-15.047,3.975-21.9,8.026
	c2.208-6.339,5.568-12.451,9.846-17.703c8.375-10.284,18.911-15.947,29.669-15.947h71.458c22.937,0,36.063,16.137,40.643,34.839
	c-7.766-4.51-16.696-7.79-25.559-9.215c-3.802-0.613-7.408,1.982-8.022,5.799S286.412,334.993,290.229,335.607z M362.082,377.043
	l-5.195-0.836c-11.04-1.777-19.808-10.977-22.371-22.572h0.449c3.866,0,7-3.134,7-7c0-3.866-3.135-7-7-7h-0.449
	c2.563-11.595,11.33-20.795,22.371-22.571l5.195-0.836c-3.508,9.796-5.346,20.204-5.346,30.407
	C356.736,356.838,358.574,367.247,362.082,377.043z M280.889,239.604c0-3.866,3.134-7,7-7s7,3.134,7,7v2.102c0,3.866-3.134,7-7,7
	s-7-3.134-7-7V239.604z M75.951,243.35h-32.82c-3.866,0-7,3.134-7,7v58.64c0,3.866,3.134,7,7,7h32.82c3.866,0,7-3.134,7-7v-58.64
	C82.951,246.483,79.817,243.35,75.951,243.35z M68.951,301.989h-18.82v-44.64h18.82V301.989z M280.889,166.529v-2.101
	c0-3.866,3.134-7,7-7s7,3.134,7,7v2.101c0,3.866-3.134,7-7,7S280.889,170.396,280.889,166.529z"/>
<g>
</g>
<g>
</g>
<g>
</g>
<g>
</g>
<g>
</g>
<g>
</g>
<g>
</g>
<g>
</g>
<g>
</g>
<g>
</g>
<g>
</g>
<g>
</g>
<g>
</g>
<g>
</g>
<g>
</g>
</svg>
