<?xml version="1.0" encoding="iso-8859-1"?>
<!-- Generator: Adobe Illustrator 17.1.0, SVG Export Plug-In . SVG Version: 6.00 Build 0)  -->
<!DOCTYPE svg PUBLIC "-//W3C//DTD SVG 1.1//EN" "http://www.w3.org/Graphics/SVG/1.1/DTD/svg11.dtd">
<svg version="1.1" id="Capa_1" xmlns="http://www.w3.org/2000/svg" xmlns:xlink="http://www.w3.org/1999/xlink" x="0px" y="0px"
	 viewBox="0 0 437.121 437.121" style="enable-background:new 0 0 437.121 437.121;" xml:space="preserve">
<path id="XMLID_174_" d="M199.505,370.679c0,3.866-3.134,7-7,7H134.69c-12.503,0-22.676-10.173-22.676-22.678V246.607
	c0-12.504,10.172-22.677,22.676-22.677h83.659c12.504,0,22.676,10.173,22.676,22.677v49.254c0,3.866-3.134,7-7,7s-7-3.134-7-7
	v-49.254c0-4.784-3.892-8.677-8.676-8.677H134.69c-4.784,0-8.676,3.893-8.676,8.677v108.394c0,4.785,3.892,8.678,8.676,8.678h57.815
	C196.372,363.679,199.505,366.813,199.505,370.679z M192.709,412.24c0,3.866-3.134,7-7,7h-85.171
	c-17.826,0-32.328-14.503-32.328-32.329V230.593c0-29.422,22.153-53.767,50.654-57.231V82.983c0-15.423,10.855-28.357,25.328-31.564
	V22.086C144.191,9.908,154.099,0,166.278,0h20.483c12.179,0,22.086,9.908,22.086,22.086v29.332
	c14.473,3.207,25.328,16.142,25.328,31.565v90.378c28.501,3.465,50.654,27.81,50.654,57.231v42.079c0,3.866-3.134,7-7,7
	s-7-3.134-7-7v-42.079c0-24.071-19.583-43.654-43.654-43.654c-3.866,0-7-3.134-7-7V82.983c0-7.628-4.685-14.184-11.328-16.938
	v24.312c0,12.708-10.131,19.565-19.663,19.565c-1.948,0-3.853-0.261-5.663-0.765v11.817c0,12.708-10.131,19.565-19.664,19.565
	c-5.023,0-9.76-1.737-13.336-4.892c-4.08-3.599-6.327-8.81-6.327-14.674V66.044c-6.645,2.756-11.33,9.311-11.33,16.939v96.955
	c0,3.866-3.134,7-7,7c-24.071,0-43.654,19.583-43.654,43.654v156.318c0,10.106,8.222,18.329,18.328,18.329h85.171
	C189.575,405.24,192.709,408.374,192.709,412.24z M194.847,64.655h-36.653v56.319c0,5.164,4.335,5.565,5.664,5.565
	c1.329,0,5.664-0.401,5.664-5.565V90.356c0-3.866,3.134-7,7-7s7,3.134,7,7c0,5.164,4.334,5.565,5.663,5.565
	c1.328,0,5.663-0.401,5.663-5.565V64.655z M158.191,50.655h36.656V22.086c0-4.459-3.627-8.086-8.086-8.086h-20.483
	c-4.459,0-8.086,3.627-8.086,8.086V50.655z M278.161,386.445h-3.051c-3.866,0-7,3.134-7,7s3.134,7,7,7h3.051c3.866,0,7-3.134,7-7
	S282.027,386.445,278.161,386.445z M309.854,363.418c0-3.866-3.134-7-7-7h-3.05c-3.866,0-7,3.134-7,7s3.134,7,7,7h3.05
	C306.72,370.418,309.854,367.284,309.854,363.418z M367.67,434.101c-1.307,1.892-3.46,3.021-5.759,3.021H213.327
	c-2.299,0-4.452-1.129-5.759-3.021c-1.307-1.892-1.602-4.305-0.788-6.455l31.782-84.026c16.31-43.136,35.68-52.19,49.058-52.19
	c13.377-0.001,32.748,9.054,49.059,52.191l31.78,84.025C369.272,429.796,368.977,432.208,367.67,434.101z M351.78,423.121
	l-28.196-74.55c-10.368-27.419-23.476-43.145-35.964-43.144c-12.488,0-25.596,15.725-35.963,43.143l-28.198,74.551H351.78z
	 M310.754,386.445h-3.05c-3.866,0-7,3.134-7,7s3.134,7,7,7h3.05c3.866,0,7-3.134,7-7S314.62,386.445,310.754,386.445z"/>
<g>
</g>
<g>
</g>
<g>
</g>
<g>
</g>
<g>
</g>
<g>
</g>
<g>
</g>
<g>
</g>
<g>
</g>
<g>
</g>
<g>
</g>
<g>
</g>
<g>
</g>
<g>
</g>
<g>
</g>
</svg>
