<?xml version="1.0" encoding="iso-8859-1"?>
<!-- Generator: Adobe Illustrator 17.1.0, SVG Export Plug-In . SVG Version: 6.00 Build 0)  -->
<!DOCTYPE svg PUBLIC "-//W3C//DTD SVG 1.1//EN" "http://www.w3.org/Graphics/SVG/1.1/DTD/svg11.dtd">
<svg version="1.1" id="Capa_1" xmlns="http://www.w3.org/2000/svg" xmlns:xlink="http://www.w3.org/1999/xlink" x="0px" y="0px"
	 viewBox="0 0 421.334 421.334" style="enable-background:new 0 0 421.334 421.334;" xml:space="preserve">
<path id="XMLID_892_" d="M63.408,360.707c-0.566,5.809,1.895,11.508,6.424,14.872c2.459,1.826,7.647,4.453,14.758,1.526
	c3.574-1.472,7.666,0.233,9.138,3.809c1.472,3.575-0.234,7.666-3.809,9.138c-3.858,1.588-7.796,2.373-11.652,2.373
	c-5.987,0-11.78-1.891-16.782-5.605c-8.449-6.275-13.052-16.801-12.011-27.472l11.251-115.165c0.375-3.848,3.804-6.655,7.647-6.286
	c3.848,0.376,6.662,3.8,6.286,7.647L63.408,360.707z M173.377,403.564c2.084,3.256,1.135,7.585-2.121,9.669
	c-4.141,2.651-8.603,4.686-13.263,6.049c-4.693,1.373-9.481,2.051-14.296,2.051c-11.977,0-24.13-4.195-35.48-12.337
	c-19.183,13.692-41.054,16.125-59.421,6.349c-19.304-10.274-30.804-32.22-28.616-54.61l23.443-239.985
	c0.994-10.174,3.673-19.416,7.972-27.586c-6.46-3.979-11.947-9.576-15.787-16.442c-1.188-2.124-1.188-4.711,0-6.834
	c7.983-14.273,23.039-23.14,39.292-23.14h6.564v-6.565c0-16.255,8.868-31.311,23.144-39.293c2.123-1.187,4.71-1.188,6.833,0.001
	c14.271,7.983,23.137,23.039,23.137,39.292v6.565h6.565c16.255,0,31.311,8.867,39.292,23.141c1.187,2.123,1.187,4.709,0,6.832
	c-3.839,6.866-9.326,12.464-15.786,16.443c4.298,8.171,6.978,17.413,7.972,27.587l5.041,51.6c0.376,3.848-2.438,7.271-6.286,7.647
	c-0.231,0.022-0.461,0.034-0.689,0.034c-3.56,0-6.605-2.704-6.958-6.32l-5.041-51.6c-0.861-8.82-3.244-16.699-7.048-23.527
	c-3.401,0.823-6.916,1.277-10.496,1.277H75.098c-3.579,0-7.094-0.454-10.494-1.277c-3.805,6.828-6.187,14.707-7.048,23.526
	L34.113,362.098c-1.644,16.815,6.9,33.247,21.26,40.889c14.852,7.904,32.49,4.909,48.394-8.217c2.587-2.136,6.325-2.135,8.913,0
	c13.37,11.037,28.067,14.97,41.385,11.076c3.381-0.988,6.625-2.469,9.643-4.402C166.964,399.359,171.292,400.309,173.377,403.564z
	 M75.098,85.862h66.244c9.833,0,19.035-4.726,24.86-12.557c-5.825-7.832-15.027-12.557-24.86-12.557h-13.565c-3.866,0-7-3.134-7-7
	V40.183c0-9.832-4.726-19.034-12.555-24.861c-7.833,5.826-12.559,15.028-12.559,24.861v13.565c0,3.866-3.134,7-7,7H75.098
	c-9.831,0-19.033,4.727-24.86,12.557C56.065,81.136,65.267,85.862,75.098,85.862z M248.531,208.185l0.002,0.001
	c0.155,0.078,0.313,0.149,0.474,0.215c6.019,2.469,8.282,5.257,8.335,6.529c0.04,0.972-1.5,3.233-5.905,5.483
	c-3.443,1.758-4.809,5.974-3.051,9.417c1.237,2.423,3.693,3.818,6.24,3.818c1.071,0,2.158-0.247,3.177-0.767
	c2.829-1.445,5.078-2.989,6.869-4.561c1.792,1.573,4.04,3.117,6.869,4.561c1.02,0.521,2.106,0.767,3.177,0.767
	c2.547,0,5.003-1.395,6.24-3.818c1.758-3.443,0.392-7.66-3.051-9.417c-4.406-2.25-5.945-4.511-5.905-5.483
	c0.053-1.272,2.316-4.061,8.335-6.529c0.161-0.066,0.319-0.138,0.474-0.215l0.002-0.001c3.458-1.729,4.858-5.934,3.13-9.391
	c-1.66-3.321-5.606-4.744-8.979-3.321c-4.508,1.856-7.837,3.967-10.292,6.13c-2.454-2.163-5.784-4.274-10.292-6.13
	c-3.373-1.423-7.319,0-8.979,3.321C243.672,202.251,245.073,206.456,248.531,208.185z M324.865,403.617
	c-18.418,9.169-39.138,13.76-59.854,13.761c-20.247,0.001-40.491-4.382-58.605-13.16c-57.625-27.92-90.196-120.961-73.391-172.7
	c4.374-13.467,11.751-23.475,21.927-29.745c11.054-6.812,24.848-8.802,40.995-5.914l2.037,0.364
	c5.351-3.333,11.401-5.76,17.82-7.076c-3.803-11.796-1.942-24.686,5.516-35.464c1.291-1.866,3.406-2.99,5.674-3.017
	c14.589-0.172,28.415,5.205,38.042,14.397c9.478-9.05,23.077-14.4,37.366-14.4c0.226,0,0.452,0.001,0.678,0.004
	c2.268,0.027,4.382,1.151,5.673,3.016c7.458,10.779,9.32,23.667,5.516,35.464c6.425,1.317,12.482,3.748,17.837,7.087l1.961-0.366
	c15.978-2.986,29.666-1.124,40.684,5.531c10.149,6.13,17.556,15.987,22.015,29.296C413.951,282.013,382.177,375.084,324.865,403.617
	z M197.899,214.287c6.718,7.484,17.21,12.09,28.469,12.277c2.538,0.042,4.854,1.455,6.053,3.691
	c1.199,2.237,1.094,4.947-0.275,7.084c-5.297,8.269-5.686,17.927-1.222,26.45c11.736-0.871,22.375-6.416,28.37-14.968
	c1.31-1.869,3.449-2.982,5.732-2.982h0c2.283,0,4.422,1.113,5.732,2.983c5.992,8.551,16.633,14.095,28.37,14.967
	c4.462-8.523,4.074-18.182-1.224-26.449c-1.37-2.137-1.475-4.848-0.276-7.084s3.516-3.649,6.053-3.691
	c11.258-0.187,21.75-4.792,28.468-12.277c-6.719-7.485-17.21-12.09-28.467-12.275c-2.538-0.042-4.854-1.454-6.054-3.691
	c-1.2-2.237-1.094-4.948,0.275-7.085c5.299-8.269,5.688-17.927,1.225-26.45c-11.738,0.871-22.378,6.415-28.371,14.966
	c-1.31,1.87-3.45,2.983-5.732,2.983s-4.422-1.113-5.732-2.982c-5.993-8.551-16.634-14.095-28.37-14.967
	c-4.464,8.523-4.075,18.182,1.224,26.452c1.369,2.137,1.475,4.848,0.275,7.084s-3.516,3.649-6.054,3.691
	C215.11,202.197,204.618,206.803,197.899,214.287z M383.482,235.145c-6.243-18.631-19.003-27.544-37.987-26.588
	c0.458,0.628,0.901,1.267,1.324,1.919c1.506,2.318,1.506,5.306,0,7.624c-7.054,10.864-19.008,18.548-32.56,21.327
	c3.803,11.795,1.942,24.682-5.514,35.461c-1.291,1.866-3.406,2.991-5.674,3.018c-14.521,0.155-28.417-5.203-38.044-14.397
	c-9.479,9.051-23.078,14.401-37.366,14.401c-0.226,0-0.45-0.001-0.676-0.004c-2.269-0.027-4.383-1.151-5.674-3.017
	c-7.458-10.778-9.319-23.667-5.517-35.462c-13.554-2.778-25.507-10.462-32.562-21.327c-1.505-2.318-1.505-5.306,0-7.625
	c0.408-0.628,0.836-1.243,1.276-1.849c-19.21-0.817-32.034,8.305-38.177,27.218c-7.112,21.897-3.834,54.766,8.556,85.779
	c13.248,33.159,34.251,58.672,57.625,69.997c32.833,15.91,73.494,15.705,106.116-0.535c23.272-11.586,44.052-37.266,57.01-70.455
	C387.749,289.606,390.755,256.851,383.482,235.145z M248.383,366.888c-19.271-3.277-36.3-12.968-47.951-27.287
	c-4.857-5.972-10.313-17.01-14.595-29.526c-1.25-3.658-5.23-5.608-8.889-4.357c-3.658,1.251-5.609,5.231-4.357,8.889
	c4.859,14.206,11.049,26.537,16.981,33.83c13.793,16.953,33.846,28.407,56.463,32.254c0.397,0.067,0.792,0.1,1.182,0.1
	c3.351,0,6.312-2.414,6.893-5.827C254.759,371.151,252.194,367.536,248.383,366.888z"/>
<g>
</g>
<g>
</g>
<g>
</g>
<g>
</g>
<g>
</g>
<g>
</g>
<g>
</g>
<g>
</g>
<g>
</g>
<g>
</g>
<g>
</g>
<g>
</g>
<g>
</g>
<g>
</g>
<g>
</g>
</svg>
