<?xml version="1.0" encoding="iso-8859-1"?>
<!-- Generator: Adobe Illustrator 18.0.0, SVG Export Plug-In . SVG Version: 6.00 Build 0)  -->
<!DOCTYPE svg PUBLIC "-//W3C//DTD SVG 1.1//EN" "http://www.w3.org/Graphics/SVG/1.1/DTD/svg11.dtd">
<svg version="1.1" id="Capa_1" xmlns="http://www.w3.org/2000/svg" xmlns:xlink="http://www.w3.org/1999/xlink" x="0px" y="0px"
	 viewBox="0 0 297 297" style="enable-background:new 0 0 297 297;" xml:space="preserve">
<path d="M256.714,95.12c-3.455-1.692-7.572-1.268-10.609,1.092l-1.041,0.809V10.076C245.064,4.512,240.552,0,234.987,0h-34.596
	c-5.563,0-10.076,4.512-10.076,10.076v24.531h-34.281C149.399,14.532,130.47,0,108.198,0h-5.883
	C74.536,0,51.938,22.599,51.938,50.378v46.643l-1.041-0.808c-3.037-2.361-7.154-2.786-10.609-1.093
	c-3.457,1.691-5.646,5.202-5.646,9.049v182.755c0,5.565,4.512,10.076,10.074,10.076h207.568c5.564,0,10.074-4.512,10.074-10.076
	V104.169C262.358,100.322,260.169,96.812,256.714,95.12z M224.913,20.15v90.31l-14.445-11.218V20.15H224.913z M190.315,99.229
	l-15.879,12.334l-15.859-12.319V54.759h31.738V99.229z M102.315,20.15h5.883c16.668,0,30.227,13.56,30.227,30.227V99.23
	l-15.879,12.333L102.78,96.213c-3.637-2.824-8.725-2.824-12.361,0l-18.33,14.239V50.378C72.089,33.71,85.647,20.15,102.315,20.15z
	 M242.208,276.848H54.792V124.754l9.684,7.523c3.639,2.824,8.727,2.824,12.363,0l19.762-15.35l19.764,15.35
	c3.637,2.825,8.723,2.825,12.361,0l19.766-15.35l19.766,15.35c3.637,2.825,8.723,2.824,12.361,0.001l19.766-15.353l19.771,15.353
	c3.635,2.824,8.723,2.824,12.357,0l9.695-7.529V276.848z"/>
<g>
</g>
<g>
</g>
<g>
</g>
<g>
</g>
<g>
</g>
<g>
</g>
<g>
</g>
<g>
</g>
<g>
</g>
<g>
</g>
<g>
</g>
<g>
</g>
<g>
</g>
<g>
</g>
<g>
</g>
</svg>
