<svg xmlns="http://www.w3.org/2000/svg" width="19.132" height="16.741" viewBox="0 0 19.132 16.741"><defs><style>.a{fill:#fff;}</style></defs><path class="a" d="M.683,63.075H18.449a.683.683,0,0,0,.683-.683V60.683A.683.683,0,0,0,18.449,60H.683A.683.683,0,0,0,0,60.683v1.708A.683.683,0,0,0,.683,63.075Zm0,6.833H18.449a.683.683,0,0,0,.683-.683V67.516a.683.683,0,0,0-.683-.683H.683A.683.683,0,0,0,0,67.516v1.708A.683.683,0,0,0,.683,69.908Zm0,6.833H18.449a.683.683,0,0,0,.683-.683V74.349a.683.683,0,0,0-.683-.683H.683A.683.683,0,0,0,0,74.349v1.708A.683.683,0,0,0,.683,76.741Z" transform="translate(0 -60)"/></svg>